<?xml version="1.0" encoding="utf-8"?>
<!-- Generator: Adobe Illustrator 25.4.1, SVG Export Plug-In . SVG Version: 6.00 Build 0)  -->
<svg version="1.1" id="Слой_1" xmlns="http://www.w3.org/2000/svg" xmlns:xlink="http://www.w3.org/1999/xlink" x="0px" y="0px"
	 viewBox="0 0 1920 80" style="enable-background:new 0 0 1920 80;" xml:space="preserve">
<style type="text/css">
	.st0{opacity:0.5;}
	.st1{fill-rule:evenodd;clip-rule:evenodd;fill:#B4B4C1;}
	.st2{fill:#B4B4C1;}
</style>
<g class="st0">
	<path class="st1" d="M54.93,50.8c0.1-0.18,0.12-0.37,0.07-0.55c-0.07-0.23-0.26-0.37-1.32-0.95l-1.24-0.67l-0.5-1.65
		c-0.27-0.91-0.46-1.65-0.42-1.65c0.08,0.01,3.16,0.73,3.23,0.75c0.02,0.01,0.32,0.47,0.66,1.03c0.76,1.23,0.91,1.42,1.14,1.47
		c0.51,0.1,1.01-0.38,0.87-0.84c-0.04-0.12-0.31-0.62-0.61-1.11c-0.3-0.49-0.54-0.91-0.53-0.92c0.01-0.01,0.37-0.24,0.81-0.51
		c0.44-0.27,0.89-0.56,1.01-0.66c0.48-0.37,0.26-1.17-0.34-1.23c-0.26-0.03-0.42,0.05-1.47,0.68l-1.17,0.71l-1.68-0.4l-1.68-0.4
		l0.8-0.86c0.44-0.47,0.98-1.04,1.2-1.27l0.39-0.41l1.31-0.03c0.72-0.02,1.37-0.05,1.45-0.07c0.26-0.07,0.49-0.54,0.41-0.84
		c-0.12-0.46-0.43-0.57-1.59-0.53c-0.57,0.02-1.07,0.02-1.12,0.01c-0.06-0.01-0.11-0.45-0.12-1.04c-0.01-0.56-0.06-1.12-0.1-1.26
		c-0.15-0.49-0.92-0.64-1.21-0.24c-0.16,0.23-0.18,0.45-0.14,1.71c0.02,0.64,0.03,1.21,0.01,1.27c-0.03,0.1-2.22,2.46-2.31,2.49
		c-0.03,0.01-0.27-0.73-0.55-1.63l-0.49-1.65l0.66-1.24c0.56-1.06,0.65-1.28,0.58-1.52c-0.1-0.34-0.54-0.6-0.86-0.5
		c-0.18,0.05-0.37,0.33-0.83,1.16l-0.6,1.09l-1.1-0.58c-0.84-0.44-1.15-0.56-1.33-0.51c-0.32,0.1-0.55,0.55-0.45,0.89
		c0.07,0.23,0.26,0.37,1.32,0.95l1.24,0.67l0.5,1.66c0.42,1.42,0.48,1.65,0.36,1.65c-0.27-0.02-3.14-0.73-3.21-0.8
		c-0.04-0.04-0.35-0.52-0.69-1.07c-0.65-1.08-0.79-1.26-1.05-1.36c-0.46-0.18-1.02,0.37-0.88,0.86c0.04,0.13,0.31,0.63,0.61,1.1
		c0.3,0.47,0.53,0.88,0.51,0.9c-0.01,0.02-0.43,0.29-0.92,0.6c-1.04,0.64-1.23,0.88-1.09,1.34c0.07,0.25,0.16,0.35,0.39,0.44
		c0.34,0.13,0.37,0.12,1.78-0.75l1-0.62l1.56,0.37c0.86,0.2,1.62,0.38,1.69,0.4c0.09,0.02-0.29,0.48-1.06,1.3l-1.19,1.27l-1.22,0.03
		c-1.28,0.03-1.61,0.09-1.83,0.31c-0.21,0.2-0.19,0.63,0.03,0.9c0.21,0.26,0.38,0.28,1.67,0.24c0.51-0.02,0.94-0.02,0.96-0.02
		c0.02,0.01,0.04,0.48,0.06,1.05c0.01,0.57,0.06,1.14,0.1,1.28c0.15,0.51,0.95,0.59,1.25,0.13c0.09-0.14,0.12-0.6,0.09-1.5
		c-0.02-0.71-0.02-1.35,0.01-1.42c0.04-0.1,2.05-2.29,2.26-2.47c0.03-0.03,0.28,0.69,0.56,1.6l0.5,1.65l-0.66,1.24
		c-0.59,1.11-0.65,1.27-0.57,1.55c0.11,0.37,0.51,0.57,0.91,0.45c0.21-0.06,0.37-0.27,0.83-1.11l0.57-1.03l1.04,0.55
		C54.36,51.3,54.65,51.32,54.93,50.8z"/>
	<path class="st1" d="M417.82,64.38l0.21-0.4l-0.42-1.39c-0.23-0.77-0.4-1.4-0.37-1.41c0.03-0.01,0.65,0.13,1.38,0.31
		c0.74,0.18,1.45,0.29,1.6,0.25c0.6-0.18,0.73-1.18,0.19-1.48c-0.13-0.07-0.83-0.27-1.55-0.44c-1.16-0.28-1.3-0.33-1.17-0.49
		c0.08-0.1,0.52-0.58,0.99-1.08c0.47-0.49,0.86-1,0.89-1.11c0.11-0.59-0.48-1.19-1.03-1.03c-0.15,0.04-0.68,0.53-1.2,1.08
		c-0.51,0.55-0.95,1.01-0.98,1.02c-0.03,0.01-0.24-0.61-0.47-1.38l-0.42-1.39l-0.38-0.21c-0.21-0.12-0.45-0.19-0.54-0.16
		c-0.25,0.07-0.63,0.49-0.65,0.7c-0.01,0.1,0.17,0.8,0.4,1.56s0.38,1.38,0.35,1.39c-0.03,0.01-0.68-0.12-1.43-0.3
		c-0.75-0.17-1.46-0.29-1.57-0.25c-0.34,0.1-0.62,0.66-0.51,1.03c0.13,0.45,0.4,0.58,1.85,0.93c0.7,0.17,1.27,0.32,1.28,0.33
		s-0.33,0.4-0.75,0.85c-1.32,1.41-1.43,1.64-1.04,2.2c0.45,0.64,0.88,0.47,2.05-0.78c0.51-0.55,0.97-1.02,1.01-1.03
		c0.04-0.01,0.27,0.62,0.5,1.4c0.48,1.59,0.61,1.78,1.24,1.72C417.56,64.79,417.64,64.72,417.82,64.38z"/>
	<circle class="st2" cx="396.92" cy="34.49" r="2.03"/>
	<circle class="st2" cx="373.6" cy="56.56" r="3.38"/>
	<path class="st1" d="M324.78,64.46l0.22-0.41l-0.42-1.42c-0.23-0.78-0.4-1.42-0.38-1.43c0.03-0.01,0.66,0.13,1.41,0.31
		c0.76,0.18,1.49,0.29,1.64,0.25c0.62-0.19,0.75-1.21,0.2-1.51c-0.13-0.07-0.85-0.27-1.59-0.45c-1.19-0.28-1.33-0.34-1.2-0.5
		c0.08-0.1,0.54-0.6,1.02-1.1c0.48-0.51,0.89-1.02,0.91-1.14c0.12-0.6-0.49-1.21-1.05-1.04c-0.15,0.05-0.7,0.54-1.23,1.11
		c-0.53,0.56-0.98,1.03-1.01,1.04c-0.03,0.01-0.25-0.62-0.48-1.4l-0.42-1.42L322,55.15c-0.21-0.12-0.47-0.19-0.56-0.17
		c-0.25,0.08-0.65,0.5-0.67,0.72c-0.01,0.1,0.18,0.82,0.41,1.59c0.23,0.77,0.39,1.41,0.35,1.42c-0.04,0.01-0.7-0.12-1.47-0.3
		c-0.77-0.17-1.5-0.29-1.62-0.25c-0.35,0.11-0.64,0.67-0.53,1.05c0.14,0.46,0.41,0.59,1.9,0.94c0.72,0.17,1.31,0.32,1.31,0.34
		c0.01,0.02-0.34,0.41-0.77,0.87c-1.36,1.44-1.47,1.68-1.07,2.24c0.46,0.65,0.91,0.48,2.1-0.8c0.53-0.56,1-1.04,1.04-1.05
		c0.04-0.01,0.27,0.63,0.51,1.42c0.49,1.62,0.62,1.81,1.27,1.75C324.5,64.88,324.59,64.81,324.78,64.46z"/>
	<path class="st1" d="M18.27,16.43l-0.13,0.43l0.67,1.29c0.37,0.71,0.65,1.3,0.63,1.31c-0.02,0.01-0.66-0.01-1.41-0.05
		c-0.76-0.04-1.48-0.01-1.62,0.06c-0.56,0.29-0.49,1.3,0.09,1.49c0.14,0.05,0.86,0.11,1.6,0.15c1.19,0.05,1.34,0.08,1.25,0.26
		c-0.06,0.11-0.4,0.67-0.77,1.24c-0.37,0.57-0.66,1.14-0.66,1.26c0,0.6,0.7,1.08,1.2,0.82c0.14-0.07,0.57-0.65,0.97-1.29
		c0.4-0.64,0.75-1.17,0.77-1.19c0.03-0.01,0.35,0.55,0.72,1.26l0.67,1.29l0.41,0.14c0.23,0.08,0.48,0.1,0.56,0.06
		c0.23-0.12,0.53-0.6,0.51-0.81c-0.01-0.1-0.32-0.76-0.68-1.46c-0.36-0.7-0.64-1.29-0.6-1.3c0.03-0.02,0.69-0.01,1.46,0.02
		c0.77,0.03,1.49,0.01,1.59-0.05c0.32-0.17,0.49-0.76,0.31-1.1c-0.22-0.42-0.5-0.5-1.99-0.56c-0.72-0.03-1.31-0.07-1.32-0.09
		c-0.01-0.02,0.25-0.46,0.58-0.97c1.03-1.63,1.1-1.88,0.61-2.35c-0.56-0.54-0.96-0.3-1.86,1.15c-0.4,0.64-0.76,1.18-0.8,1.2
		c-0.04,0.02-0.38-0.56-0.75-1.28c-0.77-1.48-0.93-1.63-1.54-1.46C18.45,15.98,18.38,16.07,18.27,16.43z"/>
	<circle class="st2" cx="109.07" cy="63.95" r="2.03"/>
	<circle class="st2" cx="96.45" cy="18.78" r="3.38"/>
	<circle class="st2" cx="85.04" cy="36.24" r="2.03"/>
	<path class="st1" d="M199.43,13.6l-0.13,0.43l0.67,1.29c0.37,0.71,0.65,1.3,0.63,1.31c-0.02,0.01-0.66-0.01-1.41-0.05
		c-0.76-0.04-1.48-0.01-1.62,0.06c-0.56,0.29-0.49,1.3,0.09,1.49c0.14,0.05,0.86,0.11,1.6,0.15c1.19,0.05,1.34,0.08,1.25,0.26
		c-0.06,0.11-0.4,0.67-0.77,1.24c-0.37,0.57-0.66,1.14-0.66,1.26c0,0.6,0.7,1.08,1.2,0.82c0.14-0.07,0.57-0.65,0.97-1.29
		c0.4-0.64,0.75-1.17,0.77-1.19c0.03-0.01,0.35,0.55,0.72,1.26l0.67,1.29l0.41,0.14c0.23,0.08,0.48,0.1,0.56,0.06
		c0.23-0.12,0.53-0.6,0.51-0.81c-0.01-0.1-0.32-0.76-0.68-1.46c-0.36-0.7-0.64-1.29-0.6-1.3c0.03-0.02,0.69-0.01,1.46,0.02
		c0.77,0.03,1.49,0.01,1.59-0.05c0.32-0.17,0.49-0.76,0.31-1.1c-0.22-0.42-0.5-0.5-1.99-0.56c-0.72-0.03-1.31-0.07-1.32-0.09
		s0.25-0.46,0.58-0.97c1.03-1.63,1.1-1.88,0.61-2.35c-0.56-0.54-0.96-0.3-1.86,1.15c-0.4,0.64-0.76,1.18-0.8,1.2
		c-0.04,0.02-0.38-0.56-0.75-1.28c-0.77-1.48-0.93-1.63-1.54-1.46C199.62,13.15,199.54,13.24,199.43,13.6z"/>
	<circle class="st2" cx="13.99" cy="59.67" r="2.03"/>
	<path class="st1" d="M446.86,38.46c0.12-0.23,0.16-0.48,0.09-0.72c-0.09-0.31-0.34-0.49-1.72-1.24l-1.61-0.88l-0.65-2.16
		c-0.36-1.19-0.6-2.15-0.54-2.15c0.1,0.01,4.13,0.95,4.22,0.98c0.02,0.01,0.41,0.61,0.86,1.34c1,1.61,1.19,1.86,1.49,1.92
		c0.67,0.13,1.31-0.49,1.13-1.1c-0.05-0.16-0.41-0.81-0.8-1.45c-0.39-0.64-0.71-1.18-0.7-1.2c0.01-0.02,0.48-0.32,1.05-0.66
		c0.57-0.35,1.16-0.73,1.32-0.86c0.62-0.48,0.33-1.53-0.44-1.61c-0.34-0.04-0.55,0.06-1.91,0.89l-1.53,0.93l-2.19-0.52l-2.19-0.52
		l1.05-1.12c0.58-0.62,1.28-1.36,1.56-1.66l0.51-0.53l1.7-0.04c0.94-0.02,1.79-0.06,1.9-0.09c0.35-0.09,0.64-0.7,0.53-1.1
		c-0.16-0.61-0.56-0.74-2.07-0.69c-0.74,0.03-1.4,0.03-1.47,0.01c-0.07-0.02-0.14-0.59-0.16-1.36c-0.02-0.73-0.08-1.47-0.13-1.64
		c-0.19-0.64-1.19-0.84-1.57-0.31c-0.21,0.29-0.24,0.59-0.18,2.23c0.03,0.84,0.04,1.58,0.02,1.66c-0.04,0.14-2.89,3.21-3.01,3.25
		c-0.04,0.01-0.36-0.95-0.71-2.13l-0.64-2.15l0.86-1.62c0.74-1.38,0.85-1.67,0.76-1.98c-0.13-0.45-0.7-0.78-1.13-0.65
		c-0.23,0.07-0.49,0.43-1.09,1.51l-0.78,1.42l-1.43-0.75c-1.09-0.57-1.51-0.73-1.74-0.66c-0.42,0.13-0.72,0.72-0.58,1.16
		c0.09,0.31,0.34,0.49,1.72,1.24l1.61,0.88l0.65,2.16c0.55,1.85,0.62,2.16,0.46,2.15c-0.36-0.03-4.09-0.96-4.19-1.04
		c-0.06-0.05-0.46-0.68-0.9-1.4c-0.85-1.4-1.04-1.64-1.38-1.77c-0.61-0.23-1.34,0.49-1.14,1.13c0.05,0.17,0.41,0.82,0.8,1.44
		c0.39,0.62,0.69,1.15,0.67,1.18c-0.02,0.03-0.56,0.38-1.2,0.78c-1.36,0.84-1.6,1.14-1.42,1.75c0.1,0.32,0.21,0.45,0.51,0.57
		c0.45,0.17,0.48,0.16,2.33-0.98l1.31-0.81l2.03,0.48c1.12,0.27,2.11,0.5,2.2,0.52c0.11,0.02-0.38,0.62-1.38,1.69l-1.56,1.65
		l-1.59,0.04c-1.67,0.05-2.1,0.12-2.39,0.4c-0.27,0.27-0.25,0.82,0.04,1.17c0.28,0.34,0.5,0.37,2.18,0.31
		c0.67-0.02,1.23-0.03,1.25-0.02c0.02,0.01,0.06,0.63,0.07,1.37c0.02,0.74,0.08,1.49,0.13,1.67c0.2,0.66,1.23,0.77,1.63,0.17
		c0.12-0.18,0.16-0.78,0.12-1.96c-0.03-0.93-0.02-1.77,0.01-1.86c0.05-0.14,2.67-2.99,2.95-3.22c0.04-0.04,0.37,0.91,0.73,2.09
		l0.65,2.16l-0.86,1.62c-0.78,1.45-0.85,1.66-0.74,2.02c0.14,0.48,0.67,0.74,1.19,0.59c0.27-0.08,0.48-0.35,1.08-1.44l0.75-1.34
		l1.36,0.71C446.12,39.11,446.49,39.14,446.86,38.46z"/>
	<circle class="st2" cx="224.07" cy="40.52" r="2.03"/>
	<circle class="st2" cx="205.49" cy="62.94" r="3.38"/>
	<path class="st1" d="M486.99,61.17l0.22-0.41l-0.42-1.42c-0.23-0.78-0.4-1.42-0.38-1.43s0.66,0.13,1.41,0.31
		c0.76,0.18,1.49,0.29,1.64,0.25c0.62-0.19,0.75-1.21,0.2-1.51c-0.13-0.07-0.85-0.27-1.59-0.45c-1.19-0.28-1.33-0.34-1.2-0.5
		c0.08-0.1,0.54-0.6,1.02-1.1c0.48-0.51,0.89-1.02,0.91-1.14c0.12-0.6-0.49-1.21-1.05-1.04c-0.15,0.05-0.7,0.54-1.23,1.11
		c-0.53,0.56-0.98,1.03-1.01,1.04c-0.03,0.01-0.25-0.62-0.48-1.4l-0.42-1.42l-0.39-0.22c-0.21-0.12-0.47-0.19-0.56-0.17
		c-0.25,0.08-0.65,0.5-0.67,0.72c-0.01,0.1,0.18,0.82,0.41,1.59c0.23,0.77,0.39,1.41,0.35,1.42c-0.04,0.01-0.7-0.12-1.47-0.3
		c-0.77-0.17-1.5-0.29-1.62-0.25c-0.35,0.11-0.64,0.67-0.53,1.05c0.14,0.46,0.41,0.59,1.9,0.94c0.72,0.17,1.31,0.32,1.31,0.34
		c0.01,0.02-0.34,0.41-0.77,0.87c-1.36,1.44-1.47,1.68-1.07,2.24c0.46,0.65,0.91,0.48,2.1-0.8c0.53-0.56,1-1.04,1.04-1.05
		c0.04-0.01,0.27,0.63,0.51,1.42c0.49,1.62,0.62,1.81,1.27,1.75C486.72,61.58,486.81,61.51,486.99,61.17z"/>
	<circle class="st2" cx="287.83" cy="17.58" r="3.38"/>
	<circle class="st2" cx="369.62" cy="23.65" r="2.03"/>
	<circle class="st2" cx="264.68" cy="57.02" r="2.03"/>
	<circle class="st2" cx="145.43" cy="59.55" r="2.03"/>
	<path class="st1" d="M765.66,23.83l-0.13,0.43l0.67,1.29c0.37,0.71,0.65,1.3,0.63,1.31c-0.02,0.01-0.66-0.01-1.41-0.05
		c-0.76-0.04-1.48-0.01-1.62,0.06c-0.56,0.29-0.49,1.3,0.09,1.49c0.14,0.05,0.86,0.11,1.6,0.15c1.19,0.05,1.34,0.08,1.25,0.26
		c-0.06,0.11-0.4,0.67-0.77,1.24c-0.37,0.57-0.66,1.14-0.66,1.26c0,0.6,0.7,1.08,1.2,0.82c0.14-0.07,0.57-0.65,0.97-1.29
		c0.4-0.64,0.75-1.17,0.77-1.19c0.03-0.01,0.35,0.55,0.72,1.26l0.67,1.29l0.41,0.14c0.23,0.08,0.48,0.1,0.56,0.06
		c0.23-0.12,0.53-0.6,0.51-0.81c-0.01-0.1-0.32-0.76-0.68-1.46c-0.36-0.7-0.64-1.29-0.6-1.3c0.03-0.02,0.69-0.01,1.46,0.02
		c0.77,0.03,1.49,0.01,1.59-0.05c0.32-0.17,0.49-0.76,0.31-1.1c-0.22-0.42-0.5-0.5-1.99-0.56c-0.72-0.03-1.31-0.07-1.32-0.09
		s0.25-0.46,0.58-0.97c1.03-1.63,1.1-1.88,0.61-2.35c-0.56-0.54-0.96-0.3-1.86,1.15c-0.4,0.64-0.76,1.18-0.8,1.2
		c-0.04,0.02-0.38-0.56-0.75-1.28c-0.77-1.48-0.93-1.63-1.54-1.46C765.85,23.38,765.77,23.47,765.66,23.83z"/>
	<circle class="st2" cx="858.12" cy="21.61" r="3.38"/>
	<circle class="st2" cx="818.28" cy="33.76" r="2.03"/>
	<circle class="st2" cx="652.71" cy="27.03" r="3.38"/>
	<circle class="st2" cx="680.61" cy="51.18" r="2.03"/>
	<circle class="st2" cx="713.5" cy="17.99" r="2.03"/>
	<path class="st1" d="M497.63,19.17l-0.13,0.43l0.67,1.29c0.37,0.71,0.65,1.3,0.63,1.31c-0.02,0.01-0.66-0.01-1.41-0.05
		c-0.76-0.04-1.48-0.01-1.62,0.06c-0.56,0.29-0.49,1.3,0.09,1.49c0.14,0.05,0.86,0.11,1.6,0.15c1.19,0.05,1.34,0.08,1.25,0.26
		c-0.06,0.11-0.4,0.67-0.77,1.24c-0.37,0.57-0.66,1.14-0.66,1.26c0,0.6,0.7,1.08,1.2,0.82c0.14-0.07,0.57-0.65,0.97-1.29
		c0.4-0.64,0.75-1.17,0.77-1.19c0.03-0.01,0.35,0.55,0.72,1.26l0.67,1.29l0.41,0.14c0.23,0.08,0.48,0.1,0.56,0.06
		c0.23-0.12,0.53-0.6,0.51-0.81c-0.01-0.1-0.32-0.76-0.68-1.46c-0.36-0.7-0.64-1.29-0.6-1.3c0.03-0.02,0.69-0.01,1.46,0.02
		c0.77,0.03,1.49,0.01,1.59-0.05c0.32-0.17,0.49-0.76,0.31-1.1c-0.22-0.42-0.5-0.5-1.99-0.56c-0.72-0.03-1.31-0.07-1.32-0.09
		s0.25-0.46,0.58-0.97c1.03-1.63,1.1-1.88,0.61-2.35c-0.56-0.54-0.96-0.3-1.86,1.15c-0.4,0.64-0.76,1.18-0.8,1.2
		c-0.04,0.02-0.38-0.56-0.75-1.28c-0.77-1.48-0.93-1.63-1.54-1.46C497.82,18.72,497.74,18.81,497.63,19.17z"/>
	<circle class="st2" cx="591.59" cy="18.87" r="3.38"/>
	<circle class="st2" cx="629.59" cy="53.62" r="2.03"/>
	<path class="st1" d="M532.43,45.39c0.63,0.06,0.77-0.13,1.24-1.72c0.23-0.78,0.46-1.41,0.5-1.4c0.04,0.01,0.49,0.47,1.01,1.03
		c1.16,1.25,1.59,1.42,2.05,0.78c0.39-0.55,0.28-0.79-1.04-2.2c-0.42-0.45-0.76-0.83-0.75-0.85s0.58-0.17,1.28-0.33
		c1.45-0.34,1.72-0.48,1.85-0.93c0.11-0.37-0.17-0.92-0.51-1.03c-0.11-0.03-0.82,0.08-1.57,0.25c-0.75,0.17-1.4,0.31-1.43,0.3
		c-0.04-0.01,0.12-0.64,0.35-1.39c0.23-0.76,0.41-1.46,0.4-1.56c-0.01-0.21-0.4-0.63-0.65-0.7c-0.09-0.03-0.33,0.05-0.54,0.16
		l-0.38,0.21l-0.42,1.39c-0.23,0.76-0.44,1.38-0.47,1.38c-0.03-0.01-0.47-0.47-0.98-1.02c-0.51-0.55-1.05-1.04-1.2-1.08
		c-0.54-0.16-1.14,0.43-1.03,1.03c0.02,0.12,0.42,0.62,0.89,1.11c0.47,0.49,0.91,0.98,0.99,1.08c0.13,0.16-0.01,0.22-1.17,0.49
		c-0.72,0.17-1.42,0.37-1.55,0.44c-0.54,0.3-0.41,1.3,0.19,1.48c0.15,0.04,0.86-0.06,1.6-0.25c0.73-0.18,1.35-0.32,1.38-0.31
		c0.03,0.01-0.14,0.64-0.37,1.41l-0.42,1.39l0.21,0.4C532.05,45.3,532.14,45.37,532.43,45.39z"/>
	<path class="st1" d="M903.88,58.58c0.15-0.27,0.18-0.57,0.1-0.85c-0.11-0.36-0.41-0.58-2.04-1.46l-1.91-1.04l-0.77-2.56
		c-0.42-1.41-0.71-2.55-0.65-2.55c0.12,0.01,4.89,1.12,5,1.16c0.03,0.01,0.49,0.72,1.02,1.59c1.18,1.91,1.41,2.2,1.77,2.27
		c0.79,0.16,1.56-0.58,1.34-1.3c-0.06-0.19-0.48-0.96-0.95-1.72c-0.47-0.76-0.84-1.4-0.83-1.42c0.01-0.02,0.57-0.37,1.25-0.79
		c0.68-0.41,1.38-0.87,1.57-1.01c0.74-0.57,0.39-1.81-0.52-1.91c-0.4-0.04-0.66,0.07-2.27,1.06l-1.81,1.1l-2.6-0.62l-2.6-0.62
		l1.24-1.33c0.68-0.73,1.52-1.61,1.85-1.96l0.61-0.63l2.02-0.05c1.11-0.03,2.12-0.08,2.25-0.11c0.41-0.11,0.76-0.83,0.63-1.31
		c-0.19-0.72-0.67-0.88-2.46-0.82c-0.88,0.03-1.66,0.04-1.74,0.01c-0.09-0.02-0.16-0.7-0.19-1.61c-0.02-0.87-0.09-1.74-0.15-1.94
		c-0.22-0.76-1.42-0.99-1.87-0.37c-0.25,0.35-0.28,0.7-0.21,2.65c0.04,1,0.05,1.88,0.02,1.96c-0.05,0.16-3.43,3.81-3.57,3.85
		c-0.04,0.01-0.43-1.12-0.85-2.52l-0.76-2.55l1.02-1.92c0.87-1.64,1-1.98,0.9-2.34c-0.16-0.53-0.84-0.92-1.34-0.77
		c-0.27,0.08-0.58,0.5-1.29,1.79l-0.93,1.68l-1.7-0.89c-1.3-0.68-1.78-0.87-2.06-0.78c-0.5,0.15-0.85,0.85-0.69,1.38
		c0.11,0.36,0.41,0.58,2.04,1.46l1.91,1.04l0.77,2.56c0.66,2.19,0.74,2.56,0.55,2.55c-0.42-0.03-4.85-1.13-4.97-1.24
		c-0.07-0.06-0.54-0.8-1.06-1.65c-1.01-1.67-1.23-1.94-1.63-2.1c-0.72-0.27-1.58,0.58-1.36,1.34c0.06,0.2,0.49,0.97,0.94,1.7
		c0.46,0.73,0.82,1.36,0.8,1.4c-0.02,0.04-0.66,0.45-1.43,0.93c-1.61,1-1.9,1.36-1.68,2.08c0.12,0.39,0.25,0.54,0.6,0.68
		c0.53,0.21,0.57,0.19,2.76-1.17l1.55-0.96l2.41,0.57c1.32,0.32,2.5,0.59,2.61,0.62c0.13,0.03-0.45,0.74-1.64,2.01l-1.85,1.96
		l-1.89,0.05c-1.98,0.05-2.49,0.14-2.83,0.48c-0.32,0.31-0.3,0.97,0.05,1.39c0.33,0.4,0.59,0.44,2.58,0.37
		c0.79-0.03,1.46-0.04,1.49-0.02c0.03,0.01,0.07,0.74,0.09,1.62c0.02,0.88,0.09,1.77,0.15,1.97c0.24,0.79,1.46,0.92,1.93,0.2
		c0.14-0.22,0.19-0.93,0.14-2.32c-0.04-1.1-0.03-2.09,0.01-2.2c0.06-0.16,3.17-3.55,3.5-3.82c0.05-0.04,0.44,1.07,0.86,2.48
		l0.77,2.56l-1.02,1.92c-0.92,1.72-1.01,1.97-0.88,2.39c0.17,0.57,0.79,0.88,1.41,0.69c0.32-0.1,0.57-0.42,1.28-1.71l0.88-1.59
		l1.61,0.84C903,59.37,903.44,59.39,903.88,58.58z"/>
	<path class="st1" d="M838.41,59.56l0.21-0.4l-0.42-1.39c-0.23-0.77-0.4-1.4-0.37-1.41c0.03-0.01,0.65,0.13,1.38,0.31
		c0.74,0.18,1.45,0.29,1.6,0.25c0.6-0.18,0.73-1.18,0.19-1.48c-0.13-0.07-0.83-0.27-1.55-0.44c-1.16-0.28-1.3-0.33-1.17-0.49
		c0.08-0.1,0.52-0.58,0.99-1.08c0.47-0.49,0.86-1,0.89-1.11c0.11-0.59-0.48-1.19-1.03-1.03c-0.15,0.04-0.68,0.53-1.2,1.08
		c-0.51,0.55-0.95,1.01-0.98,1.02c-0.03,0.01-0.24-0.61-0.47-1.38l-0.42-1.39l-0.38-0.21c-0.21-0.12-0.45-0.19-0.54-0.16
		c-0.25,0.07-0.63,0.49-0.65,0.7c-0.01,0.1,0.17,0.8,0.4,1.56s0.38,1.38,0.35,1.39c-0.03,0.01-0.68-0.12-1.43-0.3
		c-0.75-0.17-1.46-0.29-1.57-0.25c-0.34,0.1-0.62,0.66-0.51,1.03c0.13,0.45,0.4,0.58,1.85,0.93c0.7,0.17,1.27,0.32,1.28,0.33
		s-0.33,0.4-0.75,0.85c-1.32,1.41-1.43,1.64-1.04,2.2c0.45,0.64,0.88,0.47,2.05-0.78c0.51-0.55,0.97-1.02,1.01-1.03
		c0.04-0.01,0.27,0.62,0.5,1.4c0.48,1.59,0.61,1.78,1.24,1.72C838.14,59.97,838.23,59.9,838.41,59.56z"/>
	<circle class="st2" cx="783.37" cy="60.16" r="3.38"/>
	<path class="st1" d="M945.05,40.81l0.22-0.41l-0.42-1.42c-0.23-0.78-0.4-1.42-0.38-1.43s0.66,0.13,1.41,0.31
		c0.76,0.18,1.49,0.29,1.64,0.25c0.62-0.19,0.75-1.21,0.2-1.51c-0.13-0.07-0.85-0.27-1.59-0.45c-1.19-0.28-1.33-0.34-1.2-0.5
		c0.08-0.1,0.54-0.6,1.02-1.1c0.48-0.51,0.89-1.02,0.91-1.14c0.12-0.6-0.49-1.21-1.05-1.04c-0.15,0.05-0.7,0.54-1.23,1.11
		c-0.53,0.56-0.98,1.03-1.01,1.04c-0.03,0.01-0.25-0.62-0.48-1.4l-0.42-1.42l-0.39-0.22c-0.21-0.12-0.47-0.19-0.56-0.17
		c-0.25,0.08-0.65,0.5-0.67,0.72c-0.01,0.1,0.18,0.82,0.41,1.59c0.23,0.77,0.39,1.41,0.35,1.42c-0.04,0.01-0.7-0.12-1.47-0.3
		c-0.77-0.17-1.5-0.29-1.62-0.25c-0.35,0.11-0.64,0.67-0.53,1.05c0.14,0.46,0.41,0.59,1.9,0.94c0.72,0.17,1.31,0.32,1.31,0.34
		c0.01,0.02-0.34,0.41-0.77,0.87c-1.36,1.44-1.47,1.68-1.07,2.24c0.46,0.65,0.91,0.48,2.1-0.8c0.53-0.56,1-1.04,1.04-1.05
		c0.04-0.01,0.27,0.63,0.51,1.42c0.49,1.62,0.62,1.81,1.27,1.75C944.77,41.23,944.86,41.15,945.05,40.81z"/>
	<circle class="st2" cx="902.16" cy="14.43" r="2.03"/>
	<circle class="st2" cx="941.09" cy="62.09" r="2.03"/>
	<path class="st1" d="M582.09,63.64c0.13-0.24,0.16-0.49,0.09-0.73c-0.09-0.31-0.35-0.5-1.75-1.26l-1.64-0.9l-0.66-2.2
		c-0.36-1.21-0.61-2.2-0.56-2.19c0.1,0.01,4.21,0.97,4.3,1c0.03,0.01,0.42,0.62,0.88,1.37c1.02,1.64,1.21,1.89,1.52,1.96
		c0.68,0.14,1.34-0.5,1.16-1.12c-0.05-0.16-0.42-0.83-0.82-1.48c-0.4-0.66-0.72-1.21-0.71-1.22c0.01-0.02,0.49-0.32,1.08-0.68
		c0.58-0.36,1.19-0.75,1.35-0.87c0.63-0.49,0.34-1.56-0.45-1.64c-0.35-0.04-0.57,0.06-1.95,0.91l-1.56,0.95l-2.24-0.53l-2.24-0.53
		l1.07-1.15c0.59-0.63,1.3-1.39,1.59-1.69l0.53-0.54l1.74-0.04c0.96-0.02,1.83-0.07,1.93-0.09c0.35-0.1,0.65-0.72,0.54-1.12
		c-0.17-0.62-0.58-0.75-2.12-0.7c-0.75,0.03-1.43,0.03-1.5,0.01c-0.07-0.02-0.14-0.6-0.16-1.39c-0.02-0.74-0.08-1.5-0.13-1.67
		c-0.19-0.65-1.22-0.85-1.61-0.32c-0.22,0.3-0.24,0.6-0.18,2.28c0.03,0.86,0.04,1.62,0.02,1.69c-0.04,0.14-2.95,3.28-3.07,3.31
		c-0.04,0.01-0.37-0.97-0.73-2.17l-0.66-2.19l0.88-1.65c0.75-1.41,0.86-1.71,0.77-2.02c-0.14-0.46-0.72-0.79-1.15-0.67
		c-0.24,0.07-0.5,0.43-1.11,1.54l-0.8,1.45l-1.46-0.77c-1.12-0.59-1.54-0.75-1.77-0.67c-0.43,0.13-0.73,0.73-0.59,1.19
		c0.09,0.31,0.35,0.5,1.75,1.26l1.64,0.9l0.66,2.21c0.57,1.89,0.63,2.2,0.47,2.19c-0.36-0.03-4.18-0.98-4.28-1.07
		c-0.06-0.05-0.47-0.69-0.91-1.42c-0.87-1.43-1.06-1.67-1.4-1.8c-0.62-0.23-1.36,0.5-1.17,1.15c0.05,0.18,0.42,0.84,0.81,1.47
		c0.39,0.63,0.7,1.17,0.69,1.2c-0.02,0.03-0.57,0.39-1.23,0.8c-1.38,0.86-1.63,1.17-1.45,1.79c0.1,0.33,0.22,0.46,0.52,0.58
		c0.46,0.18,0.49,0.16,2.37-1l1.33-0.82l2.07,0.49c1.14,0.27,2.15,0.51,2.25,0.53c0.11,0.03-0.39,0.64-1.41,1.73l-1.59,1.69
		l-1.63,0.04c-1.7,0.05-2.15,0.12-2.44,0.41c-0.27,0.27-0.26,0.84,0.04,1.19c0.28,0.34,0.51,0.38,2.22,0.32
		c0.68-0.02,1.26-0.03,1.28-0.02c0.02,0.01,0.06,0.64,0.07,1.4c0.02,0.76,0.08,1.52,0.13,1.7c0.2,0.68,1.26,0.79,1.66,0.18
		c0.12-0.19,0.16-0.8,0.12-2c-0.03-0.95-0.03-1.8,0.01-1.9c0.05-0.14,2.73-3.05,3.01-3.28c0.04-0.04,0.38,0.93,0.74,2.14l0.66,2.2
		l-0.88,1.65c-0.79,1.48-0.87,1.69-0.76,2.06c0.15,0.49,0.68,0.76,1.21,0.6c0.28-0.08,0.49-0.36,1.1-1.47l0.76-1.37l1.39,0.73
		C581.33,64.31,581.71,64.34,582.09,63.64z"/>
	<path class="st1" d="M1032.88,64.77l0.21-0.4l-0.42-1.39c-0.23-0.77-0.4-1.4-0.37-1.41c0.03-0.01,0.65,0.13,1.38,0.31
		c0.74,0.18,1.45,0.29,1.6,0.25c0.6-0.18,0.73-1.18,0.19-1.48c-0.13-0.07-0.83-0.27-1.55-0.44c-1.16-0.28-1.3-0.33-1.17-0.49
		c0.08-0.1,0.52-0.58,0.99-1.08c0.47-0.49,0.86-1,0.89-1.11c0.11-0.59-0.48-1.19-1.03-1.03c-0.15,0.04-0.68,0.53-1.2,1.08
		c-0.51,0.55-0.95,1.01-0.98,1.02c-0.03,0.01-0.24-0.61-0.47-1.38l-0.42-1.39l-0.38-0.21c-0.21-0.12-0.45-0.19-0.54-0.16
		c-0.25,0.07-0.63,0.49-0.65,0.7c-0.01,0.1,0.17,0.8,0.4,1.56c0.23,0.76,0.38,1.38,0.35,1.39c-0.04,0.01-0.68-0.12-1.43-0.3
		c-0.75-0.17-1.46-0.29-1.57-0.25c-0.34,0.1-0.62,0.66-0.51,1.03c0.13,0.45,0.4,0.58,1.85,0.93c0.7,0.17,1.27,0.32,1.28,0.33
		c0.01,0.02-0.33,0.4-0.75,0.85c-1.32,1.41-1.43,1.64-1.04,2.2c0.45,0.64,0.88,0.47,2.05-0.78c0.51-0.55,0.97-1.02,1.01-1.03
		c0.04-0.01,0.27,0.62,0.5,1.4c0.48,1.59,0.61,1.78,1.24,1.72C1032.62,65.18,1032.71,65.11,1032.88,64.77z"/>
	<circle class="st2" cx="1007.05" cy="31.89" r="2.03"/>
	<circle class="st2" cx="988.66" cy="56.95" r="3.38"/>
	<path class="st1" d="M1056.99,35.85c0.12-0.23,0.16-0.48,0.09-0.72c-0.09-0.31-0.34-0.49-1.72-1.24l-1.61-0.88l-0.65-2.16
		c-0.36-1.19-0.6-2.15-0.54-2.15c0.1,0.01,4.13,0.95,4.22,0.98c0.02,0.01,0.41,0.61,0.86,1.34c1,1.61,1.19,1.86,1.49,1.92
		c0.67,0.13,1.31-0.49,1.13-1.1c-0.05-0.16-0.41-0.81-0.8-1.45c-0.39-0.64-0.71-1.18-0.7-1.2c0.01-0.02,0.48-0.32,1.05-0.66
		c0.57-0.35,1.16-0.73,1.32-0.86c0.62-0.48,0.33-1.53-0.44-1.61c-0.34-0.04-0.55,0.06-1.91,0.89l-1.53,0.93l-2.19-0.52l-2.19-0.52
		l1.05-1.12c0.58-0.62,1.28-1.36,1.56-1.66l0.51-0.53l1.7-0.04c0.94-0.02,1.79-0.06,1.9-0.09c0.35-0.09,0.64-0.7,0.53-1.1
		c-0.16-0.61-0.56-0.74-2.07-0.69c-0.74,0.03-1.4,0.03-1.47,0.01c-0.07-0.02-0.14-0.59-0.16-1.36c-0.02-0.73-0.08-1.47-0.13-1.64
		c-0.19-0.64-1.19-0.84-1.57-0.31c-0.21,0.29-0.24,0.59-0.18,2.23c0.03,0.84,0.04,1.58,0.02,1.66c-0.04,0.14-2.89,3.21-3.01,3.25
		c-0.04,0.01-0.36-0.95-0.71-2.13l-0.64-2.15l0.86-1.62c0.74-1.38,0.85-1.67,0.76-1.98c-0.13-0.45-0.7-0.78-1.13-0.65
		c-0.23,0.07-0.49,0.43-1.09,1.51l-0.78,1.42l-1.43-0.75c-1.09-0.57-1.51-0.73-1.74-0.66c-0.42,0.13-0.72,0.72-0.58,1.16
		c0.09,0.31,0.34,0.49,1.72,1.24l1.61,0.88l0.65,2.16c0.55,1.85,0.62,2.16,0.46,2.15c-0.36-0.03-4.09-0.96-4.19-1.04
		c-0.06-0.05-0.46-0.68-0.9-1.4c-0.85-1.4-1.04-1.64-1.38-1.77c-0.61-0.23-1.34,0.49-1.14,1.13c0.05,0.17,0.41,0.82,0.8,1.44
		c0.39,0.62,0.69,1.15,0.67,1.18c-0.02,0.03-0.56,0.38-1.2,0.78c-1.36,0.84-1.6,1.14-1.42,1.75c0.1,0.32,0.21,0.45,0.51,0.57
		c0.45,0.17,0.48,0.16,2.33-0.98l1.31-0.81l2.03,0.48c1.12,0.27,2.11,0.5,2.2,0.52c0.11,0.02-0.38,0.62-1.39,1.69l-1.56,1.65
		l-1.59,0.04c-1.67,0.05-2.1,0.12-2.39,0.4c-0.27,0.27-0.25,0.82,0.04,1.17c0.28,0.34,0.5,0.37,2.18,0.31
		c0.67-0.02,1.23-0.03,1.25-0.02s0.06,0.63,0.07,1.37c0.02,0.74,0.08,1.49,0.13,1.67c0.2,0.66,1.23,0.77,1.63,0.17
		c0.12-0.18,0.16-0.78,0.12-1.96c-0.03-0.93-0.02-1.77,0.01-1.86c0.05-0.14,2.67-2.99,2.95-3.22c0.04-0.04,0.37,0.91,0.73,2.09
		l0.65,2.16l-0.86,1.62c-0.78,1.45-0.85,1.66-0.74,2.02c0.14,0.48,0.67,0.74,1.19,0.59c0.27-0.08,0.48-0.35,1.08-1.44l0.75-1.34
		l1.36,0.71C1056.25,36.51,1056.62,36.53,1056.99,35.85z"/>
	<path class="st1" d="M1092.17,63.05l0.22-0.41l-0.42-1.42c-0.23-0.78-0.4-1.42-0.38-1.43c0.03-0.01,0.66,0.13,1.41,0.31
		c0.76,0.18,1.49,0.29,1.64,0.25c0.62-0.19,0.75-1.21,0.2-1.51c-0.13-0.07-0.85-0.27-1.59-0.45c-1.19-0.28-1.33-0.34-1.2-0.5
		c0.08-0.1,0.54-0.6,1.02-1.1c0.48-0.51,0.89-1.02,0.91-1.14c0.12-0.6-0.49-1.21-1.05-1.04c-0.15,0.05-0.7,0.54-1.23,1.11
		c-0.53,0.56-0.98,1.03-1.01,1.04c-0.03,0.01-0.25-0.62-0.48-1.4l-0.42-1.42l-0.39-0.22c-0.21-0.12-0.47-0.19-0.56-0.17
		c-0.25,0.08-0.65,0.5-0.67,0.72c-0.01,0.1,0.18,0.82,0.41,1.59c0.23,0.77,0.39,1.41,0.35,1.42c-0.04,0.01-0.7-0.12-1.47-0.3
		c-0.77-0.17-1.5-0.29-1.62-0.25c-0.35,0.11-0.64,0.67-0.53,1.05c0.14,0.46,0.41,0.59,1.9,0.94c0.72,0.17,1.31,0.32,1.31,0.34
		c0.01,0.02-0.34,0.41-0.77,0.87c-1.36,1.44-1.47,1.68-1.07,2.24c0.46,0.65,0.91,0.48,2.1-0.8c0.53-0.56,1-1.04,1.04-1.05
		c0.04-0.01,0.27,0.63,0.51,1.42c0.49,1.62,0.62,1.81,1.27,1.75C1091.9,63.47,1091.99,63.39,1092.17,63.05z"/>
	<circle class="st2" cx="979.75" cy="21.05" r="2.03"/>
	<path class="st1" d="M1105.64,12.59l-0.13,0.43l0.67,1.29c0.37,0.71,0.65,1.3,0.63,1.31c-0.02,0.01-0.66-0.01-1.41-0.05
		c-0.76-0.04-1.48-0.01-1.62,0.06c-0.56,0.29-0.49,1.3,0.09,1.49c0.14,0.05,0.86,0.11,1.6,0.15c1.19,0.05,1.34,0.08,1.24,0.26
		c-0.06,0.11-0.4,0.67-0.77,1.24c-0.36,0.57-0.66,1.14-0.66,1.26c0,0.6,0.7,1.08,1.2,0.82c0.14-0.07,0.57-0.65,0.97-1.29
		c0.4-0.64,0.75-1.17,0.77-1.19c0.03-0.01,0.35,0.55,0.72,1.26l0.67,1.29l0.41,0.14c0.23,0.08,0.48,0.1,0.56,0.06
		c0.23-0.12,0.53-0.6,0.51-0.81c-0.01-0.1-0.32-0.76-0.68-1.46c-0.36-0.7-0.64-1.29-0.6-1.3c0.03-0.02,0.69-0.01,1.46,0.02
		c0.77,0.03,1.49,0.01,1.59-0.05c0.32-0.17,0.49-0.76,0.31-1.1c-0.22-0.42-0.5-0.5-1.99-0.56c-0.72-0.03-1.31-0.07-1.32-0.09
		s0.25-0.46,0.58-0.97c1.03-1.63,1.1-1.88,0.61-2.35c-0.56-0.54-0.96-0.3-1.86,1.15c-0.4,0.64-0.76,1.18-0.8,1.2
		c-0.04,0.02-0.38-0.56-0.75-1.28c-0.77-1.48-0.93-1.63-1.54-1.46C1105.82,12.14,1105.75,12.23,1105.64,12.59z"/>
	<path class="st1" d="M1176.82,24.21c0.63,0.06,0.77-0.13,1.24-1.72c0.23-0.78,0.46-1.41,0.5-1.4c0.04,0.01,0.49,0.47,1.01,1.03
		c1.16,1.25,1.59,1.42,2.05,0.78c0.39-0.55,0.28-0.79-1.04-2.2c-0.42-0.45-0.76-0.83-0.75-0.85c0.01-0.02,0.58-0.17,1.28-0.33
		c1.45-0.34,1.72-0.48,1.85-0.93c0.11-0.37-0.17-0.92-0.51-1.03c-0.11-0.03-0.82,0.08-1.57,0.25c-0.75,0.17-1.4,0.31-1.43,0.3
		c-0.04-0.01,0.12-0.64,0.35-1.39c0.23-0.76,0.41-1.46,0.4-1.56c-0.01-0.21-0.4-0.63-0.65-0.7c-0.09-0.03-0.33,0.05-0.54,0.16
		l-0.38,0.21l-0.42,1.39c-0.23,0.76-0.44,1.38-0.47,1.38c-0.03-0.01-0.47-0.47-0.98-1.02c-0.51-0.55-1.05-1.04-1.2-1.08
		c-0.54-0.16-1.14,0.43-1.03,1.03c0.02,0.12,0.42,0.62,0.89,1.11c0.47,0.49,0.91,0.98,0.99,1.08c0.13,0.16-0.01,0.22-1.17,0.49
		c-0.72,0.17-1.42,0.37-1.55,0.44c-0.54,0.3-0.41,1.3,0.19,1.48c0.15,0.04,0.86-0.06,1.6-0.25c0.73-0.18,1.35-0.32,1.38-0.31
		c0.03,0.01-0.14,0.64-0.37,1.41l-0.42,1.39l0.21,0.4C1176.44,24.11,1176.53,24.18,1176.82,24.21z"/>
	<path class="st1" d="M1415.38,39.99c0.13-0.24,0.16-0.49,0.09-0.73c-0.09-0.31-0.35-0.5-1.75-1.26l-1.64-0.9l-0.66-2.2
		c-0.36-1.21-0.61-2.2-0.56-2.19c0.1,0.01,4.21,0.97,4.3,1c0.03,0.01,0.42,0.62,0.88,1.37c1.02,1.64,1.21,1.89,1.52,1.96
		c0.68,0.14,1.34-0.5,1.16-1.12c-0.05-0.16-0.42-0.83-0.82-1.48c-0.4-0.66-0.72-1.21-0.71-1.22c0.01-0.02,0.49-0.32,1.08-0.68
		c0.58-0.36,1.19-0.75,1.35-0.87c0.63-0.49,0.34-1.56-0.45-1.64c-0.35-0.04-0.56,0.06-1.95,0.91l-1.56,0.95l-2.24-0.53l-2.24-0.53
		l1.07-1.15c0.59-0.63,1.3-1.39,1.59-1.69l0.53-0.54l1.74-0.04c0.96-0.02,1.83-0.07,1.93-0.09c0.35-0.1,0.65-0.72,0.54-1.12
		c-0.17-0.62-0.58-0.75-2.12-0.7c-0.75,0.03-1.43,0.03-1.5,0.01c-0.07-0.02-0.14-0.6-0.16-1.39c-0.02-0.74-0.08-1.5-0.13-1.67
		c-0.19-0.65-1.22-0.85-1.61-0.32c-0.22,0.3-0.24,0.6-0.18,2.28c0.03,0.86,0.04,1.62,0.02,1.69c-0.04,0.14-2.95,3.28-3.07,3.31
		c-0.04,0.01-0.37-0.97-0.73-2.17l-0.66-2.19l0.88-1.65c0.75-1.41,0.86-1.71,0.77-2.02c-0.14-0.46-0.72-0.79-1.15-0.67
		c-0.24,0.07-0.5,0.43-1.11,1.54l-0.8,1.45l-1.46-0.77c-1.12-0.59-1.54-0.75-1.77-0.67c-0.43,0.13-0.73,0.73-0.59,1.19
		c0.09,0.31,0.35,0.5,1.75,1.26l1.64,0.9l0.66,2.21c0.57,1.89,0.63,2.2,0.47,2.19c-0.36-0.03-4.18-0.98-4.28-1.07
		c-0.06-0.05-0.47-0.69-0.91-1.42c-0.87-1.43-1.06-1.67-1.4-1.8c-0.62-0.23-1.36,0.5-1.17,1.15c0.05,0.18,0.42,0.84,0.81,1.47
		c0.39,0.63,0.7,1.17,0.69,1.2c-0.02,0.03-0.57,0.39-1.23,0.8c-1.38,0.86-1.63,1.17-1.45,1.79c0.1,0.33,0.22,0.46,0.52,0.58
		c0.46,0.18,0.49,0.16,2.37-1l1.33-0.82l2.07,0.49c1.14,0.27,2.15,0.51,2.25,0.53c0.11,0.03-0.39,0.64-1.41,1.73l-1.59,1.69
		l-1.63,0.04c-1.7,0.05-2.15,0.12-2.44,0.41c-0.27,0.27-0.26,0.84,0.04,1.19c0.28,0.34,0.51,0.38,2.22,0.32
		c0.68-0.02,1.26-0.03,1.28-0.02c0.02,0.01,0.06,0.64,0.07,1.4c0.02,0.76,0.08,1.52,0.13,1.7c0.2,0.68,1.26,0.79,1.66,0.18
		c0.12-0.19,0.16-0.8,0.12-2c-0.03-0.95-0.03-1.8,0.01-1.9c0.05-0.14,2.73-3.05,3.01-3.28c0.04-0.04,0.38,0.93,0.74,2.14l0.66,2.2
		l-0.88,1.65c-0.79,1.48-0.87,1.69-0.76,2.06c0.15,0.49,0.68,0.76,1.21,0.6c0.28-0.08,0.49-0.36,1.1-1.47l0.76-1.37l1.39,0.73
		C1414.63,40.66,1415.01,40.68,1415.38,39.99z"/>
	<circle class="st2" cx="1423.05" cy="63.27" r="2.03"/>
	<circle class="st2" cx="1489.02" cy="33.06" r="2.03"/>
	<circle class="st2" cx="1470.62" cy="58.13" r="3.38"/>
	<circle class="st2" cx="1461.72" cy="22.23" r="2.03"/>
	<circle class="st2" cx="1271.63" cy="12.71" r="2.03"/>
	<circle class="st2" cx="1312.24" cy="29.21" r="2.03"/>
	<circle class="st2" cx="1192.99" cy="31.74" r="2.03"/>
	<circle class="st2" cx="1209.25" cy="66.31" r="2.03"/>
	<circle class="st2" cx="1138.03" cy="68.34" r="2.03"/>
	<circle class="st2" cx="1298.43" cy="60.06" r="3.77"/>
	<path class="st1" d="M1373.04,59.29l-0.13,0.43l0.67,1.29c0.37,0.71,0.65,1.3,0.63,1.31c-0.02,0.01-0.66-0.01-1.41-0.05
		c-0.76-0.04-1.48-0.01-1.62,0.06c-0.56,0.29-0.49,1.3,0.09,1.49c0.14,0.05,0.86,0.11,1.6,0.15c1.19,0.05,1.34,0.08,1.25,0.26
		c-0.06,0.11-0.4,0.67-0.77,1.24c-0.37,0.57-0.66,1.14-0.66,1.26c0,0.6,0.7,1.08,1.2,0.82c0.14-0.07,0.57-0.65,0.97-1.29
		c0.4-0.64,0.75-1.17,0.77-1.19c0.03-0.01,0.35,0.55,0.72,1.26l0.67,1.29l0.41,0.14c0.23,0.08,0.48,0.1,0.56,0.06
		c0.23-0.12,0.53-0.6,0.51-0.81c-0.01-0.1-0.32-0.76-0.68-1.46c-0.36-0.7-0.64-1.29-0.6-1.3c0.03-0.02,0.69-0.01,1.46,0.02
		c0.77,0.03,1.49,0.01,1.59-0.05c0.32-0.17,0.49-0.76,0.31-1.1c-0.22-0.42-0.5-0.5-1.99-0.56c-0.72-0.03-1.31-0.07-1.32-0.09
		c-0.01-0.02,0.25-0.46,0.58-0.97c1.03-1.63,1.1-1.88,0.61-2.35c-0.56-0.54-0.96-0.3-1.86,1.15c-0.4,0.64-0.76,1.18-0.8,1.2
		c-0.04,0.02-0.38-0.56-0.75-1.28c-0.77-1.48-0.93-1.63-1.54-1.46C1373.22,58.84,1373.15,58.92,1373.04,59.29z"/>
	<circle class="st2" cx="1353.97" cy="16.57" r="2.03"/>
	<path class="st1" d="M728.04,52.13l-0.13,0.43l0.67,1.29c0.37,0.71,0.65,1.3,0.63,1.31c-0.02,0.01-0.66-0.01-1.41-0.05
		c-0.76-0.04-1.48-0.01-1.62,0.06c-0.56,0.29-0.49,1.3,0.09,1.49c0.14,0.05,0.86,0.11,1.6,0.15c1.19,0.05,1.34,0.08,1.25,0.26
		c-0.06,0.11-0.4,0.67-0.77,1.24c-0.37,0.57-0.66,1.14-0.66,1.26c0,0.6,0.7,1.08,1.2,0.82c0.14-0.07,0.57-0.65,0.97-1.29
		c0.4-0.64,0.75-1.17,0.77-1.19c0.03-0.01,0.35,0.55,0.72,1.26l0.67,1.29l0.41,0.14c0.23,0.08,0.48,0.1,0.56,0.06
		c0.23-0.12,0.53-0.6,0.51-0.81c-0.01-0.1-0.32-0.76-0.68-1.46c-0.36-0.7-0.64-1.29-0.6-1.3c0.03-0.02,0.69-0.01,1.46,0.02
		c0.77,0.03,1.49,0.01,1.59-0.05c0.32-0.17,0.49-0.76,0.31-1.1c-0.22-0.42-0.5-0.5-1.99-0.56c-0.72-0.03-1.31-0.07-1.32-0.09
		c-0.01-0.02,0.25-0.46,0.58-0.97c1.03-1.63,1.1-1.88,0.61-2.35c-0.56-0.54-0.96-0.3-1.86,1.15c-0.4,0.64-0.76,1.18-0.8,1.2
		c-0.04,0.02-0.38-0.56-0.75-1.28c-0.77-1.48-0.93-1.63-1.54-1.46C728.22,51.68,728.15,51.76,728.04,52.13z"/>
	<path class="st1" d="M154.29,31.49c0.1-0.18,0.12-0.37,0.07-0.55c-0.07-0.23-0.26-0.37-1.32-0.95l-1.24-0.67l-0.5-1.65
		c-0.27-0.91-0.46-1.65-0.42-1.65c0.08,0.01,3.16,0.73,3.23,0.75c0.02,0.01,0.32,0.47,0.66,1.03c0.76,1.23,0.91,1.42,1.14,1.47
		c0.51,0.1,1.01-0.38,0.87-0.84c-0.04-0.12-0.31-0.62-0.61-1.11c-0.3-0.49-0.54-0.91-0.53-0.92c0.01-0.01,0.37-0.24,0.81-0.51
		c0.44-0.27,0.89-0.56,1.01-0.66c0.48-0.37,0.26-1.17-0.34-1.23c-0.26-0.03-0.42,0.05-1.47,0.68l-1.17,0.71l-1.68-0.4l-1.68-0.4
		l0.8-0.86c0.44-0.47,0.98-1.04,1.2-1.27l0.39-0.41l1.31-0.03c0.72-0.02,1.37-0.05,1.45-0.07c0.26-0.07,0.49-0.54,0.41-0.84
		c-0.12-0.46-0.43-0.57-1.59-0.53c-0.57,0.02-1.07,0.02-1.12,0.01c-0.06-0.01-0.11-0.45-0.12-1.04c-0.01-0.56-0.06-1.12-0.1-1.26
		c-0.15-0.49-0.92-0.64-1.21-0.24c-0.16,0.23-0.18,0.45-0.14,1.71c0.02,0.64,0.03,1.21,0.01,1.27c-0.03,0.1-2.22,2.46-2.31,2.49
		c-0.03,0.01-0.27-0.73-0.55-1.63l-0.49-1.65l0.66-1.24c0.56-1.06,0.65-1.28,0.58-1.52c-0.1-0.34-0.54-0.6-0.86-0.5
		c-0.18,0.05-0.37,0.33-0.83,1.16l-0.6,1.09l-1.1-0.58c-0.84-0.44-1.15-0.56-1.33-0.51c-0.32,0.1-0.55,0.55-0.45,0.89
		c0.07,0.23,0.26,0.37,1.32,0.95l1.24,0.67l0.5,1.66c0.42,1.42,0.48,1.65,0.36,1.65c-0.27-0.02-3.14-0.73-3.21-0.8
		c-0.04-0.04-0.35-0.52-0.69-1.07c-0.65-1.08-0.79-1.26-1.05-1.36c-0.46-0.18-1.02,0.37-0.88,0.86c0.04,0.13,0.31,0.63,0.61,1.1
		c0.3,0.47,0.53,0.88,0.51,0.9c-0.01,0.02-0.43,0.29-0.92,0.6c-1.04,0.64-1.23,0.88-1.09,1.34c0.07,0.25,0.16,0.35,0.39,0.44
		c0.34,0.13,0.37,0.12,1.78-0.75l1-0.62l1.56,0.37c0.86,0.2,1.62,0.38,1.69,0.4c0.09,0.02-0.29,0.48-1.06,1.3L146,27.95l-1.22,0.03
		c-1.28,0.03-1.61,0.09-1.83,0.31c-0.21,0.2-0.19,0.63,0.03,0.9c0.21,0.26,0.38,0.28,1.67,0.24c0.51-0.02,0.94-0.02,0.96-0.02
		c0.02,0.01,0.04,0.48,0.06,1.05c0.01,0.57,0.06,1.14,0.1,1.28c0.15,0.51,0.95,0.59,1.25,0.13c0.09-0.14,0.12-0.6,0.09-1.5
		c-0.02-0.71-0.02-1.35,0.01-1.42c0.04-0.1,2.05-2.29,2.26-2.47c0.03-0.03,0.28,0.69,0.56,1.6l0.5,1.65l-0.66,1.24
		c-0.59,1.11-0.65,1.27-0.57,1.55c0.11,0.37,0.51,0.57,0.91,0.45c0.21-0.06,0.37-0.27,0.83-1.11l0.57-1.03l1.04,0.55
		C153.72,32,154,32.02,154.29,31.49z"/>
	<path class="st1" d="M322.43,38.96c0.1-0.18,0.12-0.37,0.07-0.55c-0.07-0.23-0.26-0.37-1.32-0.95l-1.24-0.67l-0.5-1.65
		c-0.27-0.91-0.46-1.65-0.42-1.65c0.08,0.01,3.16,0.73,3.23,0.75c0.02,0.01,0.32,0.47,0.66,1.03c0.76,1.23,0.91,1.42,1.14,1.47
		c0.51,0.1,1.01-0.38,0.87-0.84c-0.04-0.12-0.31-0.62-0.61-1.11c-0.3-0.49-0.54-0.91-0.53-0.92c0.01-0.01,0.37-0.24,0.81-0.51
		c0.44-0.27,0.89-0.56,1.01-0.66c0.48-0.37,0.26-1.17-0.34-1.23c-0.26-0.03-0.42,0.05-1.47,0.68l-1.17,0.71l-1.68-0.4l-1.68-0.4
		l0.8-0.86c0.44-0.47,0.98-1.04,1.2-1.27l0.39-0.41l1.31-0.03c0.72-0.02,1.37-0.05,1.45-0.07c0.26-0.07,0.49-0.54,0.41-0.84
		c-0.12-0.46-0.43-0.57-1.59-0.53c-0.57,0.02-1.07,0.02-1.12,0.01c-0.06-0.01-0.11-0.45-0.12-1.04c-0.01-0.56-0.06-1.12-0.1-1.26
		c-0.15-0.49-0.92-0.64-1.21-0.24c-0.16,0.23-0.18,0.45-0.14,1.71c0.02,0.64,0.03,1.21,0.01,1.27c-0.03,0.1-2.22,2.46-2.31,2.49
		c-0.03,0.01-0.27-0.73-0.55-1.63l-0.49-1.65l0.66-1.24c0.56-1.06,0.65-1.28,0.58-1.52c-0.1-0.34-0.54-0.6-0.86-0.5
		c-0.18,0.05-0.37,0.33-0.83,1.16l-0.6,1.09l-1.1-0.58c-0.84-0.44-1.15-0.56-1.33-0.51c-0.32,0.1-0.55,0.55-0.45,0.89
		c0.07,0.23,0.26,0.37,1.32,0.95l1.24,0.67l0.5,1.66c0.42,1.42,0.48,1.65,0.36,1.65c-0.27-0.02-3.14-0.73-3.21-0.8
		c-0.04-0.04-0.35-0.52-0.69-1.07c-0.65-1.08-0.79-1.26-1.05-1.36c-0.46-0.18-1.02,0.37-0.88,0.86c0.04,0.13,0.31,0.63,0.61,1.1
		c0.3,0.47,0.53,0.88,0.51,0.9c-0.01,0.02-0.43,0.29-0.92,0.6c-1.04,0.64-1.23,0.88-1.09,1.34c0.07,0.25,0.16,0.35,0.39,0.44
		c0.34,0.13,0.37,0.12,1.78-0.75l1-0.62l1.56,0.37c0.86,0.2,1.62,0.38,1.69,0.4c0.09,0.02-0.29,0.48-1.06,1.3l-1.19,1.27l-1.22,0.03
		c-1.28,0.03-1.61,0.09-1.83,0.31c-0.21,0.2-0.19,0.63,0.03,0.9c0.21,0.26,0.38,0.28,1.67,0.24c0.51-0.02,0.94-0.02,0.96-0.02
		c0.02,0.01,0.04,0.48,0.06,1.05c0.01,0.57,0.06,1.14,0.1,1.28c0.15,0.51,0.95,0.59,1.25,0.13c0.09-0.14,0.12-0.6,0.09-1.5
		c-0.02-0.71-0.02-1.35,0.01-1.42c0.04-0.1,2.05-2.29,2.26-2.47c0.03-0.03,0.28,0.69,0.56,1.6l0.5,1.65l-0.66,1.24
		c-0.59,1.11-0.65,1.27-0.57,1.55c0.11,0.37,0.51,0.57,0.91,0.45c0.21-0.06,0.37-0.27,0.83-1.11l0.57-1.03l1.04,0.55
		C321.86,39.47,322.14,39.48,322.43,38.96z"/>
	<path class="st1" d="M1147.56,50.49c0.12-0.23,0.16-0.48,0.09-0.72c-0.09-0.31-0.34-0.49-1.72-1.24l-1.61-0.88l-0.65-2.16
		c-0.36-1.19-0.6-2.15-0.54-2.15c0.1,0.01,4.13,0.95,4.22,0.98c0.02,0.01,0.41,0.61,0.86,1.34c1,1.61,1.19,1.86,1.49,1.92
		c0.67,0.13,1.31-0.49,1.13-1.1c-0.05-0.16-0.41-0.81-0.8-1.45c-0.39-0.64-0.71-1.18-0.7-1.2c0.01-0.02,0.48-0.32,1.05-0.66
		c0.57-0.35,1.16-0.73,1.32-0.86c0.62-0.48,0.33-1.53-0.44-1.61c-0.34-0.04-0.55,0.06-1.91,0.89l-1.53,0.93l-2.19-0.52l-2.19-0.52
		l1.05-1.12c0.58-0.62,1.28-1.36,1.56-1.66l0.51-0.53l1.7-0.04c0.94-0.02,1.79-0.06,1.9-0.09c0.35-0.09,0.64-0.7,0.53-1.1
		c-0.16-0.61-0.56-0.74-2.07-0.69c-0.74,0.03-1.4,0.03-1.47,0.01c-0.07-0.02-0.14-0.59-0.16-1.36c-0.02-0.73-0.08-1.47-0.13-1.64
		c-0.19-0.64-1.19-0.84-1.57-0.31c-0.21,0.29-0.24,0.59-0.18,2.23c0.03,0.84,0.04,1.58,0.02,1.66c-0.04,0.14-2.89,3.21-3.01,3.25
		c-0.04,0.01-0.36-0.95-0.71-2.13l-0.64-2.15l0.86-1.62c0.74-1.38,0.85-1.67,0.76-1.98c-0.13-0.45-0.7-0.78-1.13-0.65
		c-0.23,0.07-0.49,0.43-1.09,1.51l-0.78,1.42l-1.43-0.75c-1.09-0.57-1.51-0.73-1.74-0.66c-0.42,0.13-0.72,0.72-0.58,1.16
		c0.09,0.31,0.34,0.49,1.72,1.24l1.61,0.88l0.65,2.16c0.55,1.85,0.62,2.16,0.46,2.15c-0.36-0.03-4.09-0.96-4.19-1.04
		c-0.06-0.05-0.46-0.68-0.9-1.4c-0.85-1.4-1.04-1.64-1.38-1.77c-0.61-0.23-1.34,0.49-1.14,1.13c0.05,0.17,0.41,0.82,0.8,1.44
		c0.39,0.62,0.69,1.15,0.67,1.18c-0.02,0.03-0.56,0.38-1.2,0.78c-1.36,0.84-1.6,1.14-1.42,1.75c0.1,0.32,0.21,0.45,0.51,0.57
		c0.45,0.17,0.48,0.16,2.33-0.98l1.31-0.81l2.03,0.48c1.12,0.27,2.11,0.5,2.2,0.52c0.11,0.02-0.38,0.62-1.38,1.69l-1.56,1.65
		l-1.59,0.04c-1.67,0.05-2.1,0.12-2.39,0.4c-0.27,0.27-0.25,0.82,0.04,1.17c0.28,0.34,0.5,0.37,2.18,0.31
		c0.67-0.02,1.23-0.03,1.25-0.02c0.02,0.01,0.06,0.63,0.07,1.37c0.02,0.74,0.08,1.49,0.13,1.67c0.2,0.66,1.23,0.77,1.63,0.17
		c0.12-0.18,0.16-0.78,0.12-1.96c-0.03-0.93-0.02-1.77,0.01-1.86c0.05-0.14,2.67-2.99,2.95-3.22c0.04-0.04,0.37,0.91,0.73,2.09
		l0.65,2.16l-0.86,1.62c-0.78,1.45-0.85,1.66-0.74,2.02c0.14,0.48,0.67,0.74,1.19,0.59c0.27-0.08,0.48-0.35,1.08-1.44l0.75-1.34
		l1.36,0.71C1146.82,51.15,1147.19,51.17,1147.56,50.49z"/>
	<path class="st1" d="M1255.14,50.49c0.12-0.23,0.16-0.48,0.09-0.72c-0.09-0.31-0.34-0.49-1.72-1.24l-1.61-0.88l-0.65-2.16
		c-0.36-1.19-0.6-2.15-0.54-2.15c0.1,0.01,4.13,0.95,4.22,0.98c0.02,0.01,0.41,0.61,0.86,1.34c1,1.61,1.19,1.86,1.49,1.92
		c0.67,0.13,1.31-0.49,1.13-1.1c-0.05-0.16-0.41-0.81-0.8-1.45c-0.39-0.64-0.71-1.18-0.7-1.2c0.01-0.02,0.48-0.32,1.05-0.66
		c0.57-0.35,1.16-0.73,1.32-0.86c0.62-0.48,0.33-1.53-0.44-1.61c-0.34-0.04-0.55,0.06-1.91,0.89l-1.53,0.93l-2.19-0.52l-2.19-0.52
		l1.05-1.12c0.58-0.62,1.28-1.36,1.56-1.66l0.51-0.53l1.7-0.04c0.94-0.02,1.79-0.06,1.9-0.09c0.35-0.09,0.64-0.7,0.53-1.1
		c-0.16-0.61-0.56-0.74-2.07-0.69c-0.74,0.03-1.4,0.03-1.47,0.01c-0.07-0.02-0.14-0.59-0.16-1.36c-0.02-0.73-0.08-1.47-0.13-1.64
		c-0.19-0.64-1.19-0.84-1.57-0.31c-0.21,0.29-0.24,0.59-0.18,2.23c0.03,0.84,0.04,1.58,0.02,1.66c-0.04,0.14-2.89,3.21-3.01,3.25
		c-0.04,0.01-0.36-0.95-0.71-2.13l-0.64-2.15l0.86-1.62c0.74-1.38,0.85-1.67,0.76-1.98c-0.13-0.45-0.7-0.78-1.13-0.65
		c-0.23,0.07-0.49,0.43-1.09,1.51l-0.78,1.42l-1.43-0.75c-1.09-0.57-1.51-0.73-1.74-0.66c-0.42,0.13-0.72,0.72-0.58,1.16
		c0.09,0.31,0.34,0.49,1.72,1.24l1.61,0.88l0.65,2.16c0.55,1.85,0.62,2.16,0.46,2.15c-0.36-0.03-4.09-0.96-4.19-1.04
		c-0.06-0.05-0.46-0.68-0.9-1.4c-0.85-1.4-1.04-1.64-1.38-1.77c-0.61-0.23-1.34,0.49-1.14,1.13c0.05,0.17,0.41,0.82,0.8,1.44
		c0.39,0.62,0.69,1.15,0.67,1.18c-0.02,0.03-0.56,0.38-1.2,0.78c-1.36,0.84-1.6,1.14-1.42,1.75c0.1,0.32,0.21,0.45,0.51,0.57
		c0.45,0.17,0.48,0.16,2.33-0.98l1.31-0.81l2.03,0.48c1.12,0.27,2.11,0.5,2.2,0.52c0.11,0.02-0.38,0.62-1.39,1.69l-1.56,1.65
		l-1.59,0.04c-1.67,0.05-2.1,0.12-2.39,0.4c-0.27,0.27-0.25,0.82,0.04,1.17c0.28,0.34,0.5,0.37,2.18,0.31
		c0.67-0.02,1.23-0.03,1.25-0.02c0.02,0.01,0.06,0.63,0.07,1.37c0.02,0.74,0.08,1.49,0.13,1.67c0.2,0.66,1.23,0.77,1.63,0.17
		c0.12-0.18,0.16-0.78,0.12-1.96c-0.03-0.93-0.02-1.77,0.01-1.86c0.05-0.14,2.67-2.99,2.95-3.22c0.04-0.04,0.37,0.91,0.73,2.09
		l0.65,2.16l-0.86,1.62c-0.78,1.45-0.85,1.66-0.74,2.02c0.14,0.48,0.67,0.74,1.19,0.59c0.27-0.08,0.48-0.35,1.08-1.44l0.75-1.34
		l1.36,0.71C1254.4,51.15,1254.77,51.17,1255.14,50.49z"/>
	<path class="st1" d="M1560.27,63.72l0.21-0.4l-0.42-1.39c-0.23-0.77-0.4-1.4-0.37-1.41c0.03-0.01,0.65,0.13,1.38,0.31
		c0.74,0.18,1.45,0.29,1.6,0.25c0.6-0.18,0.73-1.18,0.19-1.48c-0.13-0.07-0.83-0.27-1.55-0.44c-1.16-0.28-1.3-0.33-1.17-0.49
		c0.08-0.1,0.52-0.58,0.99-1.08c0.47-0.49,0.86-1,0.89-1.11c0.11-0.59-0.48-1.19-1.03-1.03c-0.15,0.04-0.68,0.53-1.2,1.08
		c-0.51,0.55-0.95,1.01-0.98,1.02c-0.03,0.01-0.24-0.61-0.47-1.38l-0.42-1.39l-0.38-0.21c-0.21-0.12-0.45-0.19-0.54-0.16
		c-0.25,0.07-0.63,0.49-0.65,0.7c-0.01,0.1,0.17,0.8,0.4,1.56s0.38,1.38,0.35,1.39c-0.03,0.01-0.68-0.12-1.43-0.3
		c-0.75-0.17-1.46-0.29-1.57-0.25c-0.34,0.1-0.62,0.66-0.51,1.03c0.13,0.45,0.4,0.58,1.85,0.93c0.7,0.17,1.27,0.32,1.28,0.33
		c0.01,0.02-0.33,0.4-0.75,0.85c-1.32,1.41-1.43,1.64-1.04,2.2c0.45,0.64,0.88,0.47,2.05-0.78c0.51-0.55,0.97-1.02,1.01-1.03
		c0.04-0.01,0.27,0.62,0.5,1.4c0.48,1.59,0.61,1.78,1.24,1.72C1560.01,64.13,1560.1,64.06,1560.27,63.72z"/>
	<circle class="st2" cx="1534.44" cy="30.84" r="2.03"/>
	<path class="st1" d="M1584.38,34.81c0.12-0.23,0.16-0.48,0.09-0.72c-0.09-0.31-0.34-0.49-1.72-1.24l-1.61-0.88l-0.65-2.16
		c-0.36-1.19-0.6-2.15-0.54-2.15c0.1,0.01,4.13,0.95,4.22,0.98c0.02,0.01,0.41,0.61,0.86,1.34c1,1.61,1.19,1.86,1.49,1.92
		c0.67,0.13,1.31-0.49,1.13-1.1c-0.05-0.16-0.41-0.81-0.8-1.45c-0.39-0.64-0.71-1.18-0.7-1.2c0.01-0.02,0.48-0.32,1.05-0.66
		c0.57-0.35,1.16-0.73,1.32-0.86c0.62-0.48,0.33-1.53-0.44-1.61c-0.34-0.04-0.55,0.06-1.91,0.89l-1.53,0.93l-2.19-0.52l-2.19-0.52
		l1.05-1.12c0.58-0.62,1.28-1.36,1.56-1.66l0.51-0.53l1.7-0.04c0.94-0.02,1.79-0.06,1.9-0.09c0.35-0.09,0.64-0.7,0.53-1.1
		c-0.16-0.61-0.56-0.74-2.07-0.69c-0.74,0.03-1.4,0.03-1.47,0.01c-0.07-0.02-0.14-0.59-0.16-1.36c-0.02-0.73-0.08-1.47-0.13-1.64
		c-0.19-0.64-1.19-0.84-1.57-0.31c-0.21,0.29-0.24,0.59-0.18,2.23c0.03,0.84,0.04,1.58,0.02,1.66c-0.04,0.14-2.89,3.21-3.01,3.25
		c-0.04,0.01-0.36-0.95-0.71-2.13l-0.64-2.15l0.86-1.62c0.74-1.38,0.85-1.67,0.76-1.98c-0.13-0.45-0.7-0.78-1.13-0.65
		c-0.23,0.07-0.49,0.43-1.09,1.51l-0.78,1.42l-1.43-0.75c-1.09-0.57-1.51-0.73-1.74-0.66c-0.42,0.13-0.72,0.72-0.58,1.16
		c0.09,0.31,0.34,0.49,1.72,1.24l1.61,0.88l0.65,2.16c0.55,1.85,0.62,2.16,0.46,2.15c-0.36-0.03-4.09-0.96-4.19-1.04
		c-0.06-0.05-0.46-0.68-0.9-1.4c-0.85-1.4-1.04-1.64-1.38-1.77c-0.61-0.23-1.34,0.49-1.14,1.13c0.05,0.17,0.41,0.82,0.8,1.44
		c0.39,0.62,0.69,1.15,0.67,1.18c-0.02,0.03-0.56,0.38-1.2,0.78c-1.36,0.84-1.6,1.14-1.42,1.75c0.1,0.32,0.21,0.45,0.51,0.57
		c0.45,0.17,0.48,0.16,2.33-0.98l1.31-0.81l2.03,0.48c1.12,0.27,2.11,0.5,2.2,0.52c0.11,0.02-0.38,0.62-1.38,1.69l-1.56,1.65
		l-1.59,0.04c-1.67,0.05-2.1,0.12-2.39,0.4c-0.27,0.27-0.25,0.82,0.04,1.17c0.28,0.34,0.5,0.37,2.18,0.31
		c0.67-0.02,1.23-0.03,1.25-0.02c0.02,0.01,0.06,0.63,0.07,1.37c0.02,0.74,0.08,1.49,0.13,1.67c0.2,0.66,1.23,0.77,1.63,0.17
		c0.12-0.18,0.16-0.78,0.12-1.96c-0.03-0.93-0.02-1.77,0.01-1.86c0.05-0.14,2.67-2.99,2.95-3.22c0.04-0.04,0.37,0.91,0.73,2.09
		l0.65,2.16l-0.86,1.62c-0.78,1.45-0.85,1.66-0.74,2.02c0.14,0.48,0.67,0.74,1.19,0.59c0.27-0.08,0.48-0.35,1.08-1.44l0.75-1.34
		l1.36,0.71C1583.64,35.47,1584.01,35.49,1584.38,34.81z"/>
	<path class="st1" d="M1619.56,62.01l0.22-0.41l-0.42-1.42c-0.23-0.78-0.4-1.42-0.38-1.43s0.66,0.13,1.41,0.31
		c0.76,0.18,1.49,0.29,1.64,0.25c0.62-0.19,0.75-1.21,0.2-1.51c-0.13-0.07-0.85-0.27-1.59-0.45c-1.19-0.28-1.33-0.34-1.2-0.5
		c0.08-0.1,0.54-0.6,1.02-1.1c0.48-0.51,0.89-1.02,0.91-1.14c0.12-0.6-0.49-1.21-1.05-1.04c-0.15,0.05-0.7,0.54-1.23,1.11
		c-0.53,0.56-0.98,1.03-1.01,1.04c-0.03,0.01-0.25-0.62-0.48-1.4l-0.42-1.42l-0.39-0.22c-0.21-0.12-0.47-0.19-0.56-0.17
		c-0.25,0.08-0.65,0.5-0.67,0.72c-0.01,0.1,0.18,0.82,0.41,1.59c0.23,0.77,0.39,1.41,0.35,1.42c-0.04,0.01-0.7-0.12-1.47-0.3
		c-0.77-0.17-1.5-0.29-1.62-0.25c-0.35,0.11-0.64,0.67-0.53,1.05c0.14,0.46,0.41,0.59,1.9,0.94c0.72,0.17,1.31,0.32,1.31,0.34
		c0.01,0.02-0.34,0.41-0.77,0.87c-1.36,1.44-1.47,1.68-1.07,2.24c0.46,0.65,0.91,0.48,2.1-0.8c0.53-0.56,1-1.04,1.04-1.05
		c0.04-0.01,0.27,0.63,0.51,1.42c0.49,1.62,0.62,1.81,1.27,1.75C1619.29,62.42,1619.38,62.35,1619.56,62.01z"/>
	<circle class="st2" cx="1511.2" cy="59.29" r="2.03"/>
	<path class="st1" d="M1633.03,11.54l-0.13,0.43l0.67,1.29c0.37,0.71,0.65,1.3,0.63,1.31c-0.02,0.01-0.66-0.01-1.41-0.05
		c-0.76-0.04-1.48-0.01-1.62,0.06c-0.56,0.29-0.49,1.3,0.09,1.49c0.14,0.05,0.86,0.11,1.6,0.15c1.19,0.05,1.34,0.08,1.25,0.26
		c-0.06,0.11-0.4,0.67-0.77,1.24c-0.37,0.57-0.66,1.14-0.66,1.26c0,0.6,0.7,1.08,1.2,0.82c0.14-0.07,0.57-0.65,0.97-1.29
		c0.4-0.64,0.75-1.17,0.77-1.19c0.03-0.01,0.35,0.55,0.72,1.26l0.67,1.29l0.41,0.14c0.23,0.08,0.48,0.1,0.56,0.06
		c0.23-0.12,0.53-0.6,0.51-0.81c-0.01-0.1-0.32-0.76-0.68-1.46c-0.36-0.7-0.64-1.29-0.6-1.3c0.03-0.02,0.69-0.01,1.46,0.02
		c0.77,0.03,1.49,0.01,1.59-0.05c0.32-0.17,0.49-0.76,0.31-1.1c-0.22-0.42-0.5-0.5-1.99-0.56c-0.72-0.03-1.31-0.07-1.32-0.09
		s0.25-0.46,0.58-0.97c1.03-1.63,1.1-1.88,0.61-2.35c-0.56-0.54-0.96-0.3-1.86,1.15c-0.4,0.64-0.76,1.18-0.8,1.2
		c-0.04,0.02-0.38-0.56-0.75-1.28c-0.77-1.48-0.93-1.63-1.54-1.46C1633.21,11.09,1633.14,11.18,1633.03,11.54z"/>
	<path class="st1" d="M1704.21,23.16c0.63,0.06,0.77-0.13,1.24-1.72c0.23-0.78,0.46-1.41,0.5-1.4c0.04,0.01,0.49,0.47,1.01,1.03
		c1.16,1.25,1.59,1.42,2.05,0.78c0.39-0.55,0.28-0.79-1.04-2.2c-0.42-0.45-0.76-0.83-0.75-0.85c0.01-0.02,0.58-0.17,1.28-0.33
		c1.45-0.34,1.71-0.48,1.85-0.93c0.11-0.37-0.17-0.92-0.51-1.03c-0.11-0.03-0.82,0.08-1.57,0.25c-0.75,0.17-1.4,0.31-1.43,0.3
		c-0.04-0.01,0.12-0.64,0.35-1.39c0.23-0.76,0.41-1.46,0.4-1.56c-0.01-0.21-0.4-0.63-0.65-0.7c-0.09-0.03-0.33,0.05-0.54,0.16
		l-0.38,0.21l-0.42,1.39c-0.23,0.76-0.44,1.38-0.47,1.38c-0.03-0.01-0.47-0.47-0.98-1.02c-0.51-0.55-1.05-1.04-1.2-1.08
		c-0.54-0.16-1.14,0.43-1.03,1.03c0.02,0.12,0.42,0.62,0.89,1.11c0.47,0.49,0.91,0.98,0.99,1.08c0.13,0.16-0.01,0.22-1.17,0.49
		c-0.72,0.17-1.42,0.37-1.55,0.44c-0.54,0.3-0.41,1.3,0.19,1.48c0.15,0.04,0.86-0.06,1.6-0.25c0.73-0.18,1.35-0.32,1.38-0.31
		c0.03,0.01-0.14,0.64-0.37,1.41l-0.42,1.39l0.21,0.4C1703.83,23.06,1703.92,23.14,1704.21,23.16z"/>
	<path class="st1" d="M1901.65,41.19c0.13-0.24,0.16-0.49,0.09-0.73c-0.09-0.31-0.35-0.5-1.75-1.26l-1.64-0.9l-0.66-2.2
		c-0.36-1.21-0.61-2.2-0.56-2.19c0.1,0.01,4.21,0.97,4.3,1c0.03,0.01,0.42,0.62,0.88,1.37c1.02,1.64,1.21,1.89,1.52,1.96
		c0.68,0.14,1.34-0.5,1.16-1.12c-0.05-0.16-0.42-0.83-0.82-1.48c-0.4-0.66-0.72-1.21-0.71-1.22c0.01-0.02,0.49-0.32,1.08-0.68
		c0.58-0.36,1.19-0.75,1.35-0.87c0.63-0.49,0.34-1.56-0.45-1.64c-0.35-0.04-0.57,0.06-1.95,0.91l-1.56,0.95l-2.24-0.53l-2.24-0.53
		l1.07-1.15c0.59-0.63,1.3-1.39,1.59-1.69l0.53-0.54l1.74-0.04c0.96-0.02,1.83-0.07,1.93-0.09c0.35-0.1,0.65-0.72,0.54-1.12
		c-0.17-0.62-0.58-0.75-2.12-0.7c-0.75,0.03-1.43,0.03-1.5,0.01c-0.07-0.02-0.14-0.6-0.16-1.39c-0.02-0.74-0.08-1.5-0.13-1.67
		c-0.19-0.65-1.22-0.85-1.61-0.32c-0.22,0.3-0.24,0.6-0.18,2.28c0.03,0.86,0.04,1.62,0.02,1.69c-0.04,0.14-2.95,3.28-3.07,3.31
		c-0.04,0.01-0.37-0.97-0.73-2.17l-0.66-2.19l0.88-1.65c0.75-1.41,0.86-1.71,0.77-2.02c-0.14-0.46-0.72-0.79-1.15-0.67
		c-0.24,0.07-0.5,0.43-1.11,1.54l-0.8,1.45l-1.46-0.77c-1.12-0.59-1.54-0.75-1.77-0.67c-0.43,0.13-0.73,0.73-0.59,1.19
		c0.09,0.31,0.35,0.5,1.75,1.26l1.64,0.9l0.66,2.21c0.57,1.89,0.63,2.2,0.47,2.19c-0.36-0.03-4.18-0.98-4.28-1.07
		c-0.06-0.05-0.47-0.69-0.91-1.42c-0.87-1.43-1.06-1.67-1.4-1.8c-0.62-0.23-1.36,0.5-1.17,1.15c0.05,0.18,0.42,0.84,0.81,1.47
		c0.39,0.63,0.7,1.17,0.69,1.2c-0.02,0.03-0.57,0.39-1.23,0.8c-1.38,0.86-1.63,1.17-1.45,1.79c0.1,0.33,0.22,0.46,0.52,0.58
		c0.46,0.18,0.49,0.16,2.37-1l1.33-0.82l2.07,0.49c1.14,0.27,2.15,0.51,2.25,0.53c0.11,0.03-0.39,0.64-1.41,1.73l-1.59,1.69
		l-1.63,0.04c-1.7,0.05-2.15,0.12-2.44,0.41c-0.27,0.27-0.26,0.84,0.04,1.19c0.28,0.34,0.51,0.38,2.22,0.32
		c0.68-0.02,1.26-0.03,1.28-0.02c0.02,0.01,0.06,0.64,0.07,1.4c0.02,0.76,0.08,1.52,0.13,1.7c0.2,0.68,1.26,0.79,1.66,0.18
		c0.12-0.19,0.16-0.8,0.12-2c-0.03-0.95-0.03-1.8,0.01-1.9c0.05-0.14,2.73-3.05,3.01-3.28c0.04-0.04,0.38,0.93,0.74,2.14l0.66,2.2
		l-0.88,1.65c-0.79,1.48-0.87,1.69-0.76,2.06c0.15,0.49,0.68,0.76,1.21,0.6c0.28-0.08,0.49-0.36,1.1-1.47l0.76-1.37l1.39,0.73
		C1900.9,41.86,1901.27,41.88,1901.65,41.19z"/>
	<circle class="st2" cx="1799.02" cy="11.67" r="2.03"/>
	<circle class="st2" cx="1839.63" cy="28.16" r="2.03"/>
	<circle class="st2" cx="1720.38" cy="30.7" r="2.03"/>
	<circle class="st2" cx="1736.64" cy="65.26" r="2.03"/>
	<circle class="st2" cx="1665.42" cy="67.29" r="2.03"/>
	<circle class="st2" cx="1825.82" cy="59.02" r="3.77"/>
	<path class="st1" d="M1900.43,58.24l-0.13,0.43l0.67,1.29c0.37,0.71,0.65,1.3,0.63,1.31c-0.02,0.01-0.66-0.01-1.41-0.05
		c-0.76-0.04-1.48-0.01-1.62,0.06c-0.56,0.29-0.49,1.3,0.09,1.49c0.14,0.05,0.86,0.11,1.6,0.15c1.19,0.05,1.34,0.08,1.25,0.26
		c-0.06,0.11-0.4,0.67-0.77,1.24c-0.37,0.57-0.66,1.14-0.66,1.26c0,0.6,0.7,1.08,1.2,0.82c0.14-0.07,0.57-0.65,0.97-1.29
		c0.4-0.64,0.75-1.17,0.77-1.19c0.03-0.01,0.35,0.55,0.72,1.26l0.67,1.29l0.41,0.14c0.23,0.08,0.48,0.1,0.56,0.06
		c0.23-0.12,0.53-0.6,0.51-0.81c-0.01-0.1-0.32-0.76-0.68-1.46c-0.36-0.7-0.64-1.29-0.6-1.3c0.03-0.02,0.69-0.01,1.46,0.02
		c0.77,0.03,1.49,0.01,1.59-0.05c0.32-0.17,0.49-0.76,0.31-1.1c-0.22-0.42-0.5-0.5-1.99-0.56c-0.72-0.03-1.31-0.07-1.32-0.09
		c-0.01-0.02,0.25-0.46,0.58-0.97c1.03-1.63,1.1-1.88,0.61-2.35c-0.56-0.54-0.96-0.3-1.86,1.15c-0.4,0.64-0.76,1.18-0.8,1.2
		c-0.04,0.02-0.38-0.56-0.75-1.28c-0.77-1.48-0.93-1.63-1.54-1.46C1900.61,57.79,1900.54,57.88,1900.43,58.24z"/>
	<circle class="st2" cx="1869.3" cy="15.18" r="2.03"/>
	<path class="st1" d="M1674.95,49.44c0.12-0.23,0.16-0.48,0.09-0.72c-0.09-0.31-0.34-0.49-1.72-1.24l-1.61-0.88l-0.65-2.16
		c-0.36-1.19-0.6-2.15-0.54-2.15c0.1,0.01,4.13,0.95,4.22,0.98c0.02,0.01,0.41,0.61,0.86,1.34c1,1.61,1.19,1.86,1.49,1.92
		c0.67,0.13,1.31-0.49,1.13-1.1c-0.05-0.16-0.41-0.81-0.8-1.45c-0.39-0.64-0.71-1.18-0.7-1.2c0.01-0.02,0.48-0.32,1.05-0.66
		c0.57-0.35,1.16-0.73,1.32-0.86c0.62-0.48,0.33-1.53-0.44-1.61c-0.34-0.04-0.55,0.06-1.91,0.89l-1.53,0.93l-2.19-0.52l-2.19-0.52
		l1.05-1.12c0.58-0.62,1.28-1.36,1.56-1.66l0.51-0.53l1.7-0.04c0.94-0.02,1.79-0.06,1.9-0.09c0.35-0.09,0.64-0.7,0.53-1.1
		c-0.16-0.61-0.56-0.74-2.07-0.69c-0.74,0.03-1.4,0.03-1.47,0.01c-0.07-0.02-0.14-0.59-0.16-1.36c-0.02-0.73-0.08-1.47-0.13-1.64
		c-0.19-0.64-1.19-0.84-1.57-0.31c-0.21,0.29-0.24,0.59-0.18,2.23c0.03,0.84,0.04,1.58,0.02,1.66c-0.04,0.14-2.89,3.21-3.01,3.25
		c-0.04,0.01-0.36-0.95-0.71-2.13l-0.64-2.15l0.86-1.62c0.74-1.38,0.85-1.67,0.76-1.98c-0.13-0.45-0.7-0.78-1.13-0.65
		c-0.23,0.07-0.49,0.43-1.09,1.51l-0.78,1.42l-1.43-0.75c-1.09-0.57-1.51-0.73-1.74-0.66c-0.42,0.13-0.72,0.72-0.58,1.16
		c0.09,0.31,0.34,0.49,1.72,1.24l1.61,0.88l0.65,2.16c0.55,1.85,0.62,2.16,0.46,2.15c-0.36-0.03-4.09-0.96-4.19-1.04
		c-0.06-0.05-0.46-0.68-0.9-1.4c-0.85-1.4-1.04-1.64-1.38-1.77c-0.61-0.23-1.34,0.49-1.14,1.13c0.05,0.17,0.41,0.82,0.8,1.44
		c0.39,0.62,0.69,1.15,0.67,1.18c-0.02,0.03-0.56,0.38-1.2,0.78c-1.36,0.84-1.6,1.14-1.42,1.75c0.1,0.32,0.21,0.45,0.51,0.57
		c0.45,0.17,0.48,0.16,2.33-0.98l1.31-0.81l2.03,0.48c1.12,0.27,2.11,0.5,2.2,0.52c0.11,0.02-0.38,0.62-1.39,1.69l-1.56,1.65
		l-1.59,0.04c-1.67,0.05-2.1,0.12-2.39,0.4c-0.27,0.27-0.25,0.82,0.04,1.17c0.28,0.34,0.5,0.37,2.18,0.31
		c0.67-0.02,1.23-0.03,1.25-0.02c0.02,0.01,0.06,0.63,0.07,1.37c0.02,0.74,0.08,1.49,0.13,1.67c0.2,0.66,1.23,0.77,1.63,0.17
		c0.12-0.18,0.16-0.78,0.12-1.96c-0.03-0.93-0.02-1.77,0.01-1.86c0.05-0.14,2.67-2.99,2.95-3.22c0.04-0.04,0.37,0.91,0.73,2.09
		l0.65,2.16l-0.86,1.62c-0.78,1.45-0.85,1.66-0.74,2.02c0.14,0.48,0.67,0.74,1.19,0.59c0.27-0.08,0.48-0.35,1.08-1.44l0.75-1.34
		l1.36,0.71C1674.21,50.1,1674.58,50.13,1674.95,49.44z"/>
	<path class="st1" d="M1782.53,49.44c0.12-0.23,0.16-0.48,0.09-0.72c-0.09-0.31-0.34-0.49-1.72-1.24l-1.61-0.88l-0.65-2.16
		c-0.36-1.19-0.6-2.15-0.54-2.15c0.1,0.01,4.13,0.95,4.22,0.98c0.02,0.01,0.41,0.61,0.86,1.34c1,1.61,1.19,1.86,1.49,1.92
		c0.67,0.13,1.31-0.49,1.13-1.1c-0.05-0.16-0.41-0.81-0.8-1.45c-0.39-0.64-0.71-1.18-0.7-1.2c0.01-0.02,0.48-0.32,1.05-0.66
		c0.57-0.35,1.16-0.73,1.32-0.86c0.62-0.48,0.33-1.53-0.44-1.61c-0.34-0.04-0.55,0.06-1.91,0.89l-1.53,0.93l-2.19-0.52l-2.19-0.52
		l1.05-1.12c0.58-0.62,1.28-1.36,1.56-1.66l0.51-0.53l1.7-0.04c0.94-0.02,1.79-0.06,1.9-0.09c0.35-0.09,0.64-0.7,0.53-1.1
		c-0.16-0.61-0.56-0.74-2.07-0.69c-0.74,0.03-1.4,0.03-1.47,0.01c-0.07-0.02-0.14-0.59-0.16-1.36c-0.02-0.73-0.08-1.47-0.13-1.64
		c-0.19-0.64-1.19-0.84-1.57-0.31c-0.21,0.29-0.24,0.59-0.18,2.23c0.03,0.84,0.04,1.58,0.02,1.66c-0.04,0.14-2.89,3.21-3.01,3.25
		c-0.04,0.01-0.36-0.95-0.71-2.13l-0.64-2.15l0.86-1.62c0.74-1.38,0.85-1.67,0.76-1.98c-0.13-0.45-0.7-0.78-1.13-0.65
		c-0.23,0.07-0.49,0.43-1.09,1.51l-0.78,1.42l-1.43-0.75c-1.09-0.57-1.51-0.73-1.74-0.66c-0.42,0.13-0.72,0.72-0.58,1.16
		c0.09,0.31,0.34,0.49,1.72,1.24l1.61,0.88l0.65,2.16c0.55,1.85,0.62,2.16,0.46,2.15c-0.36-0.03-4.09-0.96-4.19-1.04
		c-0.06-0.05-0.46-0.68-0.9-1.4c-0.85-1.4-1.04-1.64-1.38-1.77c-0.61-0.23-1.34,0.49-1.14,1.13c0.05,0.17,0.41,0.82,0.8,1.44
		c0.39,0.62,0.69,1.15,0.67,1.18c-0.02,0.03-0.56,0.38-1.2,0.78c-1.36,0.84-1.6,1.14-1.42,1.75c0.1,0.32,0.21,0.45,0.51,0.57
		c0.45,0.17,0.48,0.16,2.33-0.98l1.31-0.81l2.03,0.48c1.12,0.27,2.11,0.5,2.2,0.52c0.11,0.02-0.38,0.62-1.39,1.69l-1.56,1.65
		l-1.59,0.04c-1.67,0.05-2.1,0.12-2.39,0.4c-0.27,0.27-0.25,0.82,0.04,1.17c0.28,0.34,0.5,0.37,2.18,0.31
		c0.67-0.02,1.23-0.03,1.25-0.02c0.02,0.01,0.06,0.63,0.07,1.37c0.02,0.74,0.08,1.49,0.13,1.67c0.2,0.66,1.23,0.77,1.63,0.17
		c0.12-0.18,0.16-0.78,0.12-1.96c-0.03-0.93-0.02-1.77,0.01-1.86c0.05-0.14,2.67-2.99,2.95-3.22c0.04-0.04,0.37,0.91,0.73,2.09
		l0.65,2.16l-0.86,1.62c-0.78,1.45-0.85,1.66-0.74,2.02c0.14,0.48,0.67,0.74,1.19,0.59c0.27-0.08,0.48-0.35,1.08-1.44l0.75-1.34
		l1.36,0.71C1781.79,50.1,1782.16,50.13,1782.53,49.44z"/>
	<circle class="st2" cx="1877.3" cy="54.71" r="2.03"/>
</g>
</svg>
