<?xml version="1.0" encoding="utf-8"?>
<!-- Generator: Adobe Illustrator 25.4.1, SVG Export Plug-In . SVG Version: 6.00 Build 0)  -->
<svg version="1.1" id="Слой_1" xmlns="http://www.w3.org/2000/svg" xmlns:xlink="http://www.w3.org/1999/xlink" x="0px" y="0px"
	 viewBox="0 0 375 667" style="enable-background:new 0 0 375 667;" xml:space="preserve">
<style type="text/css">
	.st0{fill-rule:evenodd;clip-rule:evenodd;fill:#B4B4C1;}
	.st1{fill:#B4B4C1;}
	.st2{clip-path:url(#SVGID_00000090258363153789386050000006215299315974760102_);}
	.st3{fill:#E3E4E8;}
	.st4{fill:#EC8359;}
	.st5{opacity:0.5;}
	.st6{opacity:0.5;enable-background:new    ;}
	.st7{fill:#FBD6C4;}
	.st8{fill:#019B79;}
	.st9{fill:#6E392C;}
	.st10{fill:#864637;}
	.st11{fill:#66402B;}
	.st12{fill:#FFFFFF;}
	.st13{fill:#B15C48;}
	.st14{fill:#E53821;}
	.st15{fill:#F29A93;}
	.st16{fill:#E63628;}
	.st17{fill:#EA564A;}
	.st18{fill:#FFFAEF;}
	.st19{clip-path:url(#SVGID_00000169522107250717778020000010393210154651794852_);fill:#E30613;}
	.st20{fill-rule:evenodd;clip-rule:evenodd;fill:#FDFDFB;}
	.st21{fill:#FDFDFB;}
	.st22{fill:#F6B290;}
	.st23{fill:#F08450;}
	.st24{fill:#F08870;}
	.st25{fill:#FBEDCB;}
	.st26{fill:#96221F;}
	.st27{fill:#F4A279;}
	.st28{fill:#C6622B;}
	.st29{opacity:0.5;fill:#FFFFFF;enable-background:new    ;}
	.st30{fill:#DB8879;}
	.st31{fill:#C7562D;}
	.st32{fill:#F6D7CC;}
</style>
<path class="st0" d="M131.96,546.41l-1.05,1.07v4.77c0,2.62-0.07,4.77-0.17,4.77c-0.09,0-1.93-1.03-4.08-2.28
	c-2.17-1.27-4.33-2.28-4.85-2.28c-2.08,0-3.44,3.04-2.01,4.49c0.34,0.35,2.37,1.63,4.5,2.85c3.43,1.96,3.81,2.27,3.26,2.65
	c-0.34,0.24-2.22,1.34-4.17,2.46c-1.95,1.12-3.7,2.32-3.88,2.67c-0.92,1.75,0.41,4.2,2.29,4.2c0.51,0,2.68-1.02,4.83-2.28
	c2.15-1.26,3.99-2.28,4.09-2.28c0.1,0,0.18,2.15,0.18,4.77v4.77l1.01,1.03c0.55,0.56,1.26,1.03,1.57,1.03c0.85,0,2.48-0.96,2.73-1.6
	c0.12-0.31,0.21-2.69,0.21-5.28c0-2.59,0.1-4.71,0.22-4.71c0.12,0,2.04,1.03,4.26,2.28c2.22,1.26,4.37,2.28,4.76,2.28
	c1.19,0,2.6-1.49,2.6-2.75c0-1.54-0.71-2.21-4.99-4.66c-2.06-1.18-3.74-2.2-3.74-2.26c0-0.06,1.43-0.95,3.19-1.96
	c5.54-3.2,6.1-3.82,5.38-5.93c-0.83-2.43-2.36-2.32-7.24,0.52c-2.16,1.25-4.04,2.28-4.18,2.28c-0.14,0-0.26-2.19-0.26-4.88
	c0-5.46-0.25-6.17-2.31-6.58C133.19,545.37,132.84,545.51,131.96,546.41z"/>
<path class="st0" d="M179.4,591.15l-0.39,0.4v1.79c0,0.98-0.03,1.79-0.06,1.79c-0.03,0-0.72-0.39-1.52-0.86
	c-0.81-0.48-1.61-0.86-1.8-0.86c-0.77,0-1.28,1.14-0.75,1.68c0.13,0.13,0.88,0.61,1.67,1.07c1.27,0.74,1.42,0.85,1.21,0.99
	c-0.13,0.09-0.82,0.5-1.55,0.92c-0.72,0.42-1.37,0.87-1.44,1c-0.34,0.66,0.15,1.57,0.85,1.57c0.19,0,1-0.38,1.79-0.86
	c0.8-0.47,1.48-0.86,1.52-0.86c0.04,0,0.07,0.81,0.07,1.79v1.79l0.37,0.39c0.21,0.21,0.47,0.38,0.58,0.38c0.32,0,0.92-0.36,1.01-0.6
	c0.04-0.12,0.08-1.01,0.08-1.98c0-0.97,0.04-1.77,0.08-1.77c0.04,0,0.76,0.39,1.58,0.86c0.83,0.47,1.62,0.86,1.77,0.86
	c0.44,0,0.96-0.56,0.96-1.03c0-0.58-0.26-0.83-1.85-1.75c-0.76-0.44-1.39-0.82-1.39-0.85c0-0.02,0.53-0.35,1.18-0.74
	c2.06-1.2,2.27-1.43,2-2.23c-0.31-0.91-0.88-0.87-2.69,0.19c-0.8,0.47-1.5,0.86-1.55,0.86c-0.05,0-0.1-0.82-0.1-1.83
	c0-2.05-0.09-2.32-0.86-2.47C179.86,590.77,179.73,590.82,179.4,591.15z"/>
<circle class="st1" cx="222.28" cy="624.12" r="2.5"/>
<circle class="st1" cx="162.98" cy="631.61" r="2.5"/>
<path class="st0" d="M290.37,540.44l-0.39,0.4v1.79c0,0.98-0.03,1.79-0.06,1.79c-0.03,0-0.72-0.39-1.52-0.86
	c-0.81-0.48-1.61-0.86-1.8-0.86c-0.77,0-1.28,1.14-0.75,1.68c0.13,0.13,0.88,0.61,1.67,1.07c1.27,0.74,1.42,0.85,1.21,0.99
	c-0.13,0.09-0.82,0.5-1.55,0.92c-0.72,0.42-1.37,0.87-1.44,1c-0.34,0.66,0.15,1.57,0.85,1.57c0.19,0,1-0.38,1.79-0.86
	c0.8-0.47,1.48-0.86,1.52-0.86c0.04,0,0.07,0.81,0.07,1.79v1.79l0.37,0.39c0.21,0.21,0.47,0.38,0.58,0.38c0.32,0,0.92-0.36,1.01-0.6
	c0.04-0.12,0.08-1.01,0.08-1.98c0-0.97,0.04-1.77,0.08-1.77c0.04,0,0.76,0.39,1.58,0.86c0.83,0.47,1.62,0.86,1.77,0.86
	c0.44,0,0.96-0.56,0.96-1.03c0-0.58-0.26-0.83-1.85-1.75c-0.76-0.44-1.39-0.82-1.39-0.85c0-0.02,0.53-0.35,1.18-0.74
	c2.06-1.2,2.27-1.43,2-2.22c-0.31-0.91-0.88-0.87-2.69,0.19c-0.8,0.47-1.5,0.86-1.55,0.86c-0.05,0-0.1-0.82-0.1-1.83
	c0-2.05-0.09-2.31-0.86-2.47C290.83,540.05,290.7,540.11,290.37,540.44z"/>
<path class="st0" d="M267.99,591.73l-1.05,1.07v4.77c0,2.62-0.07,4.77-0.17,4.77c-0.09,0-1.93-1.03-4.08-2.28
	c-2.17-1.27-4.33-2.28-4.85-2.28c-2.08,0-3.44,3.04-2.01,4.49c0.34,0.35,2.37,1.63,4.5,2.85c3.43,1.96,3.81,2.27,3.26,2.65
	c-0.34,0.24-2.22,1.34-4.17,2.46c-1.95,1.12-3.7,2.32-3.88,2.67c-0.92,1.75,0.41,4.2,2.29,4.2c0.51,0,2.68-1.02,4.83-2.28
	c2.15-1.26,3.99-2.28,4.09-2.28c0.1,0,0.18,2.15,0.18,4.77v4.77l1.01,1.03c0.55,0.56,1.26,1.03,1.57,1.03c0.85,0,2.48-0.96,2.73-1.6
	c0.12-0.31,0.21-2.69,0.21-5.28c0-2.59,0.1-4.71,0.22-4.71c0.12,0,2.04,1.03,4.26,2.28c2.22,1.26,4.37,2.28,4.76,2.28
	c1.19,0,2.6-1.49,2.6-2.75c0-1.54-0.71-2.21-4.99-4.66c-2.06-1.18-3.74-2.2-3.74-2.26c0-0.06,1.43-0.95,3.19-1.96
	c5.54-3.2,6.1-3.82,5.38-5.93c-0.83-2.43-2.36-2.32-7.24,0.52c-2.16,1.25-4.04,2.28-4.18,2.28c-0.14,0-0.26-2.19-0.26-4.88
	c0-5.46-0.25-6.17-2.31-6.58C269.21,590.7,268.86,590.83,267.99,591.73z"/>
<circle class="st1" cx="322.81" cy="625.63" r="2.5"/>
<path class="st0" d="M61,602.14l-1.05,1.07v4.77c0,2.62-0.07,4.77-0.17,4.77c-0.09,0-1.93-1.03-4.08-2.28
	c-2.17-1.27-4.33-2.28-4.85-2.28c-2.08,0-3.44,3.04-2.01,4.49c0.34,0.35,2.37,1.63,4.5,2.85c3.43,1.96,3.81,2.27,3.26,2.65
	c-0.34,0.24-2.22,1.34-4.17,2.46c-1.95,1.12-3.7,2.32-3.88,2.67c-0.92,1.75,0.41,4.2,2.29,4.2c0.51,0,2.68-1.02,4.83-2.28
	c2.15-1.26,3.99-2.28,4.09-2.28c0.1,0,0.18,2.15,0.18,4.77v4.77l1.01,1.03c0.55,0.56,1.26,1.03,1.57,1.03c0.85,0,2.48-0.96,2.73-1.6
	c0.12-0.31,0.21-2.69,0.21-5.28c0-2.59,0.1-4.71,0.22-4.71c0.12,0,2.04,1.03,4.26,2.28c2.22,1.26,4.37,2.28,4.76,2.28
	c1.19,0,2.6-1.49,2.6-2.75c0-1.54-0.71-2.21-4.99-4.66c-2.06-1.18-3.74-2.2-3.74-2.26c0-0.06,1.43-0.95,3.19-1.96
	c5.54-3.2,6.1-3.82,5.38-5.93c-0.83-2.43-2.36-2.32-7.24,0.52c-2.16,1.25-4.04,2.28-4.18,2.28c-0.14,0-0.26-2.19-0.26-4.88
	c0-5.46-0.25-6.17-2.31-6.58C62.23,601.1,61.88,601.24,61,602.14z"/>
<circle class="st1" cx="121.54" cy="604.96" r="2.5"/>
<circle class="st1" cx="48.25" cy="562.14" r="2.5"/>
<circle class="st1" cx="337.62" cy="568.8" r="4.16"/>
<circle class="st1" cx="223.99" cy="31.52" r="2.5"/>
<circle class="st1" cx="150.76" cy="27.36" r="4.16"/>
<g>
	<defs>
		<rect id="SVGID_1_" width="375" height="667"/>
	</defs>
	<clipPath id="SVGID_00000131335339273465806310000007835596410173254325_">
		<use xlink:href="#SVGID_1_"  style="overflow:visible;"/>
	</clipPath>
	<g style="clip-path:url(#SVGID_00000131335339273465806310000007835596410173254325_);">
		<rect x="0" y="-0.01" class="st3" width="375" height="667.02"/>
		<g>
			<path class="st4" d="M217.55,171.93c0.58-22.94,16.88-41.14,36.35-40.67c0.31,0,0.61,0.02,0.93,0.04
				c19.05,1.03,33.86,19.77,33.29,42.32c-0.07,1.98-0.23,3.93-0.51,5.84c-2.94,20.09-18.06,35.25-35.86,34.82
				C232.28,213.81,216.96,194.86,217.55,171.93z"/>
			<g class="st5">
				<g class="st5">
					<path class="st6" d="M217.57,171.92c0.55-21.4,14.77-38.71,32.53-40.52c-1.67,2.35,6.29,30.23,37.52,48.03l-0.01,0.03
						c-2.94,20.09-18.06,35.25-35.86,34.82C232.28,213.81,216.96,194.86,217.57,171.92z"/>
				</g>
			</g>
			<path class="st4" d="M259.46,136.65c-15.49-1.79-29.52,9.18-31.31,24.49c-1.79,15.32,9.31,29.19,24.8,30.99
				c15.49,1.79,29.93-10.3,31.71-25.62S274.96,138.46,259.46,136.65z"/>
			<path class="st4" d="M291.1,115.61l-10.71,46.64l-45.58-13.32c15.58-13.97,28.96-28.52,33.98-45.01L291.1,115.61z"/>
			<path class="st7" d="M283.98,131.84c0.42,5.43-2.74,14.75-9.93,38.98c-5.02,28.52-38.61,30.74-37.23-3.69
				c2.44-16.47,18.54-32.53,22.29-37.83C264.14,119.51,282.98,118.46,283.98,131.84z"/>
			<path class="st8" d="M252.09,131.37c0,0-0.16,11.61,10.98,18.09c11.14,6.48,20.26,3.2,20.26,3.2l0.55-6.34
				c0,0-7.06,4.15-17.63-2.34c-10.57-6.49-10.85-16.6-10.85-16.6L252.09,131.37z"/>
			<path class="st4" d="M298.35,96.58c-4.17-10.1-14.19-13.79-26.38-11.65c-12.18,2.15-20.35,9.02-20.88,19.91
				c-0.16,3.53,0.47,7.5,2.04,11.86c3.99,11.14,13.08,20.67,21.97,23.16c2.28,0.64,4.55,0.82,6.7,0.44
				c1.95-0.34,3.82-1.15,5.57-2.32c7.7-5.17,13.02-17.47,13.03-29.59C300.41,103.78,299.68,99.84,298.35,96.58z"/>
			<path class="st4" d="M235.58,103.44c6.39,3.32,15.82,0.1,17.62,1.45c3.22-1.52,2.51-4.3,1.33-5.64
				c-9.26-10.56-22.54-5.95-22.54-5.95S223.31,97.07,235.58,103.44z"/>
			<path class="st7" d="M236.15,102.18c8.76,4.07,15.52,0.1,13.77-1.58c-6.54-6.4-16.16-4.13-16.16-4.13S227.38,98.1,236.15,102.18z
				"/>
			<path class="st4" d="M313.62,90.4c-4.89,5.31-14.87,5.49-16.09,7.37c-3.54-0.34-3.82-3.2-3.16-4.85
				c5.15-13.06,19.19-13.25,19.19-13.25S323.02,80.25,313.62,90.4z"/>
			<path class="st7" d="M312.66,89.42c-6.87,6.83-14.55,5.39-13.48,3.21c3.99-8.27,13.8-9.4,13.8-9.4S319.54,82.61,312.66,89.42z"/>
			<path class="st9" d="M253.09,36.09c-4.25-1.82-7.39,0.12-7.39,0.12s-0.25,4.35-0.31,11.57c0,0.8-0.95,1.23-1.56,0.71
				c-3.58-3.05-5.91-5.6-6.28-6.32c-0.6-1.18-6.89,2.07-5.65,4.52c0.99,1.93,7.09,7.12,13.07,9.86c0.19,3.63,0.57,7.48,1.25,11.32
				c0.25,1.39-1.17,2.49-2.44,1.9c-6.17-2.85-10.3-7.85-11.01-8.76c-0.91-1.18-5.68,4.05-3.83,6.46c1.41,1.86,8.14,5.92,14.23,7.57
				c3.12,0.84,5.63,3.1,6.97,6.05c2.03,4.51,4.83,8.47,8.6,11.35c2.9,3.16,3.44,0.19,3.55-1.2c0.03-0.38,0.03-0.63,0.03-0.63
				s-1.97-2.79-3.99-8.02c-0.16-0.39-0.31-0.81-0.47-1.22c-0.52-1.4-1.02-2.97-1.49-4.69c-0.11-0.38-0.21-0.78-0.32-1.18
				c-2.31-8.98-3.57-21.72,0.09-37.46C255.09,37.13,254.05,36.5,253.09,36.09z"/>
			<path class="st9" d="M263.07,71.25c-0.3,0.11-0.63,0.33-0.98,0.68c-1.85,2.61-4.54,3.35-6.01,3.56
				c-0.65,0.08-1.06,0.08-1.06,0.08c-0.38,0.14-0.73,0.54-0.99,1.06c-1,2-0.86,5.94,3.11,4.95c0.26-0.08,0.51-0.15,0.75-0.22
				c4.42-1.45,6.44-5.24,7.09-7.02C265.55,72.76,264.67,70.6,263.07,71.25z"/>
			<path class="st10" d="M256.18,38.02c-1.08-0.9-2.12-1.5-3.1-1.94c-0.77,3.4-3.29,15.17-2.54,21.32c0.8,6.55,2.65,16.76,3.5,19.21
				c0.09,0.27,0.15,0.44,0.22,0.51c0.59-0.04,1.33-0.21,2.13-0.46c2.63-0.84,5.94-2.78,6.68-5.42c-0.3,0.11-0.63,0.33-0.98,0.68
				c-1.85,2.61-4.54,3.35-6.01,3.56C253.78,66.5,252.51,53.78,256.18,38.02z"/>
			<path class="st10" d="M258.35,82.59l-1.72,0.11c0,0,2.9,7.07,5.68,8.54c0.03-0.38,0.03-0.63,0.03-0.63S260.37,87.82,258.35,82.59
				z"/>
			<path class="st4" d="M251.74,89.2c1.31-3.69,3.64-4.52,7.81-5c4.85-0.56,7.37,8.8,7.37,8.8s-3.9,6.7-10.13,6.27
				C256.79,99.27,250.43,92.89,251.74,89.2z"/>
			<path class="st9" d="M289.03,32.75c-0.1,0.8-1.41,3.99-3.76,8.07c-0.39,0.69-1.44,0.61-1.71-0.15c-0.17-0.43-0.31-0.85-0.47-1.27
				c-2.22-6.02-3.71-9.51-3.71-9.51s-1.55-0.33-3.56,0.33c-1.8,0.57-3.93,1.93-5.7,4.93c18.27,28.33,11.96,51.58,11.96,51.58
				s1.87,5.5,3.98,0.5c1.73-2.67,2.87-5.63,3.57-8.79c0.35-1.56,0.57-3.17,0.71-4.8c0.25-3.22,1.84-6.22,4.5-8.07
				c5.2-3.63,10.14-9.75,10.85-11.97c0.34-1.05-0.27-2.16-1.2-3.06c-1.62-1.61-4.26-2.62-4.56-1.71c-0.36,1.09-2.57,7.2-7.41,11.98
				c-0.65,0.62-1.58,0.61-2.23,0.17c-0.36-0.25-0.62-0.65-0.71-1.13c-0.53-3.16-1.28-6.28-2.11-9.21c-0.19-0.63-0.37-1.26-0.55-1.88
				c4.7-4.59,8.7-11.57,8.97-13.71C296.21,32.35,289.2,31.42,289.03,32.75z"/>
			<path class="st9" d="M283.91,76.47c-5.09,0.53-8.55-2.6-9.82-4.13c-1.27-1.54-0.9-4.55,1.92-3.25c3.75,2.63,7.88,1.02,7.88,1.02
				C285.81,70.1,289.07,75.94,283.91,76.47z"/>
			<path class="st10" d="M275.82,30.24c0.84,1.75,5.09,10.37,7.27,9.17c-2.22-6.02-3.71-9.51-3.71-9.51S277.84,29.57,275.82,30.24z"
				/>
			<path class="st10" d="M287.46,50.65c-0.74,0.73-1.66,1.87-1.3,2.86c0.52,1.47,2.15,8.64,4.12,7.48
				c-0.36-0.25-0.62-0.65-0.71-1.13C289.01,56.71,288.27,53.59,287.46,50.65z"/>
			<path class="st10" d="M304.45,50.51c-1.16,2.86-3.71,8.39-6.61,10.64c-3.96,3.08-10.87,7.17-8.22,17.27
				c0.35-1.56,0.57-3.17,0.71-4.8c0.26-3.22,1.84-6.22,4.5-8.07c5.2-3.63,10.14-9.75,10.85-11.97
				C306.01,52.53,305.4,51.43,304.45,50.51z"/>
			<path class="st4" d="M291.56,81.8c-2.47-3.02-4.95-3.01-9.03-2.04c-4.74,1.12-3.96,10.78-3.96,10.78s5.93,4.97,11.65,2.45
				C290.22,93,294.07,84.81,291.56,81.8z"/>
			<path class="st7" d="M266.85,110.6c-3.16-9.69-13.01-6.81-15.78-5.78c-0.16,3.53,0.47,7.5,2.04,11.86
				c3.99,11.14,13.08,20.67,21.97,23.16C273.45,133.52,269.65,119.21,266.85,110.6z"/>
			<path class="st7" d="M298.32,96.58c-0.07,0-0.14,0-0.21,0c-2.94-0.01-13.18,0.63-12.88,10.81c0.27,9.19,1.57,24.24,2.13,30.58
				c7.7-5.17,13.02-17.47,13.03-29.59C300.41,103.78,299.68,99.84,298.32,96.58z"/>
			<path class="st11" d="M261.27,114.77c-0.22-1.13-0.56-2.17-1.02-2.93c-0.51-0.86-1.12-1.28-1.71-1.17
				c-1.27,0.22-1.57,2.63-1.19,4.79c0.03,0.19,0.23,0.34,0.44,0.3c0.19-0.03,0.34-0.23,0.3-0.44c-0.39-2.27,0.08-3.83,0.56-3.92
				c0.23-0.04,0.61,0.28,0.93,0.82c0.4,0.67,0.74,1.63,0.91,2.67c0.03,0.19,0.23,0.34,0.44,0.3c0.03-0.02,0.06-0.02,0.08-0.03
				C261.18,115.09,261.27,114.91,261.27,114.77z"/>
			<path class="st11" d="M296.28,108.62c-0.21-1.13-0.56-2.17-1.02-2.93c-0.51-0.86-1.12-1.28-1.71-1.17
				c-1.27,0.22-1.57,2.63-1.19,4.79c0.03,0.19,0.23,0.34,0.44,0.3c0.19-0.03,0.34-0.23,0.3-0.44c-0.39-2.27,0.08-3.83,0.56-3.92
				c0.23-0.04,0.61,0.28,0.93,0.82c0.4,0.67,0.74,1.63,0.91,2.67c0.03,0.19,0.23,0.34,0.44,0.3c0.03-0.02,0.06-0.02,0.08-0.03
				C296.18,108.94,296.31,108.77,296.28,108.62z"/>
			<path class="st12" d="M282.14,142.64c6.6-1.1,11.29-9.98,9.87-14.91c-1.16-3.88-6.11-6.64-13.58-5.44
				c-9.69,1.57-11.35,7.31-10.9,9.7C267.75,139.07,275.21,143.79,282.14,142.64z"/>
			<path class="st11" d="M280.37,135.42l-1.09-6.42c-0.03-0.19-0.21-0.31-0.4-0.28c-0.19,0.03-0.31,0.21-0.28,0.4l1.08,6.41
				c0.03,0.19,0.21,0.31,0.4,0.28c0.02-0.01,0.04-0.01,0.06-0.02C280.3,135.73,280.38,135.57,280.37,135.42z"/>
			<path class="st13" d="M272.41,134.72c3.52,10.15,17.9,6.55,16.17-4.99C282,134.49,272.9,134.79,272.41,134.72z"/>
			<path class="st11" d="M289.22,129.6c0.14-0.11,0.15-0.34,0.04-0.47c-0.12-0.14-0.34-0.15-0.47-0.04
				c-0.03,0.02-2.78,2.34-8.06,3.92c-5.26,1.57-8.87,1.16-8.93,1.15c-0.18-0.02-0.35,0.12-0.37,0.3c-0.02,0.18,0.12,0.35,0.29,0.37
				c0.16,0.03,3.77,0.44,9.2-1.17c0.81-0.24,1.57-0.51,2.27-0.77C287.11,131.39,289.14,129.68,289.22,129.6z"/>
			<path class="st14" d="M286.44,118.34c-1.73-4.52-6.8-6.78-11.33-5.05c-4.53,1.74-6.8,6.81-5.07,11.33
				c1.73,4.52,6.8,6.78,11.33,5.05C285.89,127.93,288.16,122.86,286.44,118.34z"/>
			<path class="st15" d="M273.75,118.87c-1.29,0.16-2.19,1.32-2.04,2.6c0.15,1.29,1.32,2.18,2.6,2.04c1.29-0.16,2.19-1.32,2.04-2.6
				C276.2,119.63,275.04,118.71,273.75,118.87z"/>
		</g>
		<path class="st16" d="M92.82,208.16c-4.2-17.72-0.42-44.09,14.41-63.2c7.45-9.61,17.7-17.38,31.12-21.29
			c10.05-2.93,21.7-0.91,35.64-1.44c72.48-2.77,75.46,63.12,75.46,63.12C240.15,266.25,100.45,240.37,92.82,208.16z"/>
		<path class="st0" d="M42.8,114.58c-0.44,0.43-0.68,0.98-0.68,1.55c0,0.75,0.45,1.33,3.03,3.93l3.03,3.06v5.28
			c0,2.91-0.1,5.24-0.22,5.19c-0.22-0.09-8.63-4.9-8.82-5.04c-0.05-0.04-0.52-1.65-1.04-3.59c-1.16-4.28-1.42-4.97-2.06-5.31
			c-1.41-0.75-3.28,0.22-3.28,1.7c0,0.38,0.37,2.1,0.82,3.8c0.45,1.71,0.79,3.13,0.76,3.16c-0.03,0.03-1.3,0.38-2.81,0.78
			c-1.51,0.4-3.11,0.86-3.54,1.03c-1.72,0.66-1.78,3.2-0.09,3.91c0.74,0.31,1.29,0.23,4.9-0.71l4.06-1.06l4.58,2.65l4.58,2.65
			l-3.11,1.82c-1.71,1-3.79,2.2-4.62,2.67l-1.51,0.85l-3.86-1.05c-2.12-0.58-4.06-1.06-4.32-1.07c-0.84-0.02-1.91,1.14-1.93,2.12
			c-0.04,1.47,0.77,2.04,4.19,2.94c1.68,0.44,3.16,0.87,3.3,0.96c0.15,0.09-0.08,1.42-0.56,3.16c-0.45,1.65-0.82,3.35-0.82,3.77
			c0,1.56,2.12,2.68,3.33,1.76c0.68-0.52,0.93-1.17,1.9-4.9c0.5-1.91,0.98-3.59,1.07-3.73c0.18-0.28,8.66-5.27,8.95-5.27
			c0.09,0,0.17,2.37,0.17,5.26v5.26l-3.03,3.06c-2.58,2.61-3.03,3.18-3.03,3.93c0,1.1,1.06,2.22,2.09,2.22
			c0.56,0,1.38-0.63,3.45-2.65l2.72-2.65l2.72,2.65c2.07,2.03,2.89,2.65,3.45,2.65c1.03,0,2.09-1.13,2.09-2.22
			c0-0.75-0.45-1.33-3.03-3.93l-3.03-3.06v-5.29c0-4.53,0.06-5.27,0.4-5.14c0.78,0.3,8.55,4.9,8.72,5.17
			c0.09,0.15,0.58,1.83,1.07,3.74c0.97,3.73,1.22,4.38,1.9,4.9c1.21,0.92,3.33-0.2,3.33-1.76c0-0.42-0.37-2.12-0.82-3.77
			c-0.45-1.65-0.77-3.05-0.71-3.1c0.06-0.06,1.51-0.48,3.23-0.95c3.61-0.98,4.37-1.49,4.37-2.98c0-0.8-0.17-1.16-0.76-1.62
			c-0.89-0.69-0.97-0.68-5.89,0.64l-3.48,0.94l-4.23-2.45c-2.33-1.35-4.4-2.55-4.59-2.66c-0.23-0.13,1.27-1.15,4.25-2.87l4.61-2.67
			l3.61,0.98c3.78,1.02,4.81,1.15,5.64,0.71c0.78-0.42,1.11-1.67,0.7-2.65c-0.4-0.95-0.86-1.16-4.68-2.17
			c-1.51-0.4-2.79-0.76-2.83-0.8c-0.04-0.04,0.3-1.45,0.76-3.13c0.46-1.68,0.83-3.4,0.83-3.83c0-1.62-2.25-2.57-3.54-1.48
			c-0.39,0.33-0.88,1.65-1.58,4.32c-0.56,2.11-1.13,3.99-1.28,4.17c-0.21,0.27-8.02,4.92-8.8,5.24c-0.12,0.05-0.22-2.29-0.22-5.19
			v-5.28l3.03-3.06c2.72-2.74,3.03-3.16,3.03-4.04c0-1.18-1.01-2.12-2.28-2.12c-0.67,0-1.31,0.47-3.4,2.52l-2.58,2.52l-2.58-2.52
			C44.91,113.59,44.09,113.29,42.8,114.58z"/>
		<path class="st0" d="M47.47,287.8l-0.69,0.69v3.1c0,1.71-0.05,3.1-0.11,3.1c-0.06,0-1.27-0.67-2.68-1.48
			c-1.43-0.82-2.85-1.48-3.19-1.48c-1.37,0-2.26,1.97-1.32,2.92c0.22,0.22,1.55,1.06,2.96,1.85c2.25,1.27,2.5,1.48,2.14,1.72
			c-0.22,0.15-1.46,0.87-2.74,1.6c-1.28,0.73-2.43,1.51-2.55,1.73c-0.61,1.14,0.27,2.73,1.5,2.73c0.34,0,1.76-0.67,3.18-1.48
			c1.41-0.82,2.62-1.48,2.69-1.48c0.07,0,0.12,1.39,0.12,3.1v3.1l0.66,0.67c0.36,0.37,0.83,0.67,1.03,0.67
			c0.56,0,1.63-0.62,1.79-1.04c0.08-0.2,0.14-1.75,0.14-3.43c0-1.69,0.07-3.06,0.14-3.06c0.08,0,1.34,0.67,2.8,1.48
			c1.46,0.82,2.87,1.48,3.13,1.48c0.78,0,1.71-0.97,1.71-1.79c0-1-0.47-1.43-3.28-3.03c-1.35-0.77-2.46-1.43-2.46-1.47
			c0-0.04,0.94-0.62,2.1-1.27c3.64-2.08,4.01-2.48,3.54-3.86c-0.55-1.58-1.55-1.51-4.76,0.34c-1.42,0.82-2.65,1.48-2.75,1.48
			c-0.09,0-0.17-1.43-0.17-3.17c0-3.55-0.16-4.01-1.52-4.28C48.28,287.12,48.05,287.21,47.47,287.8z"/>
		<path class="st0" d="M141.57,236.5l-0.39,0.4v1.79c0,0.98-0.03,1.79-0.06,1.79c-0.03,0-0.72-0.39-1.52-0.86
			c-0.81-0.48-1.61-0.86-1.8-0.86c-0.77,0-1.28,1.14-0.75,1.68c0.13,0.13,0.88,0.61,1.67,1.07c1.27,0.74,1.41,0.85,1.21,0.99
			c-0.13,0.09-0.82,0.5-1.55,0.92c-0.72,0.42-1.37,0.87-1.44,1c-0.34,0.66,0.15,1.57,0.85,1.57c0.19,0,1-0.38,1.79-0.86
			c0.8-0.47,1.48-0.86,1.52-0.86c0.04,0,0.07,0.81,0.07,1.79v1.79l0.37,0.39c0.21,0.21,0.47,0.38,0.58,0.38
			c0.32,0,0.92-0.36,1.01-0.6c0.04-0.12,0.08-1.01,0.08-1.98c0-0.97,0.04-1.77,0.08-1.77s0.76,0.39,1.58,0.86
			c0.83,0.47,1.62,0.86,1.77,0.86c0.44,0,0.96-0.56,0.96-1.03c0-0.58-0.26-0.83-1.86-1.75c-0.76-0.44-1.39-0.82-1.39-0.85
			c0-0.02,0.53-0.35,1.18-0.74c2.06-1.2,2.27-1.43,2-2.23c-0.31-0.91-0.88-0.87-2.69,0.19c-0.8,0.47-1.5,0.86-1.55,0.86
			c-0.05,0-0.1-0.82-0.1-1.83c0-2.05-0.09-2.31-0.86-2.47C142.03,236.11,141.9,236.16,141.57,236.5z"/>
		<circle class="st1" cx="99.88" cy="273.16" r="2.5"/>
		<circle class="st1" cx="33.31" cy="232.22" r="4.16"/>
		<path class="st0" d="M53.92,444.17c-0.51,0.51-0.79,1.16-0.79,1.82c0,0.88,0.52,1.56,3.56,4.62l3.56,3.59v6.21
			c0,3.42-0.12,6.16-0.26,6.1c-0.25-0.1-10.15-5.76-10.36-5.93c-0.06-0.04-0.61-1.94-1.22-4.22c-1.36-5.03-1.67-5.84-2.42-6.24
			c-1.66-0.88-3.86,0.26-3.86,2c0,0.45,0.43,2.46,0.96,4.47c0.53,2.01,0.93,3.68,0.89,3.72c-0.04,0.04-1.53,0.45-3.31,0.92
			c-1.78,0.47-3.65,1.02-4.17,1.21c-2.02,0.78-2.09,3.76-0.11,4.59c0.87,0.36,1.51,0.27,5.75-0.84l4.77-1.25l5.38,3.11l5.38,3.11
			l-3.65,2.14c-2.01,1.17-4.45,2.58-5.43,3.14l-1.78,1l-4.53-1.24c-2.49-0.68-4.78-1.25-5.08-1.25c-0.99-0.03-2.24,1.35-2.27,2.49
			c-0.05,1.73,0.9,2.4,4.93,3.46c1.97,0.52,3.72,1.03,3.88,1.13c0.18,0.11-0.1,1.67-0.66,3.72c-0.53,1.94-0.96,3.93-0.96,4.43
			c0,1.83,2.49,3.15,3.91,2.07c0.8-0.61,1.09-1.37,2.23-5.76c0.58-2.24,1.15-4.22,1.26-4.39c0.21-0.33,10.18-6.19,10.52-6.19
			c0.11,0,0.2,2.78,0.2,6.18v6.18l-3.56,3.59c-3.04,3.06-3.56,3.74-3.56,4.62c0,1.29,1.24,2.61,2.46,2.61
			c0.66,0,1.62-0.74,4.06-3.12l3.19-3.12l3.19,3.12c2.44,2.38,3.4,3.12,4.06,3.12c1.21,0,2.46-1.32,2.46-2.61
			c0-0.88-0.52-1.56-3.56-4.62l-3.56-3.59v-6.22c0-5.32,0.07-6.19,0.47-6.04c0.92,0.35,10.05,5.76,10.25,6.08
			c0.11,0.17,0.68,2.15,1.26,4.39c1.14,4.38,1.44,5.15,2.23,5.76c1.42,1.09,3.91-0.23,3.91-2.07c0-0.5-0.43-2.49-0.96-4.43
			c-0.53-1.94-0.91-3.58-0.84-3.64c0.07-0.07,1.77-0.57,3.79-1.11c4.25-1.15,5.13-1.75,5.13-3.51c0-0.94-0.2-1.37-0.89-1.91
			c-1.04-0.82-1.14-0.8-6.92,0.75l-4.09,1.1l-4.98-2.88c-2.74-1.59-5.17-2.99-5.4-3.12c-0.27-0.15,1.5-1.35,5-3.38l5.42-3.14
			l4.24,1.15c4.44,1.2,5.65,1.35,6.63,0.83c0.92-0.49,1.31-1.97,0.82-3.12c-0.47-1.11-1.02-1.36-5.5-2.55
			c-1.78-0.47-3.28-0.89-3.33-0.94c-0.05-0.04,0.35-1.7,0.89-3.67c0.54-1.98,0.98-4,0.98-4.5c0-1.91-2.65-3.02-4.16-1.74
			c-0.46,0.39-1.03,1.95-1.86,5.07c-0.66,2.48-1.33,4.68-1.5,4.9c-0.25,0.32-9.43,5.78-10.35,6.16c-0.14,0.06-0.26-2.69-0.26-6.1
			v-6.21l3.56-3.59c3.2-3.22,3.56-3.71,3.56-4.74c0-1.39-1.18-2.49-2.68-2.49c-0.79,0-1.54,0.56-4,2.96l-3.03,2.96l-3.03-2.96
			C56.4,443.02,55.44,442.66,53.92,444.17z"/>
		<circle class="st1" cx="96.6" cy="525.49" r="2.5"/>
		<circle class="st1" cx="126.95" cy="471.21" r="4.16"/>
		<circle class="st1" cx="33.31" cy="364.62" r="4.16"/>
		<path class="st0" d="M162.3,497.37l-0.39,0.4v1.79c0,0.98-0.03,1.79-0.06,1.79c-0.03,0-0.72-0.39-1.52-0.86
			c-0.81-0.48-1.61-0.86-1.8-0.86c-0.77,0-1.28,1.14-0.75,1.68c0.13,0.13,0.88,0.61,1.67,1.07c1.27,0.74,1.42,0.85,1.21,0.99
			c-0.13,0.09-0.82,0.5-1.55,0.92c-0.72,0.42-1.37,0.87-1.44,1c-0.34,0.66,0.15,1.57,0.85,1.57c0.19,0,1-0.38,1.79-0.86
			c0.8-0.47,1.48-0.86,1.52-0.86c0.04,0,0.07,0.81,0.07,1.79v1.79l0.37,0.39c0.21,0.21,0.47,0.38,0.58,0.38
			c0.32,0,0.92-0.36,1.01-0.6c0.04-0.12,0.08-1.01,0.08-1.98c0-0.97,0.04-1.77,0.08-1.77c0.04,0,0.76,0.39,1.58,0.86
			c0.83,0.47,1.62,0.86,1.77,0.86c0.44,0,0.96-0.56,0.96-1.03c0-0.58-0.26-0.83-1.85-1.75c-0.76-0.44-1.39-0.82-1.39-0.85
			s0.53-0.35,1.18-0.74c2.06-1.2,2.27-1.43,2-2.23c-0.31-0.91-0.88-0.87-2.69,0.19c-0.8,0.47-1.5,0.86-1.55,0.86
			c-0.05,0-0.1-0.82-0.1-1.83c0-2.05-0.09-2.31-0.86-2.47C162.76,496.99,162.63,497.04,162.3,497.37z"/>
		<path class="st0" d="M282.68,241.85l0.26-0.5l-0.51-1.71c-0.28-0.94-0.49-1.72-0.45-1.73c0.03-0.01,0.8,0.16,1.7,0.38
			c0.91,0.22,1.79,0.36,1.97,0.3c0.74-0.22,0.9-1.46,0.23-1.83c-0.16-0.09-1.02-0.33-1.91-0.55c-1.43-0.34-1.6-0.41-1.45-0.6
			c0.1-0.12,0.64-0.72,1.22-1.33c0.57-0.61,1.07-1.23,1.09-1.37c0.14-0.73-0.6-1.46-1.27-1.26c-0.18,0.05-0.84,0.65-1.47,1.34
			c-0.63,0.68-1.17,1.25-1.21,1.26c-0.04,0.01-0.3-0.75-0.58-1.69l-0.51-1.71l-0.47-0.26c-0.26-0.14-0.56-0.23-0.67-0.2
			c-0.3,0.09-0.78,0.61-0.8,0.86c-0.01,0.12,0.21,0.99,0.49,1.92c0.28,0.93,0.47,1.7,0.43,1.72c-0.04,0.01-0.84-0.15-1.76-0.37
			c-0.93-0.21-1.8-0.35-1.94-0.31c-0.42,0.13-0.76,0.81-0.63,1.27c0.17,0.55,0.49,0.72,2.28,1.14c0.86,0.2,1.57,0.39,1.57,0.41
			c0.01,0.02-0.41,0.49-0.92,1.04c-1.63,1.74-1.76,2.02-1.28,2.71c0.56,0.78,1.09,0.58,2.52-0.96c0.63-0.68,1.19-1.25,1.24-1.27
			c0.05-0.02,0.33,0.76,0.62,1.72c0.59,1.96,0.75,2.19,1.53,2.12C282.36,242.35,282.47,242.27,282.68,241.85z"/>
		<circle class="st1" cx="241.45" cy="250.22" r="4.16"/>
		<circle class="st1" cx="341.78" cy="328.89" r="4.16"/>
		<path class="st0" d="M334,438.28l0.26-0.5l-0.51-1.71c-0.28-0.94-0.49-1.72-0.45-1.73c0.03-0.01,0.8,0.16,1.7,0.38
			c0.91,0.22,1.79,0.36,1.97,0.3c0.74-0.22,0.9-1.46,0.23-1.83c-0.16-0.09-1.02-0.33-1.91-0.55c-1.43-0.34-1.6-0.41-1.45-0.6
			c0.1-0.12,0.64-0.72,1.22-1.33c0.57-0.61,1.07-1.23,1.09-1.37c0.14-0.73-0.6-1.46-1.27-1.26c-0.18,0.05-0.84,0.65-1.47,1.34
			c-0.63,0.68-1.17,1.25-1.21,1.26c-0.04,0.01-0.3-0.75-0.58-1.69l-0.51-1.71l-0.47-0.26c-0.26-0.14-0.56-0.23-0.67-0.2
			c-0.3,0.09-0.78,0.61-0.8,0.86c-0.01,0.12,0.21,0.99,0.49,1.92c0.28,0.93,0.47,1.7,0.43,1.72c-0.04,0.01-0.84-0.15-1.76-0.37
			c-0.93-0.21-1.8-0.35-1.94-0.31c-0.42,0.13-0.76,0.81-0.63,1.27c0.17,0.55,0.49,0.72,2.28,1.14c0.86,0.2,1.57,0.39,1.57,0.41
			c0.01,0.02-0.41,0.49-0.92,1.04c-1.63,1.74-1.76,2.02-1.28,2.71c0.56,0.78,1.09,0.58,2.52-0.96c0.63-0.68,1.19-1.25,1.24-1.27
			c0.05-0.02,0.33,0.76,0.62,1.72c0.59,1.96,0.75,2.19,1.53,2.12C333.68,438.78,333.79,438.69,334,438.28z"/>
		<path class="st0" d="M334.07,157.8l0.26-0.5l-0.51-1.71c-0.28-0.94-0.49-1.72-0.45-1.73c0.03-0.01,0.8,0.16,1.7,0.38
			c0.91,0.22,1.79,0.36,1.97,0.3c0.74-0.22,0.9-1.46,0.23-1.83c-0.16-0.09-1.02-0.33-1.91-0.55c-1.43-0.34-1.6-0.41-1.45-0.6
			c0.1-0.12,0.64-0.72,1.22-1.33c0.57-0.61,1.07-1.23,1.09-1.37c0.14-0.73-0.6-1.46-1.27-1.26c-0.18,0.05-0.84,0.65-1.47,1.34
			c-0.63,0.68-1.17,1.25-1.21,1.26c-0.04,0.01-0.3-0.75-0.58-1.69l-0.51-1.71l-0.47-0.26c-0.26-0.14-0.56-0.23-0.67-0.2
			c-0.3,0.09-0.78,0.61-0.8,0.86c-0.01,0.12,0.21,0.99,0.49,1.92c0.28,0.93,0.47,1.7,0.43,1.72c-0.04,0.01-0.84-0.15-1.76-0.37
			c-0.93-0.21-1.8-0.35-1.94-0.31c-0.42,0.13-0.76,0.81-0.63,1.27c0.17,0.55,0.49,0.72,2.28,1.14c0.86,0.2,1.57,0.39,1.57,0.41
			c0.01,0.02-0.41,0.49-0.92,1.04c-1.63,1.74-1.76,2.02-1.28,2.71c0.56,0.78,1.09,0.58,2.52-0.96c0.63-0.68,1.19-1.25,1.24-1.27
			c0.05-0.02,0.33,0.76,0.62,1.72c0.59,1.96,0.75,2.19,1.53,2.12C333.74,158.3,333.85,158.21,334.07,157.8z"/>
		<path class="st0" d="M246.08,540.88c0.34-0.64,0.43-1.34,0.24-1.97c-0.25-0.84-0.95-1.34-4.74-3.4l-4.44-2.42l-1.78-5.95
			c-0.98-3.27-1.66-5.94-1.5-5.92c0.27,0.03,11.38,2.61,11.63,2.7c0.07,0.03,1.14,1.69,2.38,3.69c2.75,4.43,3.28,5.12,4.11,5.29
			c1.84,0.37,3.62-1.36,3.12-3.03c-0.13-0.43-1.12-2.24-2.2-4.01c-1.08-1.77-1.95-3.26-1.92-3.31c0.03-0.05,1.33-0.87,2.9-1.83
			c1.57-0.96,3.21-2.02,3.64-2.36c1.71-1.33,0.92-4.2-1.22-4.43c-0.94-0.1-1.53,0.17-5.27,2.46l-4.21,2.57l-6.05-1.44l-6.05-1.44
			l2.89-3.09c1.59-1.7,3.52-3.75,4.3-4.56l1.42-1.47l4.7-0.11c2.58-0.06,4.93-0.18,5.23-0.26c0.95-0.26,1.76-1.93,1.46-3.04
			c-0.45-1.67-1.55-2.04-5.71-1.9c-2.03,0.07-3.85,0.08-4.04,0.03c-0.2-0.05-0.38-1.63-0.44-3.75c-0.05-2.01-0.21-4.05-0.35-4.52
			c-0.52-1.76-3.29-2.31-4.34-0.86c-0.59,0.81-0.65,1.63-0.49,6.16c0.08,2.31,0.11,4.37,0.05,4.56c-0.11,0.37-7.97,8.86-8.3,8.95
			c-0.1,0.03-0.99-2.61-1.97-5.87l-1.78-5.92l2.38-4.46c2.03-3.81,2.34-4.61,2.08-5.45c-0.37-1.24-1.94-2.14-3.1-1.8
			c-0.64,0.19-1.34,1.17-2.99,4.15l-2.16,3.91l-3.95-2.07c-3.02-1.58-4.15-2.01-4.79-1.82c-1.16,0.35-1.98,1.97-1.6,3.21
			c0.25,0.84,0.95,1.34,4.74,3.4l4.44,2.42l1.79,5.96c1.53,5.1,1.71,5.95,1.28,5.92c-0.98-0.07-11.28-2.64-11.56-2.88
			c-0.16-0.14-1.27-1.87-2.47-3.85c-2.35-3.87-2.86-4.52-3.79-4.87c-1.67-0.63-3.68,1.35-3.15,3.1c0.14,0.47,1.13,2.26,2.19,3.96
			c1.06,1.71,1.9,3.17,1.85,3.25c-0.04,0.08-1.54,1.05-3.32,2.15c-3.74,2.32-4.41,3.15-3.91,4.83c0.27,0.9,0.59,1.25,1.4,1.57
			c1.23,0.48,1.32,0.44,6.41-2.71l3.6-2.23l5.6,1.33c3.08,0.73,5.81,1.38,6.07,1.44c0.31,0.07-1.05,1.72-3.82,4.67l-4.29,4.56
			l-4.39,0.12c-4.6,0.12-5.8,0.33-6.59,1.11c-0.74,0.73-0.69,2.26,0.11,3.22c0.77,0.93,1.37,1.02,6,0.86
			c1.84-0.06,3.4-0.09,3.46-0.06c0.06,0.03,0.15,1.73,0.2,3.77c0.05,2.05,0.21,4.11,0.35,4.59c0.55,1.83,3.4,2.13,4.48,0.48
			c0.33-0.51,0.43-2.16,0.33-5.39c-0.08-2.57-0.07-4.87,0.03-5.12c0.15-0.37,7.37-8.25,8.14-8.87c0.12-0.1,1.02,2.5,2,5.77
			l1.78,5.95l-2.38,4.46c-2.14,4.01-2.35,4.57-2.05,5.57c0.4,1.33,1.85,2.04,3.28,1.62c0.76-0.23,1.32-0.98,2.98-3.98l2.05-3.7
			l3.75,1.96C244.04,542.7,245.06,542.76,246.08,540.88z"/>
		<path class="st0" d="M278.77,460.16l0.26-0.5l-0.51-1.71c-0.28-0.94-0.49-1.72-0.45-1.73c0.03-0.01,0.8,0.16,1.7,0.38
			c0.91,0.22,1.79,0.36,1.97,0.3c0.74-0.22,0.9-1.46,0.23-1.83c-0.16-0.09-1.02-0.33-1.91-0.55c-1.43-0.34-1.6-0.41-1.45-0.6
			c0.1-0.12,0.64-0.72,1.22-1.33c0.57-0.61,1.07-1.23,1.09-1.37c0.14-0.73-0.6-1.46-1.27-1.26c-0.18,0.05-0.84,0.65-1.47,1.34
			c-0.63,0.68-1.17,1.25-1.21,1.26c-0.04,0.01-0.3-0.75-0.58-1.69l-0.51-1.71l-0.47-0.26c-0.26-0.14-0.56-0.23-0.67-0.2
			c-0.3,0.09-0.78,0.61-0.8,0.86c-0.01,0.12,0.21,0.99,0.49,1.92c0.28,0.93,0.47,1.7,0.43,1.72c-0.04,0.01-0.84-0.15-1.76-0.37
			c-0.93-0.21-1.8-0.35-1.94-0.31c-0.42,0.13-0.76,0.81-0.63,1.27c0.17,0.55,0.49,0.72,2.28,1.14c0.86,0.2,1.57,0.39,1.57,0.41
			c0.01,0.02-0.41,0.49-0.92,1.04c-1.63,1.74-1.76,2.02-1.28,2.71c0.56,0.78,1.09,0.58,2.52-0.96c0.63-0.68,1.19-1.25,1.24-1.27
			c0.05-0.02,0.33,0.76,0.62,1.72c0.59,1.96,0.75,2.19,1.53,2.12C278.45,460.66,278.56,460.58,278.77,460.16z"/>
		<path class="st0" d="M169.85,434.9l0.7-1.32l-1.37-4.57c-0.75-2.51-1.3-4.59-1.21-4.62c0.09-0.03,2.14,0.43,4.56,1.02
			c2.45,0.59,4.81,0.94,5.3,0.79c2-0.6,2.43-3.9,0.64-4.88c-0.42-0.23-2.73-0.88-5.13-1.44c-3.84-0.9-4.3-1.08-3.89-1.6
			c0.26-0.32,1.74-1.92,3.29-3.55c1.55-1.63,2.87-3.28,2.95-3.67c0.38-1.95-1.6-3.9-3.4-3.36c-0.49,0.15-2.27,1.75-3.97,3.57
			c-1.7,1.82-3.16,3.33-3.26,3.36c-0.1,0.03-0.79-2-1.55-4.52l-1.37-4.57l-1.26-0.69c-0.69-0.38-1.5-0.62-1.8-0.53
			c-0.82,0.24-2.11,1.63-2.15,2.31c-0.02,0.33,0.57,2.64,1.31,5.12c0.74,2.48,1.26,4.54,1.14,4.58c-0.12,0.03-2.25-0.4-4.74-0.96
			c-2.49-0.56-4.84-0.93-5.22-0.82c-1.14,0.34-2.06,2.17-1.7,3.38c0.44,1.47,1.32,1.91,6.12,3.03c2.31,0.54,4.22,1.03,4.23,1.09
			c0.02,0.06-1.1,1.32-2.49,2.79c-4.39,4.65-4.75,5.41-3.45,7.23c1.49,2.09,2.92,1.55,6.78-2.58c1.71-1.82,3.21-3.35,3.35-3.39
			c0.14-0.04,0.88,2.03,1.65,4.6c1.57,5.23,2.01,5.84,4.11,5.64C168.97,436.24,169.27,436.01,169.85,434.9z"/>
		<circle class="st1" cx="239.14" cy="404.3" r="2.5"/>
		<circle class="st1" cx="310.29" cy="392.13" r="2.5"/>
		<circle class="st1" cx="228.36" cy="446.65" r="4.16"/>
		<path class="st0" d="M326.54,506.6l0.7-1.32l-1.37-4.57c-0.75-2.51-1.3-4.59-1.21-4.62c0.09-0.03,2.14,0.43,4.56,1.02
			c2.45,0.59,4.81,0.94,5.3,0.79c2-0.6,2.43-3.9,0.64-4.88c-0.42-0.23-2.73-0.88-5.13-1.44c-3.84-0.9-4.3-1.08-3.89-1.6
			c0.26-0.32,1.74-1.92,3.29-3.55c1.55-1.63,2.87-3.28,2.95-3.67c0.38-1.95-1.6-3.9-3.4-3.36c-0.49,0.15-2.27,1.75-3.97,3.57
			c-1.7,1.82-3.16,3.33-3.26,3.36c-0.1,0.03-0.79-2-1.55-4.52l-1.37-4.57l-1.26-0.69c-0.69-0.38-1.5-0.62-1.8-0.53
			c-0.82,0.24-2.11,1.63-2.15,2.31c-0.02,0.33,0.57,2.64,1.31,5.12c0.74,2.48,1.26,4.54,1.14,4.58c-0.12,0.03-2.25-0.4-4.74-0.96
			c-2.49-0.56-4.84-0.93-5.22-0.82c-1.14,0.34-2.06,2.17-1.7,3.38c0.44,1.47,1.32,1.91,6.12,3.03c2.31,0.54,4.22,1.03,4.23,1.09
			c0.02,0.06-1.1,1.32-2.49,2.79c-4.39,4.65-4.75,5.41-3.45,7.23c1.49,2.09,2.92,1.55,6.78-2.58c1.71-1.82,3.21-3.35,3.35-3.39
			c0.14-0.04,0.88,2.03,1.65,4.6c1.57,5.23,2.01,5.84,4.11,5.64C325.66,507.94,325.95,507.71,326.54,506.6z"/>
		<path class="st0" d="M54.88,51.8l1.14,0.97l4.76-0.36c2.62-0.2,4.76-0.28,4.77-0.19s-0.88,2-1.97,4.24
			c-1.1,2.26-1.95,4.49-1.91,5.01c0.16,2.08,3.28,3.2,4.63,1.67c0.32-0.36,1.45-2.48,2.51-4.7c1.7-3.56,1.98-3.97,2.4-3.45
			c0.26,0.32,1.51,2.11,2.77,3.97c1.26,1.86,2.59,3.51,2.95,3.67c1.82,0.79,4.15-0.72,4.01-2.6c-0.04-0.51-1.22-2.59-2.64-4.65
			c-1.41-2.05-2.58-3.8-2.58-3.91c-0.01-0.1,2.13-0.35,4.74-0.54l4.76-0.36l0.95-1.08c0.52-0.6,0.93-1.33,0.91-1.64
			c-0.06-0.85-1.14-2.41-1.8-2.6c-0.32-0.09-2.7-0.01-5.28,0.18c-2.59,0.19-4.71,0.25-4.72,0.13c-0.01-0.12,0.87-2.11,1.96-4.42
			c1.09-2.31,1.95-4.53,1.92-4.92c-0.09-1.18-1.68-2.48-2.94-2.38c-1.54,0.12-2.15,0.88-4.27,5.33c-1.02,2.14-1.91,3.9-1.97,3.9
			c-0.06,0-1.05-1.36-2.19-3.03c-3.6-5.28-4.27-5.8-6.32-4.92c-2.36,1.01-2.14,2.52,1.06,7.18c1.41,2.06,2.58,3.86,2.59,4
			c0.01,0.14-2.17,0.42-4.84,0.62c-5.45,0.41-6.14,0.71-6.39,2.8C53.75,50.65,53.92,50.99,54.88,51.8z"/>
		<circle class="st1" cx="214.71" cy="135.94" r="2.5"/>
		<circle class="st1" cx="29.14" cy="90.62" r="4.16"/>
		<path class="st0" d="M320.99,265.34l-1.05,1.07v4.77c0,2.62-0.07,4.77-0.17,4.77s-1.93-1.03-4.08-2.28
			c-2.17-1.27-4.33-2.28-4.85-2.28c-2.08,0-3.44,3.04-2.01,4.49c0.34,0.35,2.37,1.63,4.5,2.85c3.43,1.96,3.81,2.27,3.26,2.65
			c-0.34,0.24-2.22,1.34-4.17,2.46c-1.95,1.12-3.7,2.32-3.88,2.67c-0.92,1.75,0.41,4.2,2.29,4.2c0.51,0,2.68-1.02,4.83-2.28
			c2.15-1.26,3.99-2.28,4.09-2.28c0.1,0,0.18,2.15,0.18,4.77v4.77l1.01,1.03c0.55,0.56,1.26,1.03,1.57,1.03
			c0.85,0,2.48-0.96,2.73-1.6c0.12-0.31,0.21-2.69,0.21-5.28c0-2.59,0.1-4.71,0.22-4.71c0.12,0,2.04,1.03,4.26,2.28
			c2.22,1.26,4.37,2.28,4.76,2.28c1.19,0,2.6-1.49,2.6-2.75c0-1.54-0.71-2.21-4.99-4.66c-2.06-1.18-3.74-2.2-3.74-2.26
			c0-0.06,1.43-0.95,3.19-1.96c5.54-3.2,6.1-3.82,5.38-5.93c-0.83-2.43-2.36-2.32-7.24,0.52c-2.16,1.25-4.04,2.28-4.18,2.28
			c-0.14,0-0.26-2.19-0.26-4.88c0-5.46-0.25-6.17-2.31-6.58C322.22,264.31,321.87,264.45,320.99,265.34z"/>
		<path class="st0" d="M80.56,407.26l0.26-0.5l-0.51-1.71c-0.28-0.94-0.49-1.72-0.45-1.73c0.03-0.01,0.8,0.16,1.7,0.38
			c0.91,0.22,1.79,0.36,1.97,0.3c0.74-0.22,0.9-1.46,0.23-1.83c-0.16-0.09-1.02-0.33-1.91-0.55c-1.43-0.34-1.6-0.41-1.45-0.6
			c0.1-0.12,0.64-0.72,1.22-1.33c0.57-0.61,1.07-1.23,1.09-1.37c0.14-0.73-0.6-1.46-1.27-1.26c-0.18,0.05-0.84,0.65-1.47,1.34
			c-0.63,0.68-1.17,1.25-1.21,1.26c-0.04,0.01-0.3-0.75-0.58-1.69l-0.51-1.71l-0.47-0.26c-0.26-0.14-0.56-0.23-0.67-0.2
			c-0.3,0.09-0.78,0.61-0.8,0.86c-0.01,0.12,0.21,0.99,0.49,1.92s0.47,1.7,0.43,1.72c-0.04,0.01-0.84-0.15-1.76-0.37
			c-0.93-0.21-1.8-0.35-1.94-0.31c-0.42,0.13-0.76,0.81-0.63,1.27c0.17,0.55,0.49,0.72,2.28,1.14c0.86,0.2,1.57,0.39,1.57,0.41
			c0.01,0.02-0.41,0.49-0.92,1.04c-1.63,1.74-1.76,2.02-1.28,2.71c0.56,0.78,1.09,0.58,2.52-0.96c0.63-0.68,1.19-1.25,1.24-1.27
			c0.05-0.02,0.33,0.76,0.62,1.72c0.59,1.96,0.75,2.19,1.53,2.12C80.23,407.77,80.34,407.68,80.56,407.26z"/>
		<path class="st17" d="M261.1,173.05c0,0,5.35-16.86-11.3-22.79c-16.64-5.93-32.11,14.36-21.13,22.79
			C239.66,181.48,256.53,181.48,261.1,173.05z"/>
		<path class="st18" d="M218.8,173.74c0,10.72,10.67,19.42,23.83,19.42c13.16,0,23.83-8.69,23.83-19.42s-10.67-19.42-23.83-19.42
			C229.47,154.32,218.8,163.01,218.8,173.74z"/>
		<path class="st17" d="M119.43,173.05c10.98-8.43-4.49-28.73-21.13-22.79C81.66,156.19,87,173.05,87,173.05
			C91.58,181.48,108.45,181.48,119.43,173.05z"/>
		<path class="st18" d="M105.48,154.32c-13.16,0-23.83,8.69-23.83,19.42s10.67,19.42,23.83,19.42c13.16,0,23.83-8.69,23.83-19.42
			S118.64,154.32,105.48,154.32z"/>
		<g>
			<defs>
				<rect id="SVGID_00000013164952204233868740000006751225526689284000_" x="0" y="150.39" width="375" height="516.62"/>
			</defs>
			<clipPath id="SVGID_00000182505598876294825560000005266742601043249281_">
				<use xlink:href="#SVGID_00000013164952204233868740000006751225526689284000_"  style="overflow:visible;"/>
			</clipPath>
			<path style="clip-path:url(#SVGID_00000182505598876294825560000005266742601043249281_);fill:#E30613;" d="M65.92,171.81h243.16
				c36.41,0,65.92,29.51,65.92,65.92v474.16c0,36.41-29.51,65.92-65.92,65.92H65.92C29.51,777.81,0,748.3,0,711.89V237.73
				C0,201.32,29.51,171.81,65.92,171.81z"/>
		</g>
		<g>
			<path class="st20" d="M134.28,314.39c-0.26,1.17-0.86,2.24-1.73,3.06c-0.26,0.24-0.6,0.33-0.94,0.26
				c-1.17-0.26-2.24-0.86-3.06-1.73c-0.24-0.26-0.34-0.59-0.26-0.94c0.26-1.17,0.86-2.24,1.73-3.06c0.26-0.24,0.6-0.33,0.94-0.26
				c1.17,0.26,2.24,0.86,3.06,1.73C134.26,313.71,134.36,314.05,134.28,314.39 M141.98,323.63c-0.8,0.89-1.85,1.52-3.01,1.81
				c-0.34,0.08-0.68,0-0.95-0.24c-0.89-0.8-1.52-1.85-1.81-3.01c-0.08-0.34,0-0.68,0.24-0.95c0.8-0.89,1.85-1.52,3.01-1.81
				c0.34-0.08,0.68,0,0.95,0.24c0.89,0.8,1.52,1.85,1.81,3.01C142.3,323.02,142.21,323.37,141.98,323.63z M111.16,311.98
				c0.87,0.82,1.47,1.89,1.73,3.06c0.08,0.34-0.02,0.68-0.26,0.94c-0.82,0.87-1.89,1.48-3.06,1.73c-0.34,0.07-0.68-0.02-0.94-0.26
				c-0.87-0.82-1.47-1.89-1.73-3.06c-0.07-0.34,0.02-0.68,0.26-0.94c0.82-0.87,1.89-1.47,3.06-1.73
				C110.56,311.65,110.9,311.74,111.16,311.98z M101.72,319.44c1.16,0.28,2.21,0.92,3.01,1.81c0.23,0.26,0.32,0.6,0.23,0.95
				c-0.28,1.16-0.92,2.21-1.81,3.01c-0.26,0.23-0.6,0.32-0.94,0.24c-1.16-0.29-2.22-0.92-3.01-1.81c-0.23-0.26-0.32-0.6-0.23-0.95
				c0.28-1.16,0.92-2.21,1.81-3.01C101.04,319.44,101.38,319.35,101.72,319.44z M123.04,310.14c0.35,1.14,0.35,2.37,0,3.51
				c-0.1,0.34-0.35,0.59-0.69,0.69c-1.14,0.35-2.37,0.35-3.51,0c-0.34-0.11-0.59-0.35-0.69-0.69c-0.35-1.14-0.35-2.37,0-3.51
				c0.1-0.34,0.35-0.59,0.69-0.69c1.14-0.35,2.37-0.35,3.51,0C122.68,309.56,122.93,309.8,123.04,310.14z"/>
			<path class="st20" d="M121.91,339.55c2.04-3.03,3.41-6.54,3.93-10.32c0.02-0.14,0.11-0.26,0.24-0.31
				c0.13-0.05,0.28-0.03,0.39,0.05c1.4,1.08,3,1.92,4.72,2.46c0.22,0.07,0.36,0.29,0.31,0.52c-0.88,4.36-2.68,8.38-5.19,11.85
				c-0.08,0.11-0.19,0.18-0.33,0.2c-0.14,0.02-0.26-0.01-0.37-0.1c-1.35-1.06-2.58-2.26-3.67-3.59
				C121.77,340.09,121.75,339.79,121.91,339.55"/>
			<path class="st20" d="M120.23,349.52c-5.33-4.39-9.14-10.54-10.56-17.56c-0.05-0.23,0.09-0.45,0.31-0.52
				c1.73-0.54,3.33-1.38,4.72-2.46c0.11-0.09,0.26-0.11,0.39-0.05c0.14,0.06,0.22,0.17,0.24,0.31c0.88,6.48,4.3,12.16,9.21,16.01
				c0.11,0.09,0.17,0.2,0.19,0.34c0.01,0.14-0.03,0.26-0.12,0.37c-1.12,1.29-2.35,2.49-3.67,3.57
				C120.74,349.69,120.44,349.69,120.23,349.52"/>
			<path class="st20" d="M142.5,334.21c1.53-0.88,2.32-2.6,2.04-4.29c-0.02-0.13-0.1-0.23-0.22-0.28c-0.12-0.05-0.25-0.04-0.36,0.03
				c-3.04,1.98-6.69,2.8-10.29,2.31c-0.24-0.03-0.46,0.12-0.5,0.36c-0.54,2.67-1.41,5.22-2.57,7.6c-0.06,0.13-0.07,0.26-0.02,0.38
				c0.05,0.13,0.14,0.22,0.26,0.28c2.87,1.26,6.01,2,9.33,2.08c0.24,0,0.44-0.12,0.53-0.34C141.79,339.84,142.42,337.1,142.5,334.21
				"/>
			<path class="st20" d="M125.18,327.81c1.12-0.17,11.5-2,7.82-4.97c-3.11-2.51-6.71-4.42-10.64-5.56c-1.2-0.35-2.32-0.35-3.52,0
				c-3.93,1.14-7.54,3.05-10.65,5.56c-3.68,2.97,6.7,4.8,7.82,4.97c0.8,2.23,2.5,5.25,4.58,5.25
				C122.67,333.06,124.37,330.04,125.18,327.81"/>
			<path class="st20" d="M100.48,342.35c-1.09-2.51-1.72-5.25-1.79-8.14c-1.52-0.88-2.31-2.6-2.03-4.28
				c0.02-0.13,0.1-0.23,0.22-0.29c0.12-0.05,0.25-0.04,0.36,0.03c3.06,1.99,6.67,2.8,10.28,2.31c0.24-0.03,0.46,0.12,0.5,0.36
				c0.54,2.67,1.41,5.22,2.57,7.61c0.06,0.12,0.07,0.25,0.02,0.38c-0.05,0.13-0.14,0.22-0.27,0.28c-2.86,1.26-6.01,1.99-9.32,2.08
				C100.78,342.69,100.57,342.56,100.48,342.35"/>
			<path class="st20" d="M131,355.47c-3.15,1.5-6.68,2.34-10.4,2.34c-0.61,0-1.21-0.02-1.81-0.07c-0.13-0.01-0.23-0.07-0.31-0.17
				c-0.07-0.11-0.1-0.22-0.06-0.35c1.6-6.08,7.13-10.56,13.7-10.56c2.77,0,4.16,1.32,4.16,3.02
				C136.29,351.95,134.55,353.77,131,355.47"/>
			<path class="st20" d="M110.18,355.47c1.87,0.89,3.87,1.55,5.97,1.94c0.26,0.05,0.5-0.11,0.57-0.36c0.48-1.98,1.34-3.81,2.49-5.42
				c0.16-0.23,0.14-0.53-0.06-0.73c-2.57-2.61-6.15-4.23-10.1-4.23c-2.77,0-4.16,1.32-4.16,3.02
				C104.89,351.95,106.63,353.77,110.18,355.47"/>
			<path class="st21" d="M232.74,329h4.95c0.46,0,0.86-0.2,1.12-0.59l6.54-10.08v9.87c0,0.43,0.35,0.79,0.78,0.79h4.48
				c0.43,0,0.78-0.36,0.78-0.79v-18.18c0-0.44-0.35-0.79-0.78-0.79h-4.95c-0.46,0-0.86,0.2-1.11,0.59l-6.54,10.07v-9.87
				c0-0.44-0.35-0.79-0.78-0.79h-4.48c-0.43,0-0.78,0.35-0.78,0.79v18.18C231.97,328.65,232.32,329,232.74,329"/>
			<path class="st21" d="M205.46,329h21.44c1.07,0,1.95-0.89,1.95-1.98v-16.99c0-0.44-0.35-0.79-0.78-0.79h-4.48
				c-0.43,0-0.78,0.35-0.78,0.79v14.03h-3.56v-14.03c0-0.44-0.35-0.79-0.78-0.79h-4.49c-0.43,0-0.78,0.35-0.78,0.79v14.03h-3.67
				v-14.03c0-0.44-0.35-0.79-0.78-0.79h-4.46c-0.43,0-0.78,0.35-0.78,0.79v16.99C203.52,328.12,204.39,329,205.46,329"/>
			<path class="st21" d="M174.43,308.85c1.88,0,3.49,0.27,4.87,0.75c0.48,0.17,0.79,0.61,0.79,1.12v3.28c0,0.27-0.13,0.51-0.36,0.66
				c-0.23,0.15-0.49,0.17-0.74,0.06c-1.14-0.52-2.45-0.77-3.78-0.77c-3.62,0-5.34,2.13-5.34,5.18c0,3.05,1.72,5.18,5.34,5.18
				c1.33,0,2.64-0.25,3.78-0.77c0.25-0.11,0.52-0.09,0.74,0.06c0.23,0.15,0.36,0.39,0.36,0.66v3.27c0,0.52-0.31,0.95-0.79,1.12
				c-1.37,0.48-2.99,0.75-4.87,0.75c-7.99,0-10.8-5.03-10.8-10.28C163.63,313.88,166.44,308.85,174.43,308.85"/>
			<path class="st21" d="M196.35,309.24h4.49c0.27,0,0.5,0.12,0.65,0.35c0.15,0.22,0.17,0.49,0.07,0.74l-7.25,17.93
				c-0.18,0.46-0.6,0.74-1.08,0.74h-4.49c-0.27,0-0.5-0.12-0.65-0.35c-0.15-0.23-0.18-0.49-0.07-0.74l1.69-4.19h-0.81
				c-1.47,0-2.14-0.9-2.52-1.84l-4.67-11.55c-0.1-0.25-0.08-0.52,0.07-0.74c0.15-0.23,0.38-0.35,0.65-0.35h4.48
				c0.48,0,0.9,0.28,1.08,0.73l3.64,8.99l3.63-8.99C195.46,309.53,195.87,309.24,196.35,309.24"/>
			<path class="st21" d="M203.11,348.11l-2.1-6.75l-2.1,6.75H203.11z M197.14,336.53h7.74c0.49,0,0.9,0.31,1.04,0.78l5.49,17.96
				c0.08,0.25,0.03,0.5-0.12,0.7c-0.15,0.21-0.38,0.32-0.63,0.32h-4.21c-0.48,0-0.9-0.31-1.04-0.78l-0.77-2.46h-7.29l-0.77,2.46
				c-0.15,0.47-0.56,0.78-1.04,0.78h-4.21c-0.25,0-0.48-0.11-0.63-0.32c-0.15-0.21-0.19-0.46-0.12-0.7l5.49-17.96
				C196.24,336.84,196.65,336.53,197.14,336.53z M222.41,336.14c1.88,0,3.49,0.27,4.87,0.75c0.48,0.17,0.79,0.61,0.79,1.12v3.27
				c0,0.28-0.13,0.51-0.36,0.66c-0.23,0.15-0.49,0.17-0.74,0.06c-1.14-0.51-2.45-0.77-3.78-0.77c-3.62,0-5.34,2.13-5.34,5.18
				c0,3.04,1.72,5.18,5.34,5.18c1.33,0,2.64-0.25,3.78-0.77c0.25-0.11,0.51-0.09,0.74,0.06c0.23,0.15,0.36,0.39,0.36,0.66v3.27
				c0,0.51-0.31,0.95-0.79,1.12c-1.37,0.48-2.99,0.75-4.87,0.75c-7.99,0-10.8-5.03-10.8-10.27
				C211.61,341.17,214.42,336.14,222.41,336.14z M255.89,341.47h8.47c0.43,0,0.78-0.36,0.78-0.79v-3.36c0-0.43-0.35-0.79-0.78-0.79
				H251.8c-1.07,0-1.95,0.89-1.95,1.98v15.81c0,1.09,0.88,1.98,1.95,1.98h12.56c0.43,0,0.78-0.36,0.78-0.79v-3.36
				c0-0.43-0.35-0.79-0.78-0.79h-8.47v-2.47h7.36c0.43,0,0.78-0.36,0.78-0.79v-3.36c0-0.44-0.35-0.79-0.78-0.79h-7.36V341.47z
				 M273.8,341.47v4.94h3.34c2.66,0,2.66-4.94,0-4.94H273.8z M269.71,336.53h8.76c8.88,0,8.88,14.82,0,14.82h-4.67v4.15
				c0,0.43-0.35,0.79-0.78,0.79h-4.48c-0.43,0-0.78-0.36-0.78-0.79v-16.99C267.76,337.42,268.63,336.53,269.71,336.53z M231,341.47
				h4.9v14.03c0,0.43,0.35,0.79,0.78,0.79h4.48c0.43,0,0.78-0.36,0.78-0.79v-14.03h4.9c0.43,0,0.78-0.36,0.78-0.79v-3.36
				c0-0.43-0.35-0.79-0.78-0.79H231c-0.43,0-0.78,0.36-0.78,0.79v3.36C230.22,341.12,230.57,341.47,231,341.47z"/>
			<path class="st21" d="M180.01,337.06l-3.81,8.08l-3.85-8.08c-0.16-0.33-0.5-0.52-0.86-0.52h-5.09c-0.5,0-0.92,0.39-0.97,0.89
				l-1.81,18c-0.02,0.23,0.05,0.44,0.2,0.61c0.15,0.17,0.35,0.26,0.58,0.26h4.44c0.5,0,0.92-0.38,0.97-0.89l0.94-9.34l3.27,6.98
				c0.15,0.33,0.49,0.51,0.85,0.51h2.65c0.37,0,0.7-0.18,0.85-0.51l3.23-6.94l0.93,9.3c0.05,0.5,0.47,0.89,0.97,0.89h4.44
				c0.23,0,0.43-0.09,0.58-0.26c0.15-0.17,0.22-0.38,0.2-0.61l-1.8-18c-0.05-0.51-0.47-0.89-0.97-0.89h-5.08
				C180.51,336.54,180.17,336.74,180.01,337.06"/>
		</g>
		<g>
			<path class="st22" d="M236.95,184.74c-2.77-0.55-4.44-1.49-5.16-2.2c-3.28-3.16,1.42-8.85-1.32-10.81c-1.12-0.19-4.79,0-6.01,0
				c0-2.83,1.4-4.15,2.08-5.2c5.39-8.46,34.85-5.47,33.88,5.03C259.67,179.67,250.93,187.48,236.95,184.74z"/>
			<path class="st23" d="M237.91,181.51c0-3.69,0.83-7.61,0.87-7.84c0.03-0.14,0.17-0.24,0.32-0.2c0.14,0.03,0.24,0.17,0.2,0.32
				c-0.01,0.07-1.53,7.22-0.5,11.23c0.04,0.14-0.04,0.29-0.19,0.33c-0.14,0.04-0.29-0.04-0.33-0.19
				C238.01,184.06,237.91,182.8,237.91,181.51z"/>
			<path class="st23" d="M245.46,185.07c0-0.04,0.01-0.09,0.03-0.11c1.79-3.69,0.49-11.12,0.47-11.19
				c-0.03-0.14,0.07-0.29,0.21-0.32c0.14-0.03,0.29,0.07,0.32,0.22c0.06,0.32,1.35,7.67-0.53,11.52c-0.07,0.13-0.23,0.19-0.36,0.13
				C245.52,185.27,245.46,185.17,245.46,185.07z"/>
			<path class="st23" d="M252.8,182.36c0-0.04,0.01-0.09,0.03-0.11c1.79-3.69,0.5-8.66,0.49-8.7c-0.04-0.14,0.04-0.29,0.19-0.33
				c0.14-0.04,0.29,0.04,0.33,0.19c0.06,0.22,1.35,5.21-0.53,9.08c-0.07,0.13-0.23,0.19-0.36,0.13
				C252.85,182.56,252.8,182.46,252.8,182.36z"/>
		</g>
		<g>
			<path class="st22" d="M87.69,171.81c-0.97-10.5,28.49-13.49,33.88-5.03c0.67,1.05,2.08,2.37,2.08,5.2c-1.22,0-4.89-0.19-6.01,0
				c-2.74,1.97,1.96,7.66-1.32,10.81c-0.72,0.7-2.39,1.65-5.16,2.2C97.18,187.73,88.44,179.92,87.69,171.81z"/>
			<path class="st23" d="M109.83,185.41c-0.04,0.14-0.19,0.23-0.33,0.19c-0.14-0.04-0.23-0.19-0.19-0.33
				c1.03-4.01-0.49-11.16-0.5-11.23c-0.04-0.14,0.06-0.29,0.2-0.32c0.14-0.04,0.29,0.06,0.32,0.2c0.04,0.23,0.87,4.15,0.87,7.84
				C110.2,183.05,110.1,184.32,109.83,185.41z"/>
			<path class="st23" d="M102.5,185.57c-0.13,0.06-0.29,0-0.36-0.13c-1.88-3.85-0.59-11.2-0.53-11.52c0.03-0.14,0.17-0.24,0.32-0.22
				c0.14,0.03,0.24,0.17,0.21,0.32c-0.01,0.07-1.32,7.5,0.47,11.19c0.01,0.03,0.03,0.07,0.03,0.11
				C102.64,185.42,102.59,185.52,102.5,185.57z"/>
			<path class="st23" d="M95.16,182.85c-0.13,0.06-0.29,0-0.36-0.13c-1.88-3.86-0.59-8.86-0.53-9.08c0.04-0.14,0.19-0.23,0.33-0.19
				c0.14,0.04,0.23,0.19,0.19,0.33c-0.01,0.04-1.3,5.01,0.49,8.7c0.01,0.03,0.03,0.07,0.03,0.11
				C95.3,182.71,95.26,182.81,95.16,182.85z"/>
		</g>
		<g>
			<path class="st0" d="M184.21,75.74l-0.85,0.09l-1.73,2.1c-0.95,1.15-1.77,2.07-1.81,2.04c-0.04-0.03-0.49-1.16-0.99-2.5
				c-0.51-1.36-1.1-2.6-1.33-2.79c-0.93-0.76-2.63,0.07-2.53,1.24c0.03,0.28,0.46,1.59,0.97,2.91c0.81,2.12,0.87,2.4,0.49,2.37
				c-0.24-0.02-1.47-0.22-2.75-0.45c-1.27-0.22-2.49-0.34-2.7-0.25c-1.05,0.43-1.34,2-0.51,2.69c0.23,0.19,1.56,0.53,2.98,0.77
				c1.41,0.24,2.6,0.46,2.65,0.5c0.05,0.04-0.7,1.01-1.65,2.17l-1.73,2.1l0.08,0.82c0.04,0.45,0.19,0.92,0.33,1.03
				c0.38,0.31,1.45,0.49,1.79,0.3c0.17-0.09,1.07-1.11,2.01-2.25c0.94-1.14,1.76-2.04,1.81-1.99c0.05,0.04,0.53,1.2,1.07,2.57
				c0.53,1.37,1.11,2.61,1.29,2.75c0.53,0.44,1.7,0.3,2.15-0.26c0.56-0.68,0.48-1.23-0.53-3.88c-0.49-1.27-0.87-2.34-0.85-2.37
				c0.02-0.03,0.98,0.11,2.13,0.31c3.62,0.63,4.1,0.56,4.55-0.64c0.51-1.38-0.21-1.89-3.41-2.43c-1.42-0.24-2.63-0.48-2.69-0.53
				c-0.06-0.05,0.68-1.06,1.66-2.24c1.98-2.4,2.13-2.81,1.36-3.75C185.13,75.74,184.93,75.67,184.21,75.74z"/>
			<path class="st22" d="M129.46,110.4c2.63,22.27,22.81,38.23,45.09,35.65c22.28-2.58,38.21-22.73,35.58-45
				c-0.84-7.13-3.48-13.59-7.4-19.04c-8.35-11.55-22.53-18.37-37.69-16.61c-15.15,1.75-27.36,11.64-32.8,24.79
				C129.68,96.37,128.62,103.27,129.46,110.4z"/>
			<path class="st24" d="M159.68,115.42c1.79-0.21,3.15-1.1,3.05-1.99c-0.11-0.89-1.64-1.44-3.43-1.24
				c-1.79,0.21-3.15,1.1-3.05,1.99C156.36,115.07,157.89,115.62,159.68,115.42z"/>
			<path class="st24" d="M196.81,110.46c1.79-0.21,3.15-1.1,3.05-1.99c-0.11-0.89-1.64-1.44-3.43-1.24
				c-1.79,0.21-3.15,1.1-3.05,1.99C193.49,110.11,195.02,110.66,196.81,110.46z"/>
			<path class="st18" d="M116.1,82.64c3.57-0.34,6.19-3.51,5.84-7.08c-0.35-3.57-3.52-6.19-7.1-5.86c-3.57,0.34-6.19,3.51-5.84,7.08
				C109.35,80.36,112.52,82.98,116.1,82.64z"/>
			<path class="st17" d="M181.92,56.49c0.51-0.08-26.35-15.53-43.45-8.71c-19.61,7.79-10.4,40.35-10.4,40.35
				S146.12,62.18,181.92,56.49z"/>
			<path class="st17" d="M140.53,46.95c-0.68,0.33-17.28,4.44-26.07,25.23c-0.26,0.79,0.09,3.64,2.5,4.2
				c2.34,0.53,6.66-1.16,12.16-5.62C139.44,62.42,140.53,46.95,140.53,46.95z"/>
			<path class="st18" d="M204.58,84.81c0,0-14.06-19.97-43.42-9.41c-25.04,9-28.85,23.82-28.07,33.73c-0.5,0-0.98-0.05-1.44-0.11
				c-2.43-0.37-4.17-1.6-5.35-3.35c-3.05-4.47-2.56-12.29-0.89-17.61c2.45-7.8,26.05-38.55,62.13-30.63
				c10.39,1.92,17.24,8.78,18.77,16.45c0.14,0.67,0.22,1.35,0.29,2.04C206.85,79.34,205.35,83.44,204.58,84.81z"/>
			<path class="st25" d="M204.58,84.81c0,0-14.06-19.97-43.42-9.41c-25.04,9-28.85,23.82-28.07,33.73c-0.5,0-0.98-0.05-1.44-0.11
				c-2.43-0.37-4.17-1.6-5.35-3.35c-0.57-4.3,1.49-10.18,5.63-16.51c6.53-9.97,22.61-24.83,42.18-23.82
				C209.76,67.21,205.35,83.44,204.58,84.81z"/>
			<path class="st26" d="M129.51,59.18c-1.05,1.98-1.71,4.15-2.17,6.33c-0.52,2.45-0.81,4.96-0.93,7.47
				c-0.07,1.41-0.07,2.82-0.02,4.22c0.02,0.29-0.44,0.36-0.46,0.06c-0.1-2.54,0-5.1,0.28-7.63c0.27-2.45,0.73-4.9,1.47-7.24
				c0.37-1.17,0.82-2.3,1.4-3.38C129.22,58.74,129.66,58.91,129.51,59.18z"/>
			<path class="st22" d="M129.39,111.54c4.47-0.42,7.73-4.39,7.3-8.85c-0.43-4.46-4.4-7.74-8.87-7.32c-4.47,0.42-7.73,4.39-7.3,8.85
				C120.95,108.69,124.92,111.96,129.39,111.54z"/>
			<path class="st27" d="M126.75,107.14c1.84-1.03,3.36-2.63,3.92-4.7c0.56-2.1,0.23-4.5-0.7-6.47c-0.09-0.18-0.18-0.37-0.29-0.55
				c3.58,0.49,6.53,3.34,6.97,7.1c0.52,4.45-2.66,8.48-7.11,9c-2.82,0.33-5.48-0.85-7.18-2.88
				C123.9,108.37,125.4,107.9,126.75,107.14z"/>
			<path class="st28" d="M124.44,101.03c0.79-0.57,1.85-0.52,2.75-0.33c0.85,0.18,1.66,0.51,2.41,0.96
				c1.52,0.94,2.71,2.42,3.23,4.14c0.09,0.28-0.34,0.46-0.43,0.18c-0.49-1.55-1.5-2.89-2.87-3.79c-0.68-0.45-1.44-0.8-2.23-0.97
				c-0.82-0.2-1.85-0.33-2.59,0.2C124.49,101.57,124.2,101.2,124.44,101.03z"/>
			<path class="st27" d="M198.53,75.31c0,0,3.48,3.54,0.59,5.04c-5.61-1.89-14.15-0.59-17.01,1.06c-2.87,1.65-3.85-6-1.45-8.11
				C183.07,71.19,195.49,71.22,198.53,75.31z"/>
			<path class="st27" d="M145.64,81.52c0,0-2.57,4.24,0.59,5.04c3.18,0.6,9.53-4.29,16.81-2.86c3.25,0.64,2.35-6.74-0.48-8.22
				S147.65,76.84,145.64,81.52z"/>
			<path class="st18" d="M197.96,73.37c0,0,3.48,3.54,0.59,5.04c-5.61-1.89-14.15-0.59-17.01,1.05c-2.87,1.65-3.85-6-1.45-8.11
				C182.49,69.25,194.91,69.27,197.96,73.37z"/>
			<path class="st18" d="M145.5,79.69c0,0-2.57,4.24,0.59,5.04c5.01-3.14,13.63-3.81,16.81-2.86c3.18,0.95,2.35-6.74-0.48-8.22
				C159.59,72.16,147.52,75.02,145.5,79.69z"/>
			<path class="st18" d="M209.36,94.91c13.52,15.41,17.69,31.12,11.27,43.83c-12.75,25.2-42.49,42.3-42.49,42.3
				s-39.65-8.16-52.75-25.05c-9.72-13.48-1.37-36.22,3.38-51.29c-2.35-8.96,4.23-11.4,6.97-9.71c0,0,1.27-0.25,3.6,10.83
				c1.51,7.23,12.17,14.76,18.38,14.64c5.31-0.1,12.6-5.81,21.32-5.87c11.64-0.08,15.56,2.43,20.51-1.96
				c10.66-9.45,3.77-21.92,6.06-26.08C206.95,84.04,211.67,87.65,209.36,94.91z"/>
			<path class="st22" d="M183,105.44c0,0,9.59,4.44,8.13,9.98c-1.45,5.53-15.56,7.85-18.6-1.63L183,105.44z"/>
			<g class="st5">
				<g class="st5">
					<path class="st29" d="M185.27,115.78c1.17-0.14,2.02-1.11,1.9-2.17s-1.18-1.81-2.35-1.68c-1.17,0.14-2.02,1.11-1.9,2.17
						C183.05,115.17,184.1,115.92,185.27,115.78z"/>
				</g>
			</g>
			<path class="st30" d="M183.83,120.51c3.83-0.47,7.01-2.49,7.66-5c1.52-5.77-7.94-10.23-8.35-10.42c-0.19-0.08-0.41,0-0.5,0.18
				c-0.08,0.19,0,0.41,0.18,0.5c0.1,0.04,9.29,4.38,7.94,9.54c-0.66,2.49-4.22,4.44-8.31,4.54c-4.72,0.12-8.3-2.2-9.57-6.18
				c-0.06-0.2-0.27-0.3-0.47-0.24c-0.2,0.06-0.3,0.27-0.24,0.47c1.39,4.32,5.23,6.82,10.3,6.7
				C182.94,120.6,183.4,120.56,183.83,120.51z"/>
			<path d="M196.98,100.17c1.2-0.14,1.93-2.39,1.62-5.03c-0.31-2.64-1.54-4.66-2.74-4.52c-1.2,0.14-1.93,2.39-1.62,5.03
				C194.55,98.29,195.78,100.31,196.98,100.17z"/>
			<path d="M159.1,103.82c1.2-0.14,1.93-2.39,1.62-5.03c-0.31-2.64-1.54-4.66-2.74-4.52c-1.2,0.14-1.93,2.39-1.62,5.03
				C156.67,101.94,157.9,103.96,159.1,103.82z"/>
			<path class="st31" d="M193.65,131.58c-0.34,1.59-0.8,3.24-1.33,4.89c-2.61,7.97-7.26,15.87-12.04,16.6
				c-6.12,0.94-12.3-9.83-13.82-20.26c-0.07-0.5-0.14-1.01-0.19-1.51C184.46,133.09,193.65,131.58,193.65,131.58z"/>
			<path class="st32" d="M193.65,131.58c-0.34,1.59-0.8,3.24-1.33,4.89c-3.73,0.88-8.9,0.93-14.49-0.06
				c-4.39-0.78-8.33-2.06-11.38-3.61c-0.07-0.5-0.14-1.01-0.19-1.51C184.46,133.09,193.65,131.58,193.65,131.58z"/>
		</g>
		<circle class="st1" cx="341.78" cy="46.95" r="4.16"/>
		<path class="st0" d="M331.25,108.1l0.77,0.65l3.21-0.24c1.77-0.13,3.22-0.19,3.22-0.13c0,0.06-0.59,1.35-1.33,2.87
			c-0.74,1.53-1.32,3.03-1.29,3.38c0.11,1.4,2.22,2.17,3.13,1.13c0.22-0.25,0.98-1.68,1.69-3.18c1.15-2.41,1.34-2.68,1.62-2.33
			c0.18,0.22,1.02,1.43,1.87,2.68c0.85,1.26,1.75,2.37,1.99,2.48c1.23,0.53,2.81-0.49,2.71-1.75c-0.03-0.34-0.83-1.75-1.78-3.14
			c-0.95-1.38-1.74-2.57-1.75-2.64c-0.01-0.07,1.44-0.23,3.2-0.37l3.21-0.24l0.64-0.73c0.35-0.4,0.63-0.9,0.61-1.11
			c-0.04-0.57-0.77-1.63-1.21-1.76c-0.22-0.06-1.82-0.01-3.57,0.12c-1.75,0.13-3.18,0.17-3.19,0.09c-0.01-0.08,0.59-1.43,1.32-2.99
			c0.73-1.56,1.32-3.06,1.3-3.32c-0.06-0.8-1.14-1.67-1.98-1.61c-1.04,0.08-1.45,0.59-2.88,3.6c-0.69,1.45-1.29,2.63-1.33,2.64
			c-0.04,0-0.71-0.92-1.48-2.05c-2.43-3.57-2.88-3.92-4.27-3.33c-1.6,0.68-1.45,1.7,0.72,4.85c0.95,1.39,1.74,2.61,1.75,2.7
			c0.01,0.1-1.47,0.29-3.27,0.42c-3.68,0.28-4.15,0.48-4.32,1.89C330.5,107.33,330.61,107.56,331.25,108.1z"/>
	</g>
</g>
</svg>
