<svg version="1.2" baseProfile="tiny-ps" xmlns="http://www.w3.org/2000/svg" viewBox="0 0 375 667" width="375" height="667">
	<title>375х667-svg</title>
	<style>
		tspan { white-space:pre }
		.s0 { fill: #b4b4c1 } 
		.s1 { fill: #e3e4e8 } 
		.s2 { fill: #ec8359 } 
		.s3 { opacity: .5;fill: #000000 } 
		.s4 { fill: #fbd6c4 } 
		.s5 { fill: #019b79 } 
		.s6 { fill: #6e392c } 
		.s7 { fill: #864637 } 
		.s8 { fill: #66402b } 
		.s9 { fill: #ffffff } 
		.s10 { fill: #b15c48 } 
		.s11 { fill: #e53821 } 
		.s12 { fill: #f29a93 } 
		.s13 { fill: #e63628 } 
		.s14 { fill: #ea564a } 
		.s15 { fill: #fffaef } 
		.s16 { fill: #e30613 } 
		.s17 { fill: #fdfdfb } 
		.s18 { fill: #f6b290 } 
		.s19 { fill: #f08450 } 
		.s20 { fill: #f08870 } 
		.s21 { fill: #fbedcb } 
		.s22 { fill: #96221f } 
		.s23 { fill: #f4a279 } 
		.s24 { fill: #c6622b } 
		.s25 { opacity: .5;fill: #ffffff } 
		.s26 { fill: #db8879 } 
		.s27 { fill: #000000 } 
		.s28 { fill: #c7562d } 
		.s29 { fill: #f6d7cc } 
	</style>
	<path id="Layer" fill-rule="evenodd" class="s0" d="m134.11 545.57c2.06 0.41 2.31 1.12 2.31 6.58c0 2.69 0.12 4.88 0.26 4.88c0.14 0 2.02-1.03 4.18-2.28c4.88-2.84 6.41-2.95 7.24-0.52c0.72 2.11 0.16 2.73-5.38 5.93c-1.76 1.01-3.19 1.9-3.19 1.96c0 0.06 1.68 1.08 3.74 2.26c4.28 2.45 4.99 3.12 4.99 4.66c0 1.26-1.41 2.75-2.6 2.75c-0.39 0-2.54-1.02-4.76-2.28c-2.22-1.25-4.14-2.28-4.26-2.28c-0.12 0-0.22 2.12-0.22 4.71c0 2.59-0.09 4.97-0.21 5.28c-0.25 0.64-1.88 1.6-2.73 1.6c-0.31 0-1.02-0.47-1.57-1.03l-1.01-1.03v-4.77c0-2.62-0.08-4.77-0.18-4.77c-0.1 0-1.94 1.02-4.09 2.28c-2.15 1.26-4.32 2.28-4.83 2.28c-1.88 0-3.21-2.45-2.29-4.2c0.18-0.35 1.93-1.55 3.88-2.67c1.95-1.12 3.83-2.22 4.17-2.46c0.55-0.38 0.17-0.69-3.26-2.65c-2.13-1.22-4.16-2.5-4.5-2.85c-1.43-1.45-0.07-4.49 2.01-4.49c0.52 0 2.68 1.01 4.85 2.28c2.15 1.25 3.99 2.28 4.08 2.28c0.1 0 0.17-2.15 0.17-4.77v-4.77l1.05-1.07c0.88-0.9 1.23-1.04 2.15-0.84z" />
	<path id="Layer" fill-rule="evenodd" class="s0" d="m180.17 590.79c0.77 0.15 0.86 0.42 0.86 2.47c0 1.01 0.05 1.83 0.1 1.83c0.05 0 0.75-0.39 1.55-0.86c1.81-1.06 2.38-1.1 2.69-0.19c0.27 0.8 0.06 1.03-2 2.23c-0.65 0.39-1.18 0.72-1.18 0.74c0 0.03 0.63 0.41 1.39 0.85c1.59 0.92 1.85 1.17 1.85 1.75c0 0.47-0.52 1.03-0.96 1.03c-0.15 0-0.94-0.39-1.77-0.86c-0.82-0.47-1.54-0.86-1.58-0.86c-0.04 0-0.08 0.8-0.08 1.77c0 0.97-0.04 1.86-0.08 1.98c-0.09 0.24-0.69 0.6-1.01 0.6c-0.11 0-0.37-0.17-0.58-0.38l-0.37-0.39v-1.79c0-0.98-0.03-1.79-0.07-1.79c-0.04 0-0.72 0.39-1.52 0.86c-0.79 0.48-1.6 0.86-1.79 0.86c-0.7 0-1.19-0.91-0.85-1.57c0.07-0.13 0.72-0.58 1.44-1c0.73-0.42 1.42-0.83 1.55-0.92c0.21-0.14 0.06-0.25-1.21-0.99c-0.79-0.46-1.54-0.94-1.67-1.07c-0.53-0.54-0.02-1.68 0.75-1.68c0.19 0 0.99 0.38 1.8 0.86c0.8 0.47 1.49 0.86 1.52 0.86c0.03 0 0.06-0.81 0.06-1.79v-1.79l0.39-0.4c0.33-0.33 0.46-0.38 0.77-0.36z" />
	<path id="Layer" class="s0" d="m222.28 626.62c-1.38 0-2.5-1.12-2.5-2.5c0-1.38 1.12-2.5 2.5-2.5c1.38 0 2.5 1.12 2.5 2.5c0 1.38-1.12 2.5-2.5 2.5z" />
	<path id="Layer" class="s0" d="m162.98 634.11c-1.38 0-2.5-1.12-2.5-2.5c0-1.38 1.12-2.5 2.5-2.5c1.38 0 2.5 1.12 2.5 2.5c0 1.38-1.12 2.5-2.5 2.5z" />
	<path id="Layer" fill-rule="evenodd" class="s0" d="m291.14 540.09c0.77 0.16 0.86 0.42 0.86 2.47c0 1.01 0.05 1.83 0.1 1.83c0.05 0 0.75-0.39 1.55-0.86c1.81-1.06 2.38-1.1 2.69-0.19c0.27 0.79 0.06 1.02-2 2.22c-0.65 0.39-1.18 0.72-1.18 0.74c0 0.03 0.63 0.41 1.39 0.85c1.59 0.92 1.85 1.17 1.85 1.75c0 0.47-0.52 1.03-0.96 1.03c-0.15 0-0.94-0.39-1.77-0.86c-0.82-0.47-1.54-0.86-1.58-0.86c-0.04 0-0.08 0.8-0.08 1.77c0 0.97-0.04 1.86-0.08 1.98c-0.09 0.24-0.69 0.6-1.01 0.6c-0.11 0-0.37-0.17-0.58-0.38l-0.37-0.39v-1.79c0-0.98-0.03-1.79-0.07-1.79c-0.04 0-0.72 0.39-1.52 0.86c-0.79 0.48-1.6 0.86-1.79 0.86c-0.7 0-1.19-0.91-0.85-1.57c0.07-0.13 0.72-0.58 1.44-1c0.73-0.42 1.42-0.83 1.55-0.92c0.21-0.14 0.06-0.25-1.21-0.99c-0.79-0.46-1.54-0.94-1.67-1.07c-0.53-0.54-0.02-1.68 0.75-1.68c0.19 0 0.99 0.38 1.8 0.86c0.8 0.47 1.49 0.86 1.52 0.86c0.03 0 0.06-0.81 0.06-1.79v-1.79l0.39-0.4c0.33-0.33 0.46-0.39 0.77-0.35z" />
	<path id="Layer" fill-rule="evenodd" class="s0" d="m270.14 590.89c2.06 0.41 2.31 1.12 2.31 6.58c0 2.69 0.12 4.88 0.26 4.88c0.14 0 2.02-1.03 4.18-2.28c4.88-2.84 6.41-2.95 7.24-0.52c0.72 2.11 0.16 2.73-5.38 5.93c-1.76 1.01-3.19 1.9-3.19 1.96c0 0.06 1.68 1.08 3.74 2.26c4.28 2.45 4.99 3.12 4.99 4.66c0 1.26-1.41 2.75-2.6 2.75c-0.39 0-2.54-1.02-4.76-2.28c-2.22-1.25-4.14-2.28-4.26-2.28c-0.12 0-0.22 2.12-0.22 4.71c0 2.59-0.09 4.97-0.21 5.28c-0.25 0.64-1.88 1.6-2.73 1.6c-0.31 0-1.02-0.47-1.57-1.03l-1.01-1.03v-4.77c0-2.62-0.08-4.77-0.18-4.77c-0.1 0-1.94 1.02-4.09 2.28c-2.15 1.26-4.32 2.28-4.83 2.28c-1.88 0-3.21-2.45-2.29-4.2c0.18-0.35 1.93-1.55 3.88-2.67c1.95-1.12 3.83-2.22 4.17-2.46c0.55-0.38 0.17-0.69-3.26-2.65c-2.13-1.22-4.16-2.5-4.5-2.85c-1.43-1.45-0.07-4.49 2.01-4.49c0.52 0 2.68 1.01 4.85 2.28c2.15 1.25 3.99 2.28 4.08 2.28c0.1 0 0.17-2.15 0.17-4.77v-4.77l1.05-1.07c0.87-0.9 1.22-1.03 2.15-0.84z" />
	<path id="Layer" class="s0" d="m322.81 628.13c-1.38 0-2.5-1.12-2.5-2.5c0-1.38 1.12-2.5 2.5-2.5c1.38 0 2.5 1.12 2.5 2.5c0 1.38-1.12 2.5-2.5 2.5z" />
	<path id="Layer" fill-rule="evenodd" class="s0" d="m63.15 601.3c2.06 0.41 2.31 1.12 2.31 6.58c0 2.69 0.12 4.88 0.26 4.88c0.14 0 2.02-1.03 4.18-2.28c4.88-2.84 6.41-2.95 7.24-0.52c0.72 2.11 0.16 2.73-5.38 5.93c-1.76 1.01-3.19 1.9-3.19 1.96c0 0.06 1.68 1.08 3.74 2.26c4.28 2.45 4.99 3.12 4.99 4.66c0 1.26-1.41 2.75-2.6 2.75c-0.39 0-2.54-1.02-4.76-2.28c-2.22-1.25-4.14-2.28-4.26-2.28c-0.12 0-0.22 2.12-0.22 4.71c0 2.59-0.09 4.97-0.21 5.28c-0.25 0.64-1.88 1.6-2.73 1.6c-0.31 0-1.02-0.47-1.57-1.03l-1.01-1.03v-4.77c0-2.62-0.08-4.77-0.18-4.77c-0.1 0-1.94 1.02-4.09 2.28c-2.15 1.26-4.32 2.28-4.83 2.28c-1.88 0-3.21-2.45-2.29-4.2c0.18-0.35 1.93-1.55 3.88-2.67c1.95-1.12 3.83-2.22 4.17-2.46c0.55-0.38 0.17-0.69-3.26-2.65c-2.13-1.22-4.16-2.5-4.5-2.85c-1.43-1.45-0.07-4.49 2.01-4.49c0.52 0 2.68 1.01 4.85 2.28c2.15 1.25 3.99 2.28 4.08 2.28c0.1 0 0.17-2.15 0.17-4.77v-4.77l1.05-1.07c0.88-0.9 1.23-1.04 2.15-0.84z" />
	<path id="Layer" class="s0" d="m121.54 607.46c-1.38 0-2.5-1.12-2.5-2.5c0-1.38 1.12-2.5 2.5-2.5c1.38 0 2.5 1.12 2.5 2.5c0 1.38-1.12 2.5-2.5 2.5z" />
	<path id="Layer" class="s0" d="m48.25 564.64c-1.38 0-2.5-1.12-2.5-2.5c0-1.38 1.12-2.5 2.5-2.5c1.38 0 2.5 1.12 2.5 2.5c0 1.38-1.12 2.5-2.5 2.5z" />
	<path id="Layer" class="s0" d="m337.62 572.96c-2.3 0-4.16-1.86-4.16-4.16c0-2.3 1.86-4.16 4.16-4.16c2.3 0 4.16 1.86 4.16 4.16c0 2.3-1.86 4.16-4.16 4.16z" />
	<path id="Layer" class="s0" d="m223.99 34.02c-1.38 0-2.5-1.12-2.5-2.5c0-1.38 1.12-2.5 2.5-2.5c1.38 0 2.5 1.12 2.5 2.5c0 1.38-1.12 2.5-2.5 2.5z" />
	<path id="Layer" class="s0" d="m150.76 31.52c-2.3 0-4.16-1.86-4.16-4.16c0-2.3 1.86-4.16 4.16-4.16c2.3 0 4.16 1.86 4.16 4.16c0 2.3-1.86 4.16-4.16 4.16z" />
	<g id="Layer">
		<g id="Layer">
			<path id="Layer" class="s1" d="m0-0.01h375v667.02h-375v-667.02z" />
			<g id="Layer">
				<path id="Layer" class="s2" d="m217.55 171.93c0.58-22.94 16.88-41.14 36.35-40.67c0.31 0 0.61 0.02 0.93 0.04c19.05 1.03 33.86 19.77 33.29 42.32c-0.07 1.98-0.23 3.93-0.51 5.84c-2.94 20.09-18.06 35.25-35.86 34.82c-19.47-0.47-34.79-19.42-34.2-42.35z" />
				<g id="Layer" style="opacity: .5">
					<g id="Layer" style="opacity: .5">
						<path id="Layer" class="s3" d="m217.57 171.92c0.55-21.4 14.77-38.71 32.53-40.52c-1.67 2.35 6.29 30.23 37.52 48.03l-0.01 0.03c-2.94 20.09-18.06 35.25-35.86 34.82c-19.47-0.47-34.79-19.42-34.18-42.36z" />
					</g>
				</g>
				<path id="Layer" class="s2" d="m284.66 166.51c-1.78 15.32-16.22 27.41-31.71 25.62c-15.49-1.8-26.59-15.67-24.8-30.99c1.79-15.31 15.82-26.28 31.31-24.49c15.5 1.81 26.98 14.54 25.2 29.86z" />
				<path id="Layer" class="s2" d="m291.1 115.61l-10.71 46.64l-45.58-13.32c15.58-13.97 28.96-28.52 33.98-45.01l22.31 11.69z" />
				<path id="Layer" class="s4" d="m283.98 131.84c0.42 5.43-2.74 14.75-9.93 38.98c-5.02 28.52-38.61 30.74-37.23-3.69c2.44-16.47 18.54-32.53 22.29-37.83c5.03-9.79 23.87-10.84 24.87 2.54z" />
				<path id="Layer" class="s5" d="m255.4 127.38c0 0 0.28 10.11 10.85 16.6c10.57 6.49 17.63 2.34 17.63 2.34l-0.55 6.34c0 0-9.12 3.28-20.26-3.2c-11.14-6.48-10.98-18.09-10.98-18.09l3.31-3.99z" />
				<path id="Layer" class="s2" d="m300.4 108.39c-0.01 12.12-5.33 24.42-13.03 29.59c-1.75 1.17-3.62 1.98-5.57 2.32c-2.15 0.38-4.42 0.2-6.7-0.44c-8.89-2.49-17.98-12.02-21.97-23.16c-1.57-4.36-2.2-8.33-2.04-11.86c0.53-10.89 8.7-17.76 20.88-19.91c12.19-2.14 22.21 1.55 26.38 11.65c1.33 3.26 2.06 7.2 2.05 11.81z" />
				<path id="Layer" class="s2" d="m231.99 93.3c0 0 13.28-4.61 22.54 5.95c1.18 1.34 1.89 4.12-1.33 5.64c-1.8-1.35-11.23 1.87-17.62-1.45c-12.27-6.37-3.59-10.14-3.59-10.14z" />
				<path id="Layer" class="s4" d="m233.76 96.47c0 0 9.62-2.27 16.16 4.13c1.75 1.68-5.01 5.65-13.77 1.58c-8.77-4.08-2.39-5.71-2.39-5.71z" />
				<path id="Layer" class="s2" d="m313.62 90.4c-4.89 5.31-14.87 5.49-16.09 7.37c-3.54-0.34-3.82-3.2-3.16-4.85c5.15-13.06 19.19-13.25 19.19-13.25c0 0 9.46 0.58 0.06 10.73z" />
				<path id="Layer" class="s4" d="m312.66 89.42c-6.87 6.83-14.55 5.39-13.48 3.21c3.99-8.27 13.8-9.4 13.8-9.4c0 0 6.56-0.62-0.32 6.19z" />
				<path id="Layer" class="s6" d="m256.14 38.04c-3.66 15.74-2.4 28.48-0.09 37.46c0.11 0.4 0.21 0.8 0.32 1.18c0.47 1.72 0.97 3.29 1.49 4.69c0.16 0.41 0.31 0.83 0.47 1.22c2.02 5.23 3.99 8.02 3.99 8.02c0 0 0 0.25-0.03 0.63c-0.11 1.39-0.65 4.36-3.55 1.2c-3.77-2.88-6.57-6.84-8.6-11.35c-1.34-2.95-3.85-5.21-6.97-6.05c-6.09-1.65-12.82-5.71-14.23-7.57c-1.85-2.41 2.92-7.64 3.83-6.46c0.71 0.91 4.84 5.91 11.01 8.76c1.27 0.59 2.69-0.51 2.44-1.9c-0.68-3.84-1.06-7.69-1.25-11.32c-5.98-2.74-12.08-7.93-13.07-9.86c-1.24-2.45 5.05-5.7 5.65-4.52c0.37 0.72 2.7 3.27 6.28 6.32c0.61 0.52 1.56 0.09 1.56-0.71c0.06-7.22 0.31-11.57 0.31-11.57c0 0 3.14-1.94 7.39-0.12c0.96 0.41 2 1.04 3.05 1.95z" />
				<path id="Layer" class="s6" d="m264.98 74.34c-0.65 1.78-2.67 5.57-7.09 7.02c-0.24 0.07-0.49 0.14-0.75 0.22c-3.97 0.99-4.11-2.95-3.11-4.95c0.26-0.52 0.61-0.92 0.99-1.06c0 0 0.41 0 1.06-0.08c1.47-0.21 4.16-0.95 6.01-3.56c0.35-0.35 0.68-0.57 0.98-0.68c1.6-0.65 2.48 1.51 1.91 3.09z" />
				<path id="Layer" class="s7" d="m256.08 75.48c1.47-0.21 4.16-0.95 6.01-3.56c0.35-0.35 0.68-0.57 0.98-0.68c-0.74 2.64-4.05 4.58-6.68 5.42c-0.8 0.25-1.54 0.42-2.13 0.46c-0.07-0.07-0.13-0.24-0.22-0.51c-0.85-2.45-2.7-12.66-3.5-19.21c-0.75-6.15 1.77-17.92 2.54-21.32c0.98 0.44 2.02 1.04 3.1 1.94c-3.67 15.76-2.4 28.48-0.1 37.46z" />
				<path id="Layer" class="s7" d="m262.34 90.61c0 0 0 0.25-0.03 0.63c-2.78-1.47-5.68-8.54-5.68-8.54l1.72-0.11c2.02 5.23 3.99 8.02 3.99 8.02z" />
				<path id="Layer" class="s2" d="m251.74 89.2c1.31-3.69 3.64-4.52 7.81-5c4.85-0.56 7.37 8.8 7.37 8.8c0 0-3.9 6.7-10.13 6.27c0 0-6.36-6.38-5.05-10.07z" />
				<path id="Layer" class="s6" d="m295.89 35.05c-0.27 2.14-4.27 9.12-8.97 13.71c0.18 0.62 0.36 1.25 0.55 1.88c0.83 2.93 1.58 6.05 2.11 9.21c0.09 0.48 0.35 0.88 0.71 1.13c0.65 0.44 1.58 0.45 2.23-0.17c4.84-4.78 7.05-10.89 7.41-11.98c0.3-0.91 2.94 0.1 4.56 1.71c0.93 0.9 1.54 2.01 1.2 3.06c-0.71 2.22-5.65 8.34-10.85 11.97c-2.66 1.85-4.25 4.85-4.5 8.07c-0.14 1.63-0.36 3.24-0.71 4.8c-0.7 3.16-1.84 6.12-3.57 8.79c-2.11 5-3.98-0.5-3.98-0.5c0 0 6.31-23.25-11.96-51.58c1.77-3 3.9-4.36 5.7-4.93c2.01-0.66 3.56-0.33 3.56-0.33c0 0 1.49 3.49 3.71 9.51c0.16 0.42 0.3 0.84 0.47 1.27c0.27 0.76 1.32 0.84 1.71 0.15c2.35-4.08 3.66-7.27 3.76-8.07c0.17-1.33 7.18-0.4 6.86 2.3z" />
				<path id="Layer" class="s6" d="m283.91 76.47c-5.09 0.53-8.55-2.6-9.82-4.13c-1.27-1.54-0.9-4.55 1.92-3.25c3.75 2.63 7.88 1.02 7.88 1.02c1.92-0.01 5.18 5.83 0.02 6.36z" />
				<path id="Layer" class="s7" d="m279.38 29.9c0 0 1.49 3.49 3.71 9.51c-2.18 1.2-6.43-7.42-7.27-9.17c2.02-0.67 3.56-0.34 3.56-0.34z" />
				<path id="Layer" class="s7" d="m289.57 59.86c0.09 0.48 0.35 0.88 0.71 1.13c-1.97 1.16-3.6-6.01-4.12-7.48c-0.36-0.99 0.56-2.13 1.3-2.86c0.81 2.94 1.55 6.06 2.11 9.21z" />
				<path id="Layer" class="s7" d="m305.68 53.58c-0.71 2.22-5.65 8.34-10.85 11.97c-2.66 1.85-4.24 4.85-4.5 8.07c-0.14 1.63-0.36 3.24-0.71 4.8c-2.65-10.1 4.26-14.19 8.22-17.27c2.9-2.25 5.45-7.78 6.61-10.64c0.95 0.92 1.56 2.02 1.23 3.07z" />
				<path id="Layer" class="s2" d="m290.22 92.99c-5.72 2.52-11.65-2.45-11.65-2.45c0 0-0.78-9.66 3.96-10.78c4.08-0.97 6.56-0.98 9.03 2.04c2.51 3.01-1.34 11.2-1.34 11.19z" />
				<path id="Layer" class="s4" d="m275.08 139.84c-8.89-2.49-17.98-12.02-21.97-23.16c-1.57-4.36-2.2-8.33-2.04-11.86c2.77-1.03 12.62-3.91 15.78 5.78c2.8 8.61 6.6 22.92 8.23 29.24z" />
				<path id="Layer" class="s4" d="m300.39 108.38c-0.01 12.12-5.33 24.42-13.03 29.59c-0.56-6.34-1.86-21.39-2.13-30.58c-0.3-10.18 9.94-10.82 12.88-10.81c0.07 0 0.14 0 0.21 0c1.36 3.26 2.09 7.2 2.07 11.8z" />
				<path id="Layer" class="s8" d="m261.01 115.16c-0.02 0.01-0.05 0.01-0.08 0.03c-0.21 0.04-0.41-0.11-0.44-0.3c-0.17-1.04-0.51-2-0.91-2.67c-0.32-0.54-0.7-0.86-0.93-0.82c-0.48 0.09-0.95 1.65-0.56 3.92c0.04 0.21-0.11 0.41-0.3 0.44c-0.21 0.04-0.41-0.11-0.44-0.3c-0.38-2.16-0.08-4.57 1.19-4.79c0.59-0.11 1.2 0.31 1.71 1.17c0.46 0.76 0.8 1.8 1.02 2.93c0 0.14-0.09 0.32-0.26 0.39z" />
				<path id="Layer" class="s8" d="m296.02 109.01c-0.02 0.01-0.05 0.01-0.08 0.03c-0.21 0.04-0.41-0.11-0.44-0.3c-0.17-1.04-0.51-2-0.91-2.67c-0.32-0.54-0.7-0.86-0.93-0.82c-0.48 0.09-0.95 1.65-0.56 3.92c0.04 0.21-0.11 0.41-0.3 0.44c-0.21 0.04-0.41-0.11-0.44-0.3c-0.38-2.16-0.08-4.57 1.19-4.79c0.59-0.11 1.2 0.31 1.71 1.17c0.46 0.76 0.81 1.8 1.02 2.93c0.03 0.15-0.1 0.32-0.26 0.39z" />
				<path id="Layer" class="s9" d="m267.53 131.99c-0.45-2.39 1.21-8.13 10.9-9.7c7.47-1.2 12.42 1.56 13.58 5.44c1.42 4.93-3.27 13.81-9.87 14.91c-6.93 1.15-14.39-3.57-14.61-10.65z" />
				<path id="Layer" class="s8" d="m280.14 135.79c-0.02 0.01-0.04 0.01-0.06 0.02c-0.19 0.03-0.37-0.09-0.4-0.28l-1.08-6.41c-0.03-0.19 0.09-0.37 0.28-0.4c0.19-0.03 0.37 0.09 0.4 0.28l1.09 6.42c0.01 0.15-0.07 0.31-0.23 0.37z" />
				<path id="Layer" class="s10" d="m272.41 134.72c3.52 10.15 17.9 6.55 16.17-4.99c-6.58 4.76-15.68 5.06-16.17 4.99z" />
				<path id="Layer" class="s8" d="m283.19 132.89c-0.7 0.26-1.46 0.53-2.27 0.77c-5.43 1.61-9.04 1.2-9.2 1.17c-0.17-0.02-0.31-0.19-0.29-0.37c0.02-0.18 0.19-0.32 0.37-0.3c0.06 0.01 3.67 0.42 8.93-1.15c5.28-1.58 8.03-3.9 8.06-3.92c0.13-0.11 0.35-0.1 0.47 0.04c0.11 0.13 0.1 0.36-0.04 0.47c-0.08 0.08-2.11 1.79-6.03 3.29z" />
				<path id="Layer" class="s11" d="m281.37 129.67c-4.53 1.73-9.6-0.53-11.33-5.05c-1.73-4.52 0.54-9.59 5.07-11.33c4.53-1.73 9.6 0.53 11.33 5.05c1.72 4.52-0.55 9.59-5.07 11.33z" />
				<path id="Layer" class="s12" d="m276.35 120.91c0.15 1.28-0.75 2.44-2.04 2.6c-1.28 0.14-2.45-0.75-2.6-2.04c-0.15-1.28 0.75-2.44 2.04-2.6c1.29-0.16 2.45 0.76 2.6 2.04z" />
			</g>
			<path id="Layer" class="s13" d="m92.82 208.16c-4.2-17.72-0.42-44.09 14.41-63.2c7.45-9.61 17.7-17.38 31.12-21.29c10.05-2.93 21.7-0.91 35.64-1.44c72.48-2.77 75.46 63.12 75.46 63.12c-9.3 80.9-149 55.02-156.63 22.81z" />
			<path id="Layer" fill-rule="evenodd" class="s0" d="m47.83 116.43l2.58 2.52l2.58-2.52c2.09-2.05 2.73-2.52 3.4-2.52c1.27 0 2.28 0.94 2.28 2.12c0 0.88-0.31 1.3-3.03 4.04l-3.03 3.06v5.28c0 2.9 0.1 5.24 0.22 5.19c0.78-0.32 8.59-4.97 8.8-5.24c0.15-0.18 0.72-2.06 1.28-4.17c0.7-2.67 1.19-3.99 1.58-4.32c1.29-1.09 3.54-0.14 3.54 1.48c0 0.43-0.37 2.15-0.83 3.83c-0.46 1.68-0.8 3.09-0.76 3.13c0.04 0.04 1.32 0.4 2.83 0.8c3.82 1.01 4.28 1.22 4.68 2.17c0.41 0.98 0.08 2.23-0.7 2.65c-0.83 0.44-1.86 0.31-5.64-0.71l-3.61-0.98l-4.61 2.67c-2.98 1.72-4.48 2.74-4.25 2.87c0.19 0.11 2.26 1.31 4.59 2.66l4.23 2.45l3.48-0.94c4.92-1.32 5-1.33 5.89-0.64c0.59 0.46 0.76 0.82 0.76 1.62c0 1.49-0.76 2-4.37 2.98c-1.72 0.47-3.17 0.89-3.23 0.95c-0.06 0.05 0.26 1.45 0.71 3.1c0.45 1.65 0.82 3.35 0.82 3.77c0 1.56-2.12 2.68-3.33 1.76c-0.68-0.52-0.93-1.17-1.9-4.9c-0.49-1.91-0.98-3.59-1.07-3.74c-0.17-0.27-7.94-4.87-8.72-5.17c-0.34-0.13-0.4 0.61-0.4 5.14v5.29l3.03 3.06c2.58 2.6 3.03 3.18 3.03 3.93c0 1.09-1.06 2.22-2.09 2.22c-0.56 0-1.38-0.62-3.45-2.65l-2.72-2.65l-2.72 2.65c-2.07 2.02-2.89 2.65-3.45 2.65c-1.03 0-2.09-1.12-2.09-2.22c0-0.75 0.45-1.32 3.03-3.93l3.03-3.06v-5.26c0-2.89-0.08-5.26-0.17-5.26c-0.29 0-8.77 4.99-8.95 5.27c-0.09 0.14-0.57 1.82-1.07 3.73c-0.97 3.73-1.22 4.38-1.9 4.9c-1.21 0.92-3.33-0.2-3.33-1.76c0-0.42 0.37-2.12 0.82-3.77c0.48-1.74 0.71-3.07 0.56-3.16c-0.14-0.09-1.62-0.52-3.3-0.96c-3.42-0.9-4.23-1.47-4.19-2.94c0.02-0.98 1.09-2.14 1.93-2.12c0.26 0.01 2.2 0.49 4.32 1.07l3.86 1.05l1.51-0.85c0.83-0.47 2.91-1.67 4.62-2.67l3.11-1.82l-4.58-2.65l-4.58-2.65l-4.06 1.06c-3.61 0.94-4.16 1.02-4.9 0.71c-1.69-0.71-1.63-3.25 0.09-3.91c0.43-0.17 2.03-0.63 3.54-1.03c1.51-0.4 2.78-0.75 2.81-0.78c0.03-0.03-0.31-1.45-0.76-3.16c-0.45-1.7-0.82-3.42-0.82-3.8c0-1.48 1.87-2.45 3.28-1.7c0.64 0.34 0.9 1.03 2.06 5.31c0.52 1.94 0.99 3.55 1.04 3.59c0.19 0.14 8.6 4.95 8.82 5.04c0.12 0.05 0.22-2.28 0.22-5.19v-5.28l-3.03-3.06c-2.58-2.6-3.03-3.18-3.03-3.93c0-0.57 0.24-1.12 0.68-1.55c1.29-1.29 2.11-0.99 5.03 1.85z" />
			<path id="Layer" fill-rule="evenodd" class="s0" d="m48.88 287.24c1.36 0.27 1.52 0.73 1.52 4.28c0 1.74 0.08 3.17 0.17 3.17c0.1 0 1.33-0.66 2.75-1.48c3.21-1.85 4.21-1.92 4.76-0.34c0.47 1.38 0.1 1.78-3.54 3.86c-1.16 0.65-2.1 1.23-2.1 1.27c0 0.04 1.11 0.7 2.46 1.47c2.81 1.6 3.28 2.03 3.28 3.03c0 0.82-0.93 1.79-1.71 1.79c-0.26 0-1.67-0.66-3.13-1.48c-1.46-0.81-2.72-1.48-2.8-1.48c-0.07 0-0.14 1.37-0.14 3.06c0 1.68-0.06 3.23-0.14 3.43c-0.16 0.42-1.23 1.04-1.79 1.04c-0.2 0-0.67-0.3-1.03-0.67l-0.66-0.67v-3.1c0-1.71-0.05-3.1-0.12-3.1c-0.07 0-1.28 0.66-2.69 1.48c-1.42 0.81-2.84 1.48-3.18 1.48c-1.23 0-2.11-1.59-1.5-2.73c0.12-0.22 1.27-1 2.55-1.73c1.28-0.73 2.52-1.45 2.74-1.6c0.36-0.24 0.11-0.45-2.14-1.72c-1.41-0.79-2.74-1.63-2.96-1.85c-0.94-0.95-0.05-2.92 1.32-2.92c0.34 0 1.76 0.66 3.19 1.48c1.41 0.81 2.62 1.48 2.68 1.48c0.06 0 0.11-1.39 0.11-3.1v-3.1l0.69-0.69c0.58-0.59 0.81-0.68 1.41-0.56z" />
			<path id="Layer" fill-rule="evenodd" class="s0" d="m142.33 236.14c0.77 0.16 0.86 0.42 0.86 2.47c0 1.01 0.05 1.83 0.1 1.83c0.05 0 0.75-0.39 1.55-0.86c1.81-1.06 2.38-1.1 2.69-0.19c0.27 0.8 0.06 1.03-2 2.23c-0.65 0.39-1.18 0.72-1.18 0.74c0 0.03 0.63 0.41 1.39 0.85c1.6 0.92 1.86 1.17 1.86 1.75c0 0.47-0.52 1.03-0.96 1.03c-0.15 0-0.94-0.39-1.77-0.86c-0.82-0.47-1.54-0.86-1.58-0.86c-0.04 0-0.08 0.8-0.08 1.77c0 0.97-0.04 1.86-0.08 1.98c-0.09 0.24-0.69 0.6-1.01 0.6c-0.11 0-0.37-0.17-0.58-0.38l-0.37-0.39v-1.79c0-0.98-0.03-1.79-0.07-1.79c-0.04 0-0.72 0.39-1.52 0.86c-0.79 0.48-1.6 0.86-1.79 0.86c-0.7 0-1.19-0.91-0.85-1.57c0.07-0.13 0.72-0.58 1.44-1c0.73-0.42 1.42-0.83 1.55-0.92c0.2-0.14 0.06-0.25-1.21-0.99c-0.79-0.46-1.54-0.94-1.67-1.07c-0.53-0.54-0.02-1.68 0.75-1.68c0.19 0 0.99 0.38 1.8 0.86c0.8 0.47 1.49 0.86 1.52 0.86c0.03 0 0.06-0.81 0.06-1.79v-1.79l0.39-0.4c0.33-0.34 0.46-0.39 0.76-0.36z" />
			<path id="Layer" class="s0" d="m99.88 275.66c-1.38 0-2.5-1.12-2.5-2.5c0-1.38 1.12-2.5 2.5-2.5c1.38 0 2.5 1.12 2.5 2.5c0 1.38-1.12 2.5-2.5 2.5z" />
			<path id="Layer" class="s0" d="m33.31 236.38c-2.3 0-4.16-1.86-4.16-4.16c0-2.3 1.86-4.16 4.16-4.16c2.3 0 4.16 1.86 4.16 4.16c0 2.3-1.86 4.16-4.16 4.16z" />
			<path id="Layer" fill-rule="evenodd" class="s0" d="m59.78 446.32l3.03 2.96l3.03-2.96c2.46-2.4 3.21-2.96 4-2.96c1.5 0 2.68 1.1 2.68 2.49c0 1.03-0.36 1.52-3.56 4.74l-3.56 3.59v6.21c0 3.41 0.12 6.16 0.26 6.1c0.92-0.38 10.1-5.84 10.35-6.16c0.17-0.22 0.84-2.42 1.5-4.9c0.83-3.12 1.4-4.68 1.86-5.07c1.51-1.28 4.16-0.17 4.16 1.74c0 0.5-0.44 2.52-0.98 4.5c-0.54 1.97-0.94 3.63-0.89 3.67c0.05 0.05 1.55 0.47 3.33 0.94c4.48 1.19 5.03 1.44 5.5 2.55c0.49 1.15 0.1 2.63-0.82 3.12c-0.98 0.52-2.19 0.37-6.63-0.83l-4.24-1.15l-5.42 3.14c-3.5 2.03-5.27 3.23-5 3.38c0.23 0.13 2.66 1.53 5.4 3.12l4.98 2.88l4.09-1.1c5.78-1.55 5.88-1.57 6.92-0.75c0.69 0.54 0.89 0.97 0.89 1.91c0 1.76-0.88 2.36-5.13 3.51c-2.02 0.54-3.72 1.04-3.79 1.11c-0.07 0.06 0.31 1.7 0.84 3.64c0.53 1.94 0.96 3.93 0.96 4.43c0 1.84-2.49 3.16-3.91 2.07c-0.79-0.61-1.09-1.38-2.23-5.76c-0.58-2.24-1.15-4.22-1.26-4.39c-0.2-0.32-9.33-5.73-10.25-6.08c-0.4-0.15-0.47 0.72-0.47 6.04v6.22l3.56 3.59c3.04 3.06 3.56 3.74 3.56 4.62c0 1.29-1.25 2.61-2.46 2.61c-0.66 0-1.62-0.74-4.06-3.12l-3.19-3.12l-3.19 3.12c-2.44 2.38-3.4 3.12-4.06 3.12c-1.22 0-2.46-1.32-2.46-2.61c0-0.88 0.52-1.56 3.56-4.62l3.56-3.59v-6.18c0-3.4-0.09-6.18-0.2-6.18c-0.34 0-10.31 5.86-10.52 6.19c-0.11 0.17-0.68 2.15-1.26 4.39c-1.14 4.39-1.43 5.15-2.23 5.76c-1.42 1.08-3.91-0.24-3.91-2.07c0-0.5 0.43-2.49 0.96-4.43c0.56-2.05 0.84-3.61 0.66-3.72c-0.16-0.1-1.91-0.61-3.88-1.13c-4.03-1.06-4.98-1.73-4.93-3.46c0.03-1.14 1.28-2.52 2.27-2.49c0.3 0 2.59 0.57 5.08 1.25l4.53 1.24l1.78-1c0.98-0.56 3.42-1.97 5.43-3.14l3.65-2.14l-5.38-3.11l-5.38-3.11l-4.77 1.25c-4.24 1.11-4.88 1.2-5.75 0.84c-1.98-0.83-1.91-3.81 0.11-4.59c0.52-0.19 2.39-0.74 4.17-1.21c1.78-0.47 3.27-0.88 3.31-0.92c0.04-0.04-0.36-1.71-0.89-3.72c-0.53-2.01-0.96-4.02-0.96-4.47c0-1.74 2.2-2.88 3.86-2c0.75 0.4 1.06 1.21 2.42 6.24c0.61 2.28 1.16 4.18 1.22 4.22c0.21 0.17 10.11 5.83 10.36 5.93c0.14 0.06 0.26-2.68 0.26-6.1v-6.21l-3.56-3.59c-3.04-3.06-3.56-3.74-3.56-4.62c0-0.66 0.28-1.31 0.79-1.82c1.52-1.51 2.48-1.15 5.86 2.15z" />
			<path id="Layer" class="s0" d="m96.6 527.99c-1.38 0-2.5-1.12-2.5-2.5c0-1.38 1.12-2.5 2.5-2.5c1.38 0 2.5 1.12 2.5 2.5c0 1.38-1.12 2.5-2.5 2.5z" />
			<path id="Layer" class="s0" d="m126.95 475.37c-2.3 0-4.16-1.86-4.16-4.16c0-2.3 1.86-4.16 4.16-4.16c2.3 0 4.16 1.86 4.16 4.16c0 2.3-1.86 4.16-4.16 4.16z" />
			<path id="Layer" class="s0" d="m33.31 368.78c-2.3 0-4.16-1.86-4.16-4.16c0-2.3 1.86-4.16 4.16-4.16c2.3 0 4.16 1.86 4.16 4.16c0 2.3-1.86 4.16-4.16 4.16z" />
			<path id="Layer" fill-rule="evenodd" class="s0" d="m163.07 497.01c0.77 0.16 0.86 0.42 0.86 2.47c0 1.01 0.05 1.83 0.1 1.83c0.05 0 0.75-0.39 1.55-0.86c1.81-1.06 2.38-1.1 2.69-0.19c0.27 0.8 0.06 1.03-2 2.23c-0.65 0.39-1.18 0.71-1.18 0.74c0 0.03 0.63 0.41 1.39 0.85c1.59 0.92 1.85 1.17 1.85 1.75c0 0.47-0.52 1.03-0.96 1.03c-0.15 0-0.94-0.39-1.77-0.86c-0.82-0.47-1.54-0.86-1.58-0.86c-0.04 0-0.08 0.8-0.08 1.77c0 0.97-0.04 1.86-0.08 1.98c-0.09 0.24-0.69 0.6-1.01 0.6c-0.11 0-0.37-0.17-0.58-0.38l-0.37-0.39v-1.79c0-0.98-0.03-1.79-0.07-1.79c-0.04 0-0.72 0.39-1.52 0.86c-0.79 0.48-1.6 0.86-1.79 0.86c-0.7 0-1.19-0.91-0.85-1.57c0.07-0.13 0.72-0.58 1.44-1c0.73-0.42 1.42-0.83 1.55-0.92c0.21-0.14 0.06-0.25-1.21-0.99c-0.79-0.46-1.54-0.94-1.67-1.07c-0.53-0.54-0.02-1.68 0.75-1.68c0.19 0 0.99 0.38 1.8 0.86c0.8 0.47 1.49 0.86 1.52 0.86c0.03 0 0.06-0.81 0.06-1.79v-1.79l0.39-0.4c0.33-0.33 0.46-0.38 0.77-0.36z" />
			<path id="Layer" fill-rule="evenodd" class="s0" d="m282 242.39c-0.78 0.07-0.94-0.16-1.53-2.12c-0.29-0.96-0.57-1.74-0.62-1.72c-0.05 0.02-0.61 0.59-1.24 1.27c-1.43 1.54-1.96 1.74-2.52 0.96c-0.48-0.69-0.35-0.97 1.28-2.71c0.51-0.55 0.93-1.02 0.92-1.04c0-0.02-0.71-0.21-1.57-0.41c-1.79-0.42-2.11-0.59-2.28-1.14c-0.13-0.46 0.21-1.14 0.63-1.27c0.14-0.04 1.01 0.1 1.94 0.31c0.92 0.22 1.72 0.38 1.76 0.37c0.04-0.02-0.15-0.79-0.43-1.72c-0.28-0.93-0.5-1.8-0.49-1.92c0.02-0.25 0.5-0.77 0.8-0.86c0.11-0.03 0.41 0.06 0.67 0.2l0.47 0.26l0.51 1.71c0.28 0.94 0.54 1.7 0.58 1.69c0.04-0.01 0.58-0.58 1.21-1.26c0.63-0.69 1.29-1.29 1.47-1.34c0.67-0.2 1.41 0.53 1.27 1.26c-0.02 0.14-0.52 0.76-1.09 1.37c-0.58 0.61-1.12 1.21-1.22 1.33c-0.15 0.19 0.02 0.26 1.45 0.6c0.89 0.22 1.75 0.46 1.91 0.55c0.67 0.37 0.51 1.61-0.23 1.83c-0.18 0.06-1.06-0.08-1.97-0.3c-0.9-0.22-1.67-0.39-1.7-0.38c-0.04 0.01 0.17 0.79 0.45 1.73l0.51 1.71l-0.26 0.5c-0.21 0.42-0.32 0.5-0.68 0.54z" />
			<path id="Layer" class="s0" d="m241.45 254.38c-2.3 0-4.16-1.86-4.16-4.16c0-2.3 1.86-4.16 4.16-4.16c2.3 0 4.16 1.86 4.16 4.16c0 2.3-1.86 4.16-4.16 4.16z" />
			<path id="Layer" class="s0" d="m341.78 333.05c-2.3 0-4.16-1.86-4.16-4.16c0-2.3 1.86-4.16 4.16-4.16c2.3 0 4.16 1.86 4.16 4.16c0 2.3-1.86 4.16-4.16 4.16z" />
			<path id="Layer" fill-rule="evenodd" class="s0" d="m333.32 438.82c-0.78 0.07-0.94-0.16-1.53-2.12c-0.29-0.96-0.57-1.74-0.62-1.72c-0.05 0.02-0.61 0.59-1.24 1.27c-1.43 1.54-1.96 1.74-2.52 0.96c-0.48-0.69-0.35-0.97 1.28-2.71c0.51-0.55 0.93-1.02 0.92-1.04c0-0.02-0.71-0.21-1.57-0.41c-1.79-0.42-2.11-0.59-2.28-1.14c-0.13-0.46 0.21-1.14 0.63-1.27c0.14-0.04 1.01 0.1 1.94 0.31c0.92 0.22 1.72 0.38 1.76 0.37c0.04-0.02-0.15-0.79-0.43-1.72c-0.28-0.93-0.5-1.8-0.49-1.92c0.02-0.25 0.5-0.77 0.8-0.86c0.11-0.03 0.41 0.06 0.67 0.2l0.47 0.26l0.51 1.71c0.28 0.94 0.54 1.7 0.58 1.69c0.04-0.01 0.58-0.58 1.21-1.26c0.63-0.69 1.29-1.29 1.47-1.34c0.67-0.2 1.41 0.53 1.27 1.26c-0.02 0.14-0.52 0.76-1.09 1.37c-0.58 0.61-1.12 1.21-1.22 1.33c-0.15 0.19 0.02 0.26 1.45 0.6c0.89 0.22 1.75 0.46 1.91 0.55c0.67 0.37 0.51 1.61-0.23 1.83c-0.18 0.06-1.06-0.08-1.97-0.3c-0.9-0.22-1.67-0.39-1.7-0.38c-0.04 0.01 0.17 0.79 0.45 1.73l0.51 1.71l-0.26 0.5c-0.21 0.41-0.32 0.5-0.68 0.54z" />
			<path id="Layer" fill-rule="evenodd" class="s0" d="m333.39 158.34c-0.78 0.07-0.94-0.16-1.53-2.12c-0.29-0.96-0.57-1.74-0.62-1.72c-0.05 0.02-0.61 0.59-1.24 1.27c-1.43 1.54-1.96 1.74-2.52 0.96c-0.48-0.69-0.35-0.97 1.28-2.71c0.51-0.55 0.93-1.02 0.92-1.04c0-0.02-0.71-0.21-1.57-0.41c-1.79-0.42-2.11-0.59-2.28-1.14c-0.13-0.46 0.21-1.14 0.63-1.27c0.14-0.04 1.01 0.1 1.94 0.31c0.92 0.22 1.72 0.38 1.76 0.37c0.04-0.02-0.15-0.79-0.43-1.72c-0.28-0.93-0.5-1.8-0.49-1.92c0.02-0.25 0.5-0.77 0.8-0.86c0.11-0.03 0.41 0.06 0.67 0.2l0.47 0.26l0.51 1.71c0.28 0.94 0.54 1.7 0.58 1.69c0.04-0.01 0.58-0.58 1.21-1.26c0.63-0.69 1.29-1.29 1.47-1.34c0.67-0.2 1.41 0.53 1.27 1.26c-0.02 0.14-0.52 0.76-1.09 1.37c-0.58 0.61-1.12 1.21-1.22 1.33c-0.15 0.19 0.02 0.26 1.45 0.6c0.89 0.22 1.75 0.46 1.91 0.55c0.67 0.37 0.51 1.61-0.23 1.83c-0.18 0.06-1.06-0.08-1.97-0.3c-0.9-0.22-1.67-0.39-1.7-0.38c-0.04 0.01 0.17 0.79 0.45 1.73l0.51 1.71l-0.26 0.5c-0.22 0.41-0.33 0.5-0.68 0.54z" />
			<path id="Layer" fill-rule="evenodd" class="s0" d="m239.81 540.48l-3.75-1.96l-2.05 3.7c-1.66 3-2.22 3.75-2.98 3.98c-1.43 0.42-2.88-0.29-3.28-1.62c-0.3-1-0.09-1.56 2.05-5.57l2.38-4.46l-1.78-5.95c-0.98-3.27-1.88-5.87-2-5.77c-0.77 0.62-7.99 8.5-8.14 8.87c-0.1 0.25-0.11 2.55-0.03 5.12c0.1 3.23 0 4.88-0.33 5.39c-1.08 1.65-3.93 1.35-4.48-0.48c-0.14-0.48-0.3-2.54-0.35-4.59c-0.05-2.04-0.14-3.74-0.2-3.77c-0.06-0.03-1.62 0-3.46 0.06c-4.63 0.16-5.23 0.07-6-0.86c-0.8-0.96-0.85-2.49-0.11-3.22c0.79-0.78 1.99-0.99 6.59-1.11l4.39-0.12l4.29-4.56c2.77-2.95 4.13-4.6 3.82-4.67c-0.26-0.06-2.99-0.71-6.07-1.44l-5.6-1.33l-3.6 2.23c-5.09 3.15-5.18 3.19-6.41 2.71c-0.81-0.32-1.13-0.67-1.4-1.57c-0.5-1.68 0.17-2.51 3.91-4.83c1.78-1.1 3.28-2.07 3.32-2.15c0.05-0.08-0.79-1.54-1.85-3.25c-1.06-1.7-2.05-3.49-2.19-3.96c-0.53-1.75 1.48-3.73 3.15-3.1c0.93 0.35 1.44 1 3.79 4.87c1.2 1.98 2.31 3.71 2.47 3.85c0.28 0.24 10.58 2.81 11.56 2.88c0.43 0.03 0.25-0.82-1.28-5.92l-1.79-5.96l-4.44-2.42c-3.79-2.06-4.49-2.56-4.74-3.4c-0.38-1.24 0.44-2.86 1.6-3.21c0.64-0.19 1.77 0.24 4.79 1.82l3.95 2.07l2.16-3.91c1.65-2.98 2.35-3.96 2.99-4.15c1.16-0.34 2.73 0.56 3.1 1.8c0.26 0.84-0.05 1.64-2.08 5.45l-2.38 4.46l1.78 5.92c0.98 3.26 1.87 5.9 1.97 5.87c0.33-0.09 8.19-8.58 8.3-8.95c0.06-0.19 0.03-2.25-0.05-4.56c-0.16-4.53-0.1-5.35 0.49-6.16c1.05-1.45 3.82-0.9 4.34 0.86c0.14 0.47 0.3 2.51 0.35 4.52c0.06 2.12 0.24 3.7 0.44 3.75c0.19 0.05 2.01 0.04 4.04-0.03c4.16-0.14 5.26 0.23 5.71 1.9c0.3 1.11-0.51 2.78-1.46 3.04c-0.3 0.08-2.65 0.2-5.23 0.26l-4.7 0.11l-1.42 1.47c-0.78 0.81-2.71 2.86-4.3 4.56l-2.89 3.09l6.05 1.44l6.05 1.44l4.21-2.57c3.74-2.29 4.33-2.56 5.27-2.46c2.14 0.23 2.93 3.1 1.22 4.43c-0.43 0.34-2.07 1.4-3.64 2.36c-1.57 0.96-2.87 1.78-2.9 1.83c-0.03 0.05 0.84 1.54 1.92 3.31c1.08 1.77 2.07 3.58 2.2 4.01c0.5 1.67-1.28 3.4-3.12 3.03c-0.83-0.17-1.36-0.86-4.11-5.29c-1.24-2-2.31-3.66-2.38-3.69c-0.25-0.09-11.36-2.67-11.63-2.7c-0.16-0.02 0.52 2.65 1.5 5.92l1.78 5.95l4.44 2.42c3.79 2.06 4.49 2.56 4.74 3.4c0.19 0.63 0.1 1.33-0.24 1.97c-1.02 1.88-2.04 1.82-6.27-0.4z" />
			<path id="Layer" fill-rule="evenodd" class="s0" d="m278.09 460.7c-0.78 0.07-0.94-0.16-1.53-2.12c-0.29-0.96-0.57-1.74-0.62-1.72c-0.05 0.02-0.61 0.59-1.24 1.27c-1.43 1.54-1.96 1.74-2.52 0.96c-0.48-0.69-0.35-0.97 1.28-2.71c0.51-0.55 0.93-1.02 0.92-1.04c0-0.02-0.71-0.21-1.57-0.41c-1.79-0.42-2.11-0.59-2.28-1.14c-0.13-0.46 0.21-1.14 0.63-1.27c0.14-0.04 1.01 0.1 1.94 0.31c0.92 0.22 1.72 0.38 1.76 0.37c0.04-0.02-0.15-0.79-0.43-1.72c-0.28-0.93-0.5-1.8-0.49-1.92c0.02-0.25 0.5-0.77 0.8-0.86c0.11-0.03 0.41 0.06 0.67 0.2l0.47 0.26l0.51 1.71c0.28 0.94 0.54 1.7 0.58 1.69c0.04-0.01 0.58-0.58 1.21-1.26c0.63-0.69 1.29-1.29 1.47-1.34c0.67-0.2 1.41 0.53 1.27 1.26c-0.02 0.14-0.52 0.76-1.09 1.37c-0.58 0.61-1.12 1.21-1.22 1.33c-0.15 0.19 0.02 0.26 1.45 0.6c0.89 0.22 1.75 0.46 1.91 0.55c0.67 0.37 0.51 1.61-0.23 1.83c-0.18 0.06-1.06-0.08-1.97-0.3c-0.9-0.22-1.67-0.39-1.7-0.38c-0.04 0.01 0.17 0.79 0.45 1.73l0.51 1.71l-0.26 0.5c-0.21 0.42-0.32 0.5-0.68 0.54z" />
			<path id="Layer" fill-rule="evenodd" class="s0" d="m168.02 436.34c-2.1 0.2-2.54-0.41-4.11-5.64c-0.77-2.57-1.51-4.64-1.65-4.6c-0.14 0.04-1.64 1.57-3.35 3.39c-3.86 4.13-5.29 4.67-6.78 2.58c-1.3-1.82-0.94-2.58 3.45-7.23c1.39-1.47 2.51-2.73 2.49-2.79c-0.01-0.06-1.92-0.55-4.23-1.09c-4.8-1.12-5.68-1.56-6.12-3.03c-0.36-1.21 0.56-3.04 1.7-3.38c0.38-0.11 2.73 0.26 5.22 0.82c2.49 0.56 4.62 0.99 4.74 0.96c0.12-0.04-0.4-2.1-1.14-4.58c-0.74-2.48-1.33-4.79-1.31-5.12c0.04-0.68 1.33-2.07 2.15-2.31c0.3-0.09 1.11 0.15 1.8 0.53l1.26 0.69l1.37 4.57c0.76 2.52 1.45 4.55 1.55 4.52c0.1-0.03 1.56-1.54 3.26-3.36c1.7-1.82 3.48-3.42 3.97-3.57c1.8-0.54 3.78 1.41 3.4 3.36c-0.08 0.39-1.4 2.04-2.95 3.67c-1.55 1.63-3.03 3.23-3.29 3.55c-0.41 0.52 0.05 0.7 3.89 1.6c2.4 0.56 4.71 1.21 5.13 1.44c1.79 0.98 1.36 4.28-0.64 4.88c-0.49 0.15-2.85-0.2-5.3-0.79c-2.42-0.59-4.47-1.05-4.56-1.02c-0.09 0.03 0.46 2.11 1.21 4.62l1.37 4.57l-0.7 1.32c-0.58 1.11-0.88 1.34-1.83 1.44z" />
			<path id="Layer" class="s0" d="m239.14 406.8c-1.38 0-2.5-1.12-2.5-2.5c0-1.38 1.12-2.5 2.5-2.5c1.38 0 2.5 1.12 2.5 2.5c0 1.38-1.12 2.5-2.5 2.5z" />
			<path id="Layer" class="s0" d="m310.29 394.63c-1.38 0-2.5-1.12-2.5-2.5c0-1.38 1.12-2.5 2.5-2.5c1.38 0 2.5 1.12 2.5 2.5c0 1.38-1.12 2.5-2.5 2.5z" />
			<path id="Layer" class="s0" d="m228.36 450.81c-2.3 0-4.16-1.86-4.16-4.16c0-2.3 1.86-4.16 4.16-4.16c2.3 0 4.16 1.86 4.16 4.16c0 2.3-1.86 4.16-4.16 4.16z" />
			<path id="Layer" fill-rule="evenodd" class="s0" d="m324.71 508.04c-2.1 0.2-2.54-0.41-4.11-5.64c-0.77-2.57-1.51-4.64-1.65-4.6c-0.14 0.04-1.64 1.57-3.35 3.39c-3.86 4.13-5.29 4.67-6.78 2.58c-1.3-1.82-0.94-2.58 3.45-7.23c1.39-1.47 2.51-2.73 2.49-2.79c-0.01-0.06-1.92-0.55-4.23-1.09c-4.8-1.12-5.68-1.56-6.12-3.03c-0.36-1.21 0.56-3.04 1.7-3.38c0.38-0.11 2.73 0.26 5.22 0.82c2.49 0.56 4.62 0.99 4.74 0.96c0.12-0.04-0.4-2.1-1.14-4.58c-0.74-2.48-1.33-4.79-1.31-5.12c0.04-0.68 1.33-2.07 2.15-2.31c0.3-0.09 1.11 0.15 1.8 0.53l1.26 0.69l1.37 4.57c0.76 2.52 1.45 4.55 1.55 4.52c0.1-0.03 1.56-1.54 3.26-3.36c1.7-1.82 3.48-3.42 3.97-3.57c1.8-0.54 3.78 1.41 3.4 3.36c-0.08 0.39-1.4 2.04-2.95 3.67c-1.55 1.63-3.03 3.23-3.29 3.55c-0.41 0.52 0.05 0.7 3.89 1.6c2.4 0.56 4.71 1.21 5.13 1.44c1.79 0.98 1.36 4.28-0.64 4.88c-0.49 0.15-2.85-0.2-5.3-0.79c-2.42-0.59-4.47-1.05-4.56-1.02c-0.09 0.03 0.46 2.11 1.21 4.62l1.37 4.57l-0.7 1.32c-0.59 1.11-0.88 1.34-1.83 1.44z" />
			<path id="Layer" fill-rule="evenodd" class="s0" d="m53.89 49.72c0.25-2.09 0.94-2.39 6.39-2.8c2.67-0.2 4.85-0.48 4.84-0.62c-0.01-0.14-1.18-1.94-2.59-4c-3.2-4.66-3.42-6.17-1.06-7.18c2.05-0.88 2.72-0.36 6.32 4.92c1.14 1.67 2.13 3.03 2.19 3.03c0.06 0 0.95-1.76 1.97-3.9c2.12-4.45 2.73-5.21 4.27-5.33c1.26-0.1 2.85 1.2 2.94 2.38c0.03 0.39-0.83 2.61-1.92 4.92c-1.09 2.31-1.97 4.3-1.96 4.42c0.01 0.12 2.13 0.06 4.72-0.13c2.58-0.19 4.96-0.27 5.28-0.18c0.66 0.19 1.74 1.75 1.8 2.6c0.02 0.31-0.39 1.04-0.91 1.64l-0.95 1.08l-4.76 0.36c-2.61 0.19-4.75 0.44-4.74 0.54c0 0.11 1.17 1.86 2.58 3.91c1.42 2.06 2.6 4.14 2.64 4.65c0.14 1.88-2.19 3.39-4.01 2.6c-0.36-0.16-1.69-1.81-2.95-3.67c-1.26-1.86-2.51-3.65-2.77-3.97c-0.42-0.52-0.7-0.11-2.4 3.45c-1.06 2.22-2.19 4.34-2.51 4.7c-1.35 1.53-4.47 0.41-4.63-1.67c-0.04-0.52 0.81-2.75 1.91-5.01c1.09-2.24 1.98-4.15 1.97-4.24c-0.01-0.09-2.15-0.01-4.77 0.19l-4.76 0.36l-1.14-0.97c-0.96-0.81-1.13-1.15-0.99-2.08z" />
			<path id="Layer" class="s0" d="m214.71 138.44c-1.38 0-2.5-1.12-2.5-2.5c0-1.38 1.12-2.5 2.5-2.5c1.38 0 2.5 1.12 2.5 2.5c0 1.38-1.12 2.5-2.5 2.5z" />
			<path id="Layer" class="s0" d="m29.14 94.78c-2.3 0-4.16-1.86-4.16-4.16c0-2.3 1.86-4.16 4.16-4.16c2.3 0 4.16 1.86 4.16 4.16c0 2.3-1.86 4.16-4.16 4.16z" />
			<path id="Layer" fill-rule="evenodd" class="s0" d="m323.14 264.5c2.06 0.41 2.31 1.12 2.31 6.58c0 2.69 0.12 4.88 0.26 4.88c0.14 0 2.02-1.03 4.18-2.28c4.88-2.84 6.41-2.95 7.24-0.52c0.72 2.11 0.16 2.73-5.38 5.93c-1.76 1.01-3.19 1.9-3.19 1.96c0 0.06 1.68 1.08 3.74 2.26c4.28 2.45 4.99 3.12 4.99 4.66c0 1.26-1.41 2.75-2.6 2.75c-0.39 0-2.54-1.02-4.76-2.28c-2.22-1.25-4.14-2.28-4.26-2.28c-0.12 0-0.22 2.12-0.22 4.71c0 2.59-0.09 4.97-0.21 5.28c-0.25 0.64-1.88 1.6-2.73 1.6c-0.31 0-1.02-0.47-1.57-1.03l-1.01-1.03v-4.77c0-2.62-0.08-4.77-0.18-4.77c-0.1 0-1.94 1.02-4.09 2.28c-2.15 1.26-4.32 2.28-4.83 2.28c-1.88 0-3.21-2.45-2.29-4.2c0.18-0.35 1.93-1.55 3.88-2.67c1.95-1.12 3.83-2.22 4.17-2.46c0.55-0.38 0.17-0.69-3.26-2.65c-2.13-1.22-4.16-2.5-4.5-2.85c-1.43-1.45-0.07-4.49 2.01-4.49c0.52 0 2.68 1.01 4.85 2.28c2.15 1.25 3.98 2.28 4.08 2.28c0.1 0 0.17-2.15 0.17-4.77v-4.77l1.05-1.07c0.88-0.89 1.23-1.03 2.15-0.84z" />
			<path id="Layer" fill-rule="evenodd" class="s0" d="m79.88 407.8c-0.78 0.07-0.94-0.16-1.53-2.12c-0.29-0.96-0.57-1.74-0.62-1.72c-0.05 0.02-0.61 0.59-1.24 1.27c-1.43 1.54-1.96 1.74-2.52 0.96c-0.48-0.69-0.35-0.97 1.28-2.71c0.51-0.55 0.93-1.02 0.92-1.04c0-0.02-0.71-0.21-1.57-0.41c-1.79-0.42-2.11-0.59-2.28-1.14c-0.13-0.46 0.21-1.14 0.63-1.27c0.14-0.04 1.01 0.1 1.94 0.31c0.92 0.22 1.72 0.38 1.76 0.37c0.04-0.02-0.15-0.79-0.43-1.72c-0.28-0.93-0.5-1.8-0.49-1.92c0.02-0.25 0.5-0.77 0.8-0.86c0.11-0.03 0.41 0.06 0.67 0.2l0.47 0.26l0.51 1.71c0.28 0.94 0.54 1.7 0.58 1.69c0.04-0.01 0.58-0.58 1.21-1.26c0.63-0.69 1.29-1.29 1.47-1.34c0.67-0.2 1.41 0.53 1.27 1.26c-0.02 0.14-0.52 0.76-1.09 1.37c-0.58 0.61-1.12 1.21-1.22 1.33c-0.15 0.19 0.02 0.26 1.45 0.6c0.89 0.22 1.75 0.46 1.91 0.55c0.67 0.37 0.51 1.61-0.23 1.83c-0.18 0.06-1.06-0.08-1.97-0.3c-0.9-0.22-1.67-0.39-1.7-0.38c-0.04 0.01 0.17 0.79 0.45 1.73l0.51 1.71l-0.26 0.5c-0.22 0.42-0.33 0.51-0.68 0.54z" />
			<path id="Layer" class="s14" d="m228.67 173.05c-10.98-8.43 4.49-28.72 21.13-22.79c16.65 5.93 11.3 22.79 11.3 22.79c-4.57 8.43-21.44 8.43-32.43 0z" />
			<path id="Layer" class="s15" d="m242.63 154.32c13.16 0 23.83 8.69 23.83 19.42c0 10.73-10.67 19.42-23.83 19.42c-13.16 0-23.83-8.7-23.83-19.42c0-10.73 10.67-19.42 23.83-19.42z" />
			<path id="Layer" class="s14" d="m87 173.05c0 0-5.34-16.86 11.3-22.79c16.64-5.94 32.11 14.36 21.13 22.79c-10.98 8.43-27.85 8.43-32.43 0z" />
			<path id="Layer" class="s15" d="m129.31 173.74c0 10.73-10.67 19.42-23.83 19.42c-13.16 0-23.83-8.69-23.83-19.42c0-10.73 10.67-19.42 23.83-19.42c13.16 0 23.83 8.69 23.83 19.42z" />
			<g id="Layer">
				<path id="Layer" class="s16" d="m65.92 171.81h243.16c36.41 0 65.92 29.51 65.92 65.92v474.16c0 36.41-29.51 65.92-65.92 65.92h-243.16c-36.41 0-65.92-29.51-65.92-65.92v-474.16c0-36.41 29.51-65.92 65.92-65.92z" />
				<path id="Shape 1" class="s16" d="m0 172h381v68h-381v-68z" />
			</g>
			<g id="Layer">
				<path id="Layer" fill-rule="evenodd" class="s17" d="m134.28 314.39c-0.26 1.17-0.86 2.24-1.73 3.06c-0.26 0.24-0.6 0.33-0.94 0.26c-1.17-0.26-2.24-0.86-3.06-1.73c-0.24-0.26-0.34-0.59-0.26-0.94c0.26-1.17 0.86-2.24 1.73-3.06c0.26-0.24 0.6-0.33 0.94-0.26c1.17 0.26 2.24 0.86 3.06 1.73c0.24 0.26 0.34 0.6 0.26 0.94zm7.7 9.24c-0.8 0.89-1.85 1.52-3.01 1.81c-0.34 0.08-0.68 0-0.95-0.24c-0.89-0.8-1.52-1.85-1.81-3.01c-0.08-0.34 0-0.68 0.24-0.95c0.8-0.89 1.85-1.52 3.01-1.81c0.34-0.08 0.68 0 0.95 0.24c0.89 0.8 1.52 1.85 1.81 3.01c0.08 0.34-0.01 0.69-0.24 0.95zm-30.82-11.65c0.87 0.82 1.47 1.89 1.73 3.06c0.08 0.34-0.02 0.68-0.26 0.94c-0.82 0.87-1.89 1.48-3.06 1.73c-0.34 0.07-0.68-0.02-0.94-0.26c-0.87-0.82-1.47-1.89-1.73-3.06c-0.07-0.34 0.02-0.68 0.26-0.94c0.82-0.87 1.89-1.47 3.06-1.73c0.34-0.07 0.68 0.02 0.94 0.26zm-9.44 7.46c1.16 0.28 2.21 0.92 3.01 1.81c0.23 0.26 0.32 0.6 0.23 0.95c-0.28 1.16-0.92 2.21-1.81 3.01c-0.26 0.23-0.6 0.32-0.94 0.24c-1.16-0.29-2.22-0.92-3.01-1.81c-0.23-0.26-0.32-0.6-0.23-0.95c0.28-1.16 0.92-2.21 1.81-3.01c0.26-0.24 0.6-0.33 0.94-0.24zm21.32-9.3c0.35 1.14 0.35 2.37 0 3.51c-0.1 0.34-0.35 0.59-0.69 0.69c-1.14 0.35-2.37 0.35-3.51 0c-0.34-0.11-0.59-0.35-0.69-0.69c-0.35-1.14-0.35-2.37 0-3.51c0.1-0.34 0.35-0.59 0.69-0.69c1.14-0.35 2.37-0.35 3.51 0c0.33 0.11 0.58 0.35 0.69 0.69z" />
				<path id="Layer" fill-rule="evenodd" class="s17" d="m121.91 339.55c2.04-3.03 3.41-6.54 3.93-10.32c0.02-0.14 0.11-0.26 0.24-0.31c0.13-0.05 0.28-0.03 0.39 0.05c1.4 1.08 3 1.92 4.72 2.46c0.22 0.07 0.36 0.29 0.31 0.52c-0.88 4.36-2.68 8.38-5.19 11.85c-0.08 0.11-0.19 0.18-0.33 0.2c-0.14 0.02-0.26-0.01-0.37-0.1c-1.35-1.06-2.58-2.26-3.67-3.59c-0.17-0.22-0.19-0.52-0.03-0.76z" />
				<path id="Layer" fill-rule="evenodd" class="s17" d="m120.23 349.52c-5.33-4.39-9.14-10.54-10.56-17.56c-0.05-0.23 0.09-0.45 0.31-0.52c1.73-0.54 3.33-1.38 4.72-2.46c0.11-0.09 0.26-0.11 0.39-0.05c0.14 0.06 0.22 0.17 0.24 0.31c0.88 6.48 4.3 12.16 9.21 16.01c0.11 0.09 0.17 0.2 0.19 0.34c0.01 0.14-0.03 0.26-0.12 0.37c-1.12 1.29-2.35 2.49-3.67 3.57c-0.2 0.16-0.5 0.16-0.71-0.01z" />
				<path id="Layer" fill-rule="evenodd" class="s17" d="m140.7 342.34c-0.09 0.22-0.29 0.34-0.53 0.34c-3.32-0.08-6.46-0.82-9.33-2.08c-0.12-0.06-0.21-0.15-0.26-0.28c-0.05-0.12-0.04-0.25 0.02-0.38c1.16-2.38 2.03-4.93 2.57-7.6c0.04-0.24 0.26-0.39 0.5-0.36c3.6 0.49 7.25-0.33 10.29-2.31c0.11-0.07 0.24-0.08 0.36-0.03c0.12 0.05 0.2 0.15 0.22 0.28c0.28 1.69-0.51 3.41-2.04 4.29c-0.08 2.89-0.71 5.63-1.8 8.13z" />
				<path id="Layer" fill-rule="evenodd" class="s17" d="m120.59 333.06c-2.08 0-3.78-3.02-4.58-5.25c-1.12-0.17-11.5-2-7.82-4.97c3.11-2.51 6.72-4.42 10.65-5.56c1.2-0.35 2.32-0.35 3.52 0c3.93 1.14 7.53 3.05 10.64 5.56c3.68 2.97-6.7 4.8-7.82 4.97c-0.81 2.23-2.51 5.25-4.59 5.25z" />
				<path id="Layer" fill-rule="evenodd" class="s17" d="m100.48 342.35c-1.09-2.51-1.72-5.25-1.79-8.14c-1.52-0.88-2.31-2.6-2.03-4.28c0.02-0.13 0.1-0.23 0.22-0.29c0.12-0.05 0.25-0.04 0.36 0.03c3.06 1.99 6.67 2.8 10.28 2.31c0.24-0.03 0.46 0.12 0.5 0.36c0.54 2.67 1.41 5.22 2.57 7.61c0.06 0.12 0.07 0.25 0.02 0.38c-0.05 0.13-0.14 0.22-0.27 0.28c-2.86 1.26-6.01 1.99-9.32 2.08c-0.24 0-0.45-0.13-0.54-0.34z" />
				<path id="Layer" fill-rule="evenodd" class="s17" d="m131 355.47c-3.15 1.5-6.68 2.34-10.4 2.34c-0.61 0-1.21-0.02-1.81-0.07c-0.13-0.01-0.23-0.07-0.31-0.17c-0.07-0.11-0.1-0.22-0.06-0.35c1.6-6.08 7.13-10.56 13.7-10.56c2.77 0 4.16 1.32 4.16 3.02c0.01 2.27-1.73 4.09-5.28 5.79z" />
				<path id="Layer" fill-rule="evenodd" class="s17" d="m104.89 349.69c0-1.7 1.39-3.02 4.16-3.02c3.95 0 7.53 1.62 10.1 4.23c0.2 0.2 0.22 0.5 0.06 0.73c-1.15 1.61-2.01 3.44-2.49 5.42c-0.07 0.25-0.31 0.41-0.57 0.36c-2.1-0.39-4.1-1.05-5.97-1.94c-3.55-1.7-5.29-3.52-5.29-5.78z" />
				<path id="Layer" class="s17" d="m231.97 328.2v-18.18c0-0.44 0.35-0.79 0.78-0.79h4.48c0.43 0 0.78 0.35 0.78 0.79v9.87l6.54-10.07c0.25-0.39 0.65-0.59 1.11-0.59h4.95c0.43 0 0.78 0.35 0.78 0.79v18.18c0 0.43-0.35 0.79-0.78 0.79h-4.48c-0.43 0-0.78-0.36-0.78-0.79v-9.87l-6.54 10.08c-0.26 0.39-0.66 0.59-1.12 0.59h-4.95c-0.42 0-0.77-0.35-0.77-0.8z" />
				<path id="Layer" class="s17" d="m203.51 327.02v-16.99c0-0.44 0.35-0.79 0.78-0.79h4.46c0.43 0 0.78 0.35 0.78 0.79v14.03h3.67v-14.03c0-0.44 0.35-0.79 0.78-0.79h4.49c0.43 0 0.78 0.35 0.78 0.79v14.03h3.56v-14.03c0-0.44 0.35-0.79 0.78-0.79h4.48c0.43 0 0.78 0.35 0.78 0.79v16.99c0 1.09-0.88 1.98-1.95 1.98h-21.44c-1.07 0-1.94-0.88-1.95-1.98z" />
				<path id="Layer" class="s17" d="m174.43 308.85c1.88 0 3.49 0.27 4.87 0.75c0.48 0.17 0.79 0.61 0.79 1.12v3.28c0 0.27-0.13 0.51-0.36 0.66c-0.23 0.15-0.49 0.17-0.74 0.06c-1.14-0.52-2.45-0.77-3.78-0.77c-3.62 0-5.34 2.13-5.34 5.18c0 3.05 1.72 5.18 5.34 5.18c1.33 0 2.64-0.25 3.78-0.77c0.25-0.11 0.52-0.09 0.74 0.06c0.23 0.15 0.36 0.39 0.36 0.66v3.27c0 0.52-0.31 0.95-0.79 1.12c-1.37 0.48-2.99 0.75-4.87 0.75c-7.99 0-10.8-5.03-10.8-10.28c0-5.24 2.81-10.27 10.8-10.27z" />
				<path id="Layer" class="s17" d="m196.35 309.24h4.49c0.27 0 0.5 0.12 0.65 0.35c0.15 0.22 0.17 0.49 0.07 0.74l-7.25 17.93c-0.18 0.46-0.6 0.74-1.08 0.74h-4.49c-0.27 0-0.5-0.12-0.65-0.35c-0.15-0.23-0.18-0.49-0.07-0.74l1.69-4.19h-0.81c-1.47 0-2.14-0.9-2.52-1.84l-4.67-11.55c-0.1-0.25-0.08-0.52 0.07-0.74c0.15-0.23 0.38-0.35 0.65-0.35h4.48c0.48 0 0.9 0.28 1.08 0.73l3.64 8.99l3.63-8.99c0.2-0.44 0.61-0.73 1.09-0.73z" />
				<path id="Layer" fill-rule="evenodd" class="s17" d="m197.14 336.53h7.74c0.49 0 0.9 0.31 1.04 0.78l5.49 17.96c0.08 0.25 0.03 0.5-0.12 0.7c-0.15 0.21-0.38 0.32-0.63 0.32h-4.21c-0.48 0-0.9-0.31-1.04-0.78l-0.77-2.46h-7.29l-0.77 2.46c-0.15 0.47-0.56 0.78-1.04 0.78h-4.21c-0.25 0-0.48-0.11-0.63-0.32c-0.15-0.21-0.19-0.46-0.12-0.7l5.49-17.96c0.17-0.47 0.58-0.78 1.07-0.78zm5.97 11.58l-2.1-6.75l-2.1 6.75h4.2zm19.3-11.97c1.88 0 3.49 0.27 4.87 0.75c0.48 0.17 0.79 0.61 0.79 1.12v3.27c0 0.28-0.13 0.51-0.36 0.66c-0.23 0.15-0.49 0.17-0.74 0.06c-1.14-0.51-2.45-0.77-3.78-0.77c-3.62 0-5.34 2.13-5.34 5.18c0 3.04 1.72 5.18 5.34 5.18c1.33 0 2.64-0.25 3.78-0.77c0.25-0.11 0.51-0.09 0.74 0.06c0.23 0.15 0.36 0.39 0.36 0.66v3.27c0 0.51-0.31 0.95-0.79 1.12c-1.37 0.48-2.99 0.75-4.87 0.75c-7.99 0-10.8-5.03-10.8-10.27c0-5.24 2.81-10.27 10.8-10.27zm33.48 7.81h7.36c0.43 0 0.78 0.35 0.78 0.79v3.36c0 0.43-0.35 0.79-0.78 0.79h-7.36v2.47h8.47c0.43 0 0.78 0.36 0.78 0.79v3.36c0 0.43-0.35 0.79-0.78 0.79h-12.56c-1.07 0-1.95-0.89-1.95-1.98v-15.81c0-1.09 0.88-1.98 1.95-1.98h12.56c0.43 0 0.78 0.36 0.78 0.79v3.36c0 0.43-0.35 0.79-0.78 0.79h-8.47v2.48zm13.82-7.42h8.76c8.88 0 8.88 14.82 0 14.82h-4.67v4.15c0 0.43-0.35 0.79-0.78 0.79h-4.48c-0.43 0-0.78-0.36-0.78-0.79v-16.99c0-1.09 0.87-1.98 1.95-1.98zm4.09 4.94v4.94h3.34c2.66 0 2.66-4.94 0-4.94h-3.34zm-43.58-0.79v-3.36c0-0.43 0.35-0.79 0.78-0.79h15.84c0.43 0 0.78 0.36 0.78 0.79v3.36c0 0.43-0.35 0.79-0.78 0.79h-4.9v14.03c0 0.43-0.35 0.79-0.78 0.79h-4.48c-0.43 0-0.78-0.36-0.78-0.79v-14.03h-4.9c-0.43 0-0.78-0.35-0.78-0.79z" />
				<path id="Layer" class="s17" d="m180.87 336.54h5.08c0.5 0 0.92 0.38 0.97 0.89l1.8 18c0.02 0.23-0.05 0.44-0.2 0.61c-0.15 0.17-0.35 0.26-0.58 0.26h-4.44c-0.5 0-0.92-0.39-0.97-0.89l-0.93-9.3l-3.23 6.94c-0.15 0.33-0.48 0.51-0.85 0.51h-2.65c-0.36 0-0.7-0.18-0.85-0.51l-3.27-6.98l-0.94 9.34c-0.05 0.51-0.47 0.89-0.97 0.89h-4.44c-0.23 0-0.43-0.09-0.58-0.26c-0.15-0.17-0.22-0.38-0.2-0.61l1.81-18c0.05-0.5 0.47-0.89 0.97-0.89h5.09c0.36 0 0.7 0.19 0.86 0.52l3.85 8.08l3.81-8.08c0.16-0.32 0.5-0.52 0.86-0.52z" />
			</g>
			<g id="Layer">
				<path id="Layer" class="s18" d="m236.95 184.74c-2.77-0.55-4.44-1.49-5.16-2.2c-3.28-3.16 1.42-8.85-1.32-10.81c-1.12-0.19-4.79 0-6.01 0c0-2.83 1.4-4.15 2.08-5.2c5.39-8.46 34.85-5.47 33.88 5.03c-0.75 8.11-9.49 15.92-23.47 13.18z" />
				<path id="Layer" class="s19" d="m237.91 181.51c0-3.69 0.83-7.61 0.87-7.84c0.03-0.14 0.17-0.24 0.32-0.2c0.14 0.03 0.24 0.17 0.2 0.32c-0.01 0.07-1.53 7.22-0.5 11.23c0.04 0.14-0.04 0.29-0.19 0.33c-0.14 0.04-0.29-0.04-0.33-0.19c-0.27-1.1-0.37-2.36-0.37-3.65z" />
				<path id="Layer" class="s19" d="m245.46 185.07c0-0.04 0.01-0.09 0.03-0.11c1.79-3.69 0.49-11.12 0.47-11.19c-0.03-0.14 0.07-0.29 0.21-0.32c0.14-0.03 0.29 0.07 0.32 0.22c0.06 0.32 1.35 7.67-0.53 11.52c-0.07 0.13-0.23 0.19-0.36 0.13c-0.08-0.05-0.14-0.15-0.14-0.25z" />
				<path id="Layer" class="s19" d="m252.8 182.36c0-0.04 0.01-0.09 0.03-0.11c1.79-3.69 0.5-8.66 0.49-8.7c-0.04-0.14 0.04-0.29 0.19-0.33c0.14-0.04 0.29 0.04 0.33 0.19c0.06 0.22 1.35 5.21-0.53 9.08c-0.07 0.13-0.23 0.19-0.36 0.13c-0.1-0.06-0.15-0.16-0.15-0.26z" />
			</g>
			<g id="Layer">
				<path id="Layer" class="s18" d="m87.69 171.81c-0.97-10.5 28.49-13.49 33.88-5.03c0.67 1.05 2.08 2.37 2.08 5.2c-1.22 0-4.89-0.19-6.01 0c-2.74 1.97 1.96 7.66-1.32 10.81c-0.72 0.7-2.39 1.65-5.16 2.2c-13.98 2.74-22.72-5.07-23.47-13.18z" />
				<path id="Layer" class="s19" d="m109.83 185.41c-0.04 0.14-0.19 0.23-0.33 0.19c-0.14-0.04-0.23-0.19-0.19-0.33c1.03-4.01-0.49-11.16-0.5-11.23c-0.04-0.14 0.06-0.29 0.2-0.32c0.14-0.04 0.29 0.06 0.32 0.2c0.04 0.23 0.87 4.15 0.87 7.84c0 1.29-0.1 2.56-0.37 3.65z" />
				<path id="Layer" class="s19" d="m102.5 185.57c-0.13 0.06-0.29 0-0.36-0.13c-1.88-3.85-0.59-11.2-0.53-11.52c0.03-0.14 0.17-0.24 0.32-0.22c0.14 0.03 0.24 0.17 0.21 0.32c-0.01 0.07-1.32 7.5 0.47 11.19c0.01 0.03 0.03 0.07 0.03 0.11c0 0.1-0.05 0.2-0.14 0.25z" />
				<path id="Layer" class="s19" d="m95.16 182.85c-0.13 0.06-0.29 0-0.36-0.13c-1.88-3.86-0.59-8.86-0.53-9.08c0.04-0.14 0.19-0.23 0.33-0.19c0.14 0.04 0.23 0.19 0.19 0.33c-0.01 0.04-1.3 5.01 0.49 8.7c0.01 0.03 0.03 0.07 0.03 0.11c-0.01 0.12-0.05 0.22-0.15 0.26z" />
			</g>
			<g id="Layer">
				<path id="Layer" fill-rule="evenodd" class="s0" d="m185.47 76.17c0.77 0.94 0.62 1.35-1.36 3.75c-0.98 1.18-1.72 2.19-1.66 2.24c0.06 0.05 1.27 0.29 2.69 0.53c3.2 0.54 3.92 1.05 3.41 2.43c-0.45 1.2-0.93 1.27-4.55 0.64c-1.15-0.2-2.11-0.34-2.13-0.31c-0.02 0.03 0.36 1.1 0.85 2.37c1.01 2.65 1.09 3.2 0.53 3.88c-0.45 0.56-1.62 0.7-2.15 0.26c-0.18-0.14-0.76-1.38-1.29-2.75c-0.54-1.37-1.02-2.53-1.07-2.57c-0.05-0.05-0.87 0.85-1.81 1.99c-0.94 1.14-1.84 2.16-2.01 2.25c-0.34 0.19-1.41 0.01-1.79-0.3c-0.14-0.11-0.29-0.58-0.33-1.03l-0.08-0.82l1.73-2.1c0.95-1.16 1.7-2.13 1.65-2.17c-0.05-0.04-1.24-0.26-2.65-0.5c-1.42-0.24-2.75-0.58-2.98-0.77c-0.83-0.69-0.54-2.26 0.51-2.69c0.21-0.09 1.43 0.03 2.7 0.25c1.28 0.23 2.51 0.43 2.75 0.45c0.38 0.03 0.32-0.25-0.49-2.37c-0.51-1.32-0.94-2.63-0.97-2.91c-0.1-1.17 1.6-2 2.53-1.24c0.23 0.19 0.82 1.43 1.33 2.79c0.5 1.34 0.95 2.47 0.99 2.5c0.04 0.03 0.86-0.89 1.81-2.04l1.73-2.1l0.85-0.09c0.72-0.07 0.92 0 1.26 0.43z" />
				<path id="Layer" class="s18" d="m132.24 90.19c5.44-13.15 17.65-23.04 32.8-24.79c15.16-1.76 29.34 5.06 37.69 16.61c3.92 5.45 6.56 11.91 7.4 19.04c2.63 22.27-13.3 42.42-35.58 45c-22.28 2.58-42.46-13.38-45.09-35.65c-0.84-7.13 0.22-14.03 2.78-20.21z" />
				<path id="Layer" class="s20" d="m156.25 114.18c-0.1-0.89 1.26-1.78 3.05-1.99c1.79-0.2 3.32 0.35 3.43 1.24c0.1 0.89-1.26 1.78-3.05 1.99c-1.79 0.2-3.32-0.35-3.43-1.24z" />
				<path id="Layer" class="s20" d="m193.38 109.22c-0.1-0.89 1.26-1.78 3.05-1.99c1.79-0.2 3.32 0.35 3.43 1.24c0.1 0.89-1.26 1.78-3.05 1.99c-1.79 0.2-3.32-0.35-3.43-1.24z" />
				<path id="Layer" class="s15" d="m109 76.78c-0.35-3.57 2.27-6.74 5.84-7.08c3.58-0.33 6.75 2.29 7.1 5.86c0.35 3.57-2.27 6.74-5.84 7.08c-3.58 0.34-6.75-2.28-7.1-5.86z" />
				<path id="Layer" class="s14" d="m128.07 88.13c0 0-9.21-32.56 10.4-40.35c17.1-6.82 43.96 8.63 43.45 8.71c-35.8 5.69-53.85 31.64-53.85 31.64z" />
				<path id="Layer" class="s14" d="m129.12 70.76c-5.5 4.46-9.82 6.15-12.16 5.62c-2.41-0.56-2.76-3.41-2.5-4.2c8.79-20.79 25.39-24.9 26.07-25.23c0 0-1.09 15.47-11.41 23.81z" />
				<path id="Layer" class="s15" d="m204.58 84.81c0 0-14.06-19.97-43.42-9.41c-25.04 9-28.85 23.82-28.07 33.73c-0.5 0-0.98-0.05-1.44-0.11c-2.43-0.37-4.17-1.6-5.35-3.35c-3.05-4.47-2.56-12.29-0.89-17.61c2.45-7.8 26.05-38.55 62.13-30.63c10.39 1.92 17.24 8.78 18.77 16.45c0.14 0.67 0.22 1.35 0.29 2.04c0.25 3.42-1.25 7.52-2.02 8.89z" />
				<path id="Layer" class="s21" d="m204.58 84.81c0 0-14.06-19.97-43.42-9.41c-25.04 9-28.85 23.82-28.07 33.73c-0.5 0-0.98-0.05-1.44-0.11c-2.43-0.37-4.17-1.6-5.35-3.35c-0.57-4.3 1.49-10.18 5.63-16.51c6.53-9.97 22.61-24.83 42.18-23.82c35.65 1.87 31.24 18.1 30.47 19.47z" />
				<path id="Layer" class="s22" d="m129.51 59.18c-1.05 1.98-1.71 4.15-2.17 6.33c-0.52 2.45-0.81 4.96-0.93 7.47c-0.07 1.41-0.07 2.82-0.02 4.22c0.02 0.29-0.44 0.36-0.46 0.06c-0.1-2.54 0-5.1 0.28-7.63c0.27-2.45 0.73-4.9 1.47-7.24c0.37-1.17 0.82-2.3 1.4-3.38c0.14-0.27 0.58-0.1 0.43 0.17z" />
				<path id="Layer" class="s18" d="m120.52 104.22c-0.43-4.46 2.83-8.43 7.3-8.85c4.47-0.42 8.44 2.86 8.87 7.32c0.43 4.46-2.83 8.43-7.3 8.85c-4.47 0.42-8.44-2.85-8.87-7.32z" />
				<path id="Layer" class="s23" d="m126.75 107.14c1.84-1.03 3.36-2.63 3.92-4.7c0.56-2.1 0.23-4.5-0.7-6.47c-0.09-0.18-0.18-0.37-0.29-0.55c3.58 0.49 6.53 3.34 6.97 7.1c0.52 4.45-2.66 8.48-7.11 9c-2.82 0.33-5.48-0.85-7.18-2.88c1.54-0.27 3.04-0.74 4.39-1.5z" />
				<path id="Layer" class="s24" d="m124.44 101.03c0.79-0.57 1.85-0.52 2.75-0.33c0.85 0.18 1.66 0.51 2.41 0.96c1.52 0.94 2.71 2.42 3.23 4.14c0.09 0.28-0.34 0.46-0.43 0.18c-0.49-1.55-1.5-2.89-2.87-3.79c-0.68-0.45-1.44-0.8-2.23-0.97c-0.82-0.2-1.85-0.33-2.59 0.2c-0.22 0.15-0.51-0.22-0.27-0.39z" />
				<path id="Layer" class="s23" d="m198.53 75.31c0 0 3.48 3.54 0.59 5.04c-5.61-1.89-14.15-0.59-17.01 1.06c-2.87 1.65-3.85-6-1.45-8.11c2.41-2.11 14.83-2.08 17.87 2.01z" />
				<path id="Layer" class="s23" d="m162.56 75.48c2.83 1.48 3.73 8.86 0.48 8.22c-7.28-1.43-13.63 3.46-16.81 2.86c-3.16-0.8-0.59-5.04-0.59-5.04c2.01-4.68 14.09-7.52 16.92-6.04z" />
				<path id="Layer" class="s15" d="m197.96 73.37c0 0 3.48 3.54 0.59 5.04c-5.61-1.89-14.15-0.59-17.01 1.05c-2.87 1.65-3.85-6-1.45-8.11c2.4-2.1 14.82-2.08 17.87 2.02z" />
				<path id="Layer" class="s15" d="m162.42 73.65c2.83 1.48 3.66 9.17 0.48 8.22c-3.18-0.95-11.8-0.28-16.81 2.86c-3.16-0.8-0.59-5.04-0.59-5.04c2.02-4.67 14.09-7.53 16.92-6.04z" />
				<path id="Layer" class="s15" d="m209.36 94.91c13.52 15.41 17.69 31.12 11.27 43.83c-12.75 25.2-42.49 42.3-42.49 42.3c0 0-39.65-8.16-52.75-25.05c-9.72-13.48-1.37-36.22 3.38-51.29c-2.35-8.96 4.23-11.4 6.97-9.71c0 0 1.27-0.25 3.6 10.83c1.51 7.23 12.17 14.76 18.38 14.64c5.31-0.1 12.6-5.81 21.32-5.87c11.64-0.08 15.56 2.43 20.51-1.96c10.66-9.45 3.77-21.92 6.06-26.08c1.34-2.51 6.06 1.1 3.75 8.36z" />
				<path id="Layer" class="s18" d="m183 105.44c0 0 9.59 4.44 8.13 9.98c-1.45 5.53-15.56 7.85-18.6-1.63l10.47-8.35z" />
				<g id="Layer" style="opacity: .5">
					<g id="Layer" style="opacity: .5">
						<path id="Layer" class="s25" d="m182.92 114.1c-0.12-1.06 0.73-2.03 1.9-2.17c1.17-0.13 2.23 0.62 2.35 1.68c0.12 1.06-0.73 2.03-1.9 2.17c-1.17 0.14-2.22-0.61-2.35-1.68z" />
					</g>
				</g>
				<path id="Layer" class="s26" d="m182.47 120.6c-5.07 0.12-8.91-2.38-10.3-6.7c-0.06-0.2 0.04-0.41 0.24-0.47c0.2-0.06 0.41 0.04 0.47 0.24c1.27 3.98 4.85 6.3 9.57 6.18c4.09-0.1 7.65-2.05 8.31-4.54c1.35-5.16-7.84-9.5-7.94-9.54c-0.18-0.09-0.26-0.31-0.18-0.5c0.09-0.18 0.31-0.26 0.5-0.18c0.41 0.19 9.87 4.65 8.35 10.42c-0.65 2.51-3.83 4.53-7.66 5c-0.43 0.05-0.89 0.09-1.36 0.09z" />
				<path id="Layer" class="s27" d="m194.24 95.65c-0.31-2.64 0.42-4.89 1.62-5.03c1.2-0.14 2.43 1.88 2.74 4.52c0.31 2.64-0.42 4.89-1.62 5.03c-1.2 0.14-2.43-1.88-2.74-4.52z" />
				<path id="Layer" class="s27" d="m156.36 99.3c-0.31-2.64 0.42-4.89 1.62-5.03c1.2-0.14 2.43 1.88 2.74 4.52c0.31 2.64-0.42 4.89-1.62 5.03c-1.2 0.14-2.43-1.88-2.74-4.52z" />
				<path id="Layer" class="s28" d="m193.65 131.58c-0.34 1.59-0.8 3.24-1.33 4.89c-2.61 7.97-7.26 15.87-12.04 16.6c-6.12 0.94-12.3-9.83-13.82-20.26c-0.07-0.5-0.14-1.01-0.19-1.51c18.19 1.79 27.38 0.28 27.38 0.28z" />
				<path id="Layer" class="s29" d="m193.65 131.58c-0.34 1.59-0.8 3.24-1.33 4.89c-3.73 0.88-8.9 0.93-14.49-0.06c-4.39-0.78-8.33-2.06-11.38-3.61c-0.07-0.5-0.14-1.01-0.19-1.51c18.2 1.8 27.39 0.29 27.39 0.29z" />
			</g>
			<path id="Layer" class="s0" d="m341.78 51.11c-2.3 0-4.16-1.86-4.16-4.16c0-2.3 1.86-4.16 4.16-4.16c2.3 0 4.16 1.86 4.16 4.16c0 2.3-1.86 4.16-4.16 4.16z" />
			<path id="Layer" fill-rule="evenodd" class="s0" d="m330.56 106.68c0.17-1.41 0.64-1.61 4.32-1.89c1.8-0.13 3.28-0.32 3.27-0.42c-0.01-0.09-0.8-1.31-1.75-2.7c-2.17-3.15-2.32-4.17-0.72-4.85c1.39-0.59 1.84-0.24 4.27 3.33c0.77 1.13 1.44 2.05 1.48 2.05c0.04-0.01 0.64-1.19 1.33-2.64c1.43-3.01 1.84-3.52 2.88-3.6c0.84-0.06 1.92 0.81 1.98 1.61c0.02 0.26-0.57 1.76-1.3 3.32c-0.73 1.56-1.33 2.91-1.32 2.99c0.01 0.08 1.44 0.04 3.19-0.09c1.75-0.13 3.35-0.18 3.57-0.12c0.44 0.13 1.17 1.19 1.21 1.76c0.02 0.21-0.26 0.71-0.61 1.11l-0.64 0.73l-3.21 0.24c-1.76 0.14-3.21 0.3-3.2 0.37c0.01 0.07 0.8 1.26 1.75 2.64c0.95 1.39 1.75 2.8 1.78 3.14c0.1 1.26-1.48 2.28-2.71 1.75c-0.24-0.11-1.14-1.22-1.99-2.48c-0.85-1.25-1.69-2.46-1.87-2.68c-0.28-0.35-0.47-0.08-1.62 2.33c-0.71 1.5-1.47 2.93-1.69 3.18c-0.91 1.04-3.02 0.27-3.13-1.13c-0.03-0.35 0.55-1.85 1.29-3.38c0.74-1.52 1.33-2.81 1.33-2.87c0-0.06-1.45 0-3.22 0.13l-3.21 0.24l-0.77-0.65c-0.64-0.54-0.75-0.77-0.69-1.42z" />
		</g>
	</g>
</svg>