<?xml version="1.0" encoding="utf-8"?>
<!-- Generator: Adobe Illustrator 25.4.1, SVG Export Plug-In . SVG Version: 6.00 Build 0)  -->
<svg version="1.1" id="Слой_1" xmlns="http://www.w3.org/2000/svg" xmlns:xlink="http://www.w3.org/1999/xlink" x="0px" y="0px"
	 viewBox="0 0 160 50.36" style="enable-background:new 0 0 160 50.36;" xml:space="preserve">
<style type="text/css">
	.st0{fill:#1D1D1B;}
	.st1{fill-rule:evenodd;clip-rule:evenodd;fill:#E20613;}
	.st2{fill-rule:evenodd;clip-rule:evenodd;fill:#FDFDFB;}
</style>
<path class="st0" d="M117.07,21.5h4.05c0.38,0,0.71-0.16,0.91-0.48l5.36-8.26v8.09c0,0.36,0.29,0.65,0.64,0.65h3.67
	c0.35,0,0.64-0.29,0.64-0.65V5.95c0-0.36-0.29-0.65-0.64-0.65h-4.05c-0.37,0-0.71,0.16-0.91,0.48l-5.36,8.25V5.95
	c0-0.36-0.29-0.65-0.64-0.65h-3.67c-0.35,0-0.64,0.29-0.64,0.65v14.9C116.44,21.2,116.72,21.5,117.07,21.5"/>
<path class="st0" d="M94.72,21.5h17.57c0.88,0,1.6-0.73,1.6-1.62V5.95c0-0.36-0.29-0.65-0.64-0.65h-3.67
	c-0.35,0-0.64,0.29-0.64,0.65v11.49h-2.92V5.95c0-0.36-0.29-0.65-0.64-0.65h-3.68c-0.35,0-0.64,0.29-0.64,0.65v11.49h-3.01V5.95
	c0-0.36-0.29-0.65-0.64-0.65h-3.66c-0.35,0-0.64,0.29-0.64,0.65v13.92C93.12,20.77,93.84,21.5,94.72,21.5"/>
<path class="st0" d="M69.29,4.98c1.54,0,2.86,0.22,3.99,0.62c0.39,0.14,0.64,0.5,0.64,0.92V9.2c0,0.22-0.1,0.42-0.29,0.54
	s-0.4,0.14-0.61,0.05c-0.93-0.42-2.01-0.63-3.09-0.63c-2.97,0-4.38,1.75-4.38,4.24c0,2.5,1.41,4.24,4.38,4.24
	c1.09,0,2.16-0.21,3.09-0.63c0.21-0.09,0.42-0.07,0.61,0.05c0.19,0.12,0.29,0.32,0.29,0.54v2.68c0,0.42-0.25,0.78-0.64,0.92
	c-1.13,0.4-2.45,0.62-3.99,0.62c-6.55,0-8.85-4.12-8.85-8.42C60.44,9.1,62.74,4.98,69.29,4.98"/>
<path class="st0" d="M87.26,5.31h3.68c0.22,0,0.41,0.1,0.53,0.29c0.12,0.18,0.14,0.4,0.06,0.61L85.59,20.9
	c-0.15,0.37-0.49,0.6-0.89,0.6h-3.68c-0.22,0-0.41-0.1-0.53-0.29c-0.12-0.19-0.14-0.4-0.06-0.61l1.39-3.43h-0.66
	c-1.21,0-1.75-0.73-2.06-1.51L75.26,6.2c-0.08-0.21-0.06-0.42,0.06-0.61c0.12-0.19,0.31-0.29,0.53-0.29h3.67
	c0.4,0,0.74,0.23,0.89,0.6l2.98,7.36l2.98-7.36C86.52,5.54,86.86,5.31,87.26,5.31"/>
<path class="st0" d="M92.79,37.16l-1.72-5.53l-1.72,5.53H92.79z M87.9,27.67h6.34c0.4,0,0.74,0.25,0.85,0.64l4.5,14.71
	c0.06,0.2,0.03,0.41-0.1,0.58c-0.13,0.17-0.31,0.26-0.52,0.26h-3.45c-0.4,0-0.74-0.26-0.86-0.64l-0.63-2.02h-5.97l-0.63,2.02
	c-0.12,0.38-0.46,0.64-0.85,0.64h-3.45c-0.21,0-0.39-0.09-0.52-0.26c-0.12-0.17-0.16-0.37-0.1-0.58l4.5-14.71
	C87.16,27.92,87.5,27.67,87.9,27.67z M108.61,27.34c1.54,0,2.86,0.22,3.99,0.62c0.39,0.14,0.64,0.5,0.64,0.92v2.68
	c0,0.23-0.11,0.42-0.29,0.54c-0.19,0.12-0.41,0.14-0.61,0.05c-0.93-0.42-2.01-0.63-3.1-0.63c-2.97,0-4.38,1.75-4.38,4.24
	c0,2.49,1.41,4.24,4.38,4.24c1.09,0,2.16-0.21,3.1-0.63c0.2-0.09,0.42-0.07,0.61,0.05s0.29,0.32,0.29,0.54v2.68
	c0,0.42-0.25,0.78-0.64,0.92c-1.13,0.4-2.45,0.62-3.99,0.62c-6.55,0-8.85-4.12-8.85-8.42C99.75,31.46,102.06,27.34,108.61,27.34z
	 M136.04,31.71h6.94c0.35,0,0.64-0.29,0.64-0.65v-2.75c0-0.36-0.29-0.65-0.64-0.65h-10.29c-0.88,0-1.6,0.73-1.6,1.62v12.95
	c0,0.89,0.72,1.62,1.6,1.62h10.29c0.35,0,0.64-0.29,0.64-0.65v-2.75c0-0.36-0.29-0.65-0.64-0.65h-6.94v-2.02h6.03
	c0.35,0,0.64-0.29,0.64-0.65v-2.75c0-0.36-0.29-0.65-0.64-0.65h-6.03V31.71z M150.71,31.71v4.05h2.74c2.18,0,2.18-4.05,0-4.05
	H150.71z M147.36,27.67h7.18c7.28,0,7.28,12.14,0,12.14h-3.83v3.4c0,0.36-0.29,0.65-0.64,0.65h-3.67c-0.35,0-0.64-0.29-0.64-0.65
	V29.29C145.76,28.39,146.48,27.67,147.36,27.67z M115.64,31.71h4.02v11.5c0,0.36,0.29,0.65,0.64,0.65h3.67
	c0.35,0,0.64-0.29,0.64-0.65v-11.5h4.02c0.35,0,0.64-0.29,0.64-0.65v-2.75c0-0.36-0.29-0.65-0.64-0.65h-12.98
	c-0.35,0-0.64,0.29-0.64,0.65v2.75C115,31.42,115.29,31.71,115.64,31.71z"/>
<path class="st0" d="M73.87,28.1l-3.12,6.62l-3.16-6.62c-0.13-0.27-0.41-0.43-0.71-0.43h-4.17c-0.41,0-0.75,0.32-0.79,0.73
	l-1.48,14.75c-0.02,0.19,0.04,0.36,0.16,0.5s0.29,0.21,0.47,0.21h3.64c0.41,0,0.75-0.31,0.79-0.73l0.77-7.65l2.68,5.72
	c0.13,0.27,0.4,0.42,0.7,0.42h2.17c0.3,0,0.57-0.15,0.7-0.42l2.64-5.69l0.76,7.62c0.04,0.41,0.38,0.73,0.8,0.73h3.64
	c0.19,0,0.35-0.07,0.47-0.21c0.13-0.14,0.18-0.31,0.16-0.5L79.53,28.4c-0.04-0.42-0.39-0.73-0.79-0.73h-4.17
	C74.28,27.67,73.99,27.84,73.87,28.1"/>
<g>
	<g>
		<path class="st1" d="M25.18,0c13.91,0,25.18,11.27,25.18,25.18c0,13.91-11.27,25.18-25.18,25.18C11.27,50.36,0,39.09,0,25.18
			C0,11.27,11.27,0,25.18,0"/>
		<path class="st2" d="M26.26,30.14c1.67-2.48,2.8-5.36,3.22-8.46c0.01-0.12,0.09-0.21,0.2-0.26c0.11-0.04,0.23-0.03,0.32,0.04
			c1.15,0.89,2.45,1.58,3.87,2.02c0.18,0.06,0.29,0.24,0.25,0.43c-0.72,3.57-2.2,6.87-4.26,9.71c-0.07,0.09-0.16,0.15-0.27,0.16
			c-0.11,0.02-0.21-0.01-0.3-0.08c-1.11-0.87-2.12-1.85-3.01-2.94C26.14,30.58,26.13,30.34,26.26,30.14"/>
		<path class="st2" d="M24.88,38.3c-4.37-3.59-7.49-8.64-8.65-14.39c-0.04-0.19,0.07-0.37,0.25-0.43c1.42-0.44,2.73-1.13,3.87-2.02
			c0.09-0.07,0.21-0.09,0.32-0.04c0.11,0.05,0.18,0.14,0.2,0.26c0.73,5.31,3.52,9.96,7.55,13.12c0.09,0.07,0.14,0.17,0.15,0.28
			c0.01,0.11-0.02,0.22-0.1,0.3c-0.92,1.06-1.92,2.04-3.01,2.93C25.3,38.45,25.05,38.45,24.88,38.3"/>
		<path class="st2" d="M43.13,25.76c1.25-0.72,1.9-2.13,1.67-3.52c-0.02-0.11-0.08-0.19-0.18-0.23c-0.1-0.04-0.2-0.03-0.29,0.02
			c-2.49,1.62-5.48,2.29-8.43,1.89c-0.19-0.03-0.37,0.1-0.41,0.3c-0.44,2.19-1.16,4.28-2.1,6.23c-0.05,0.1-0.05,0.21-0.02,0.31
			c0.04,0.11,0.11,0.18,0.22,0.23c2.35,1.03,4.93,1.64,7.64,1.7c0.19,0,0.36-0.1,0.44-0.28C42.55,30.38,43.06,28.13,43.13,25.76"/>
		<path class="st2" d="M8.69,32.43c-0.89-2.05-1.41-4.3-1.47-6.67c-1.25-0.72-1.89-2.13-1.67-3.51c0.02-0.11,0.08-0.19,0.18-0.23
			c0.1-0.04,0.2-0.04,0.29,0.02c2.5,1.63,5.46,2.29,8.42,1.89c0.19-0.03,0.37,0.1,0.41,0.3c0.44,2.19,1.16,4.28,2.11,6.23
			c0.05,0.1,0.05,0.21,0.02,0.31c-0.04,0.11-0.11,0.18-0.22,0.23c-2.35,1.03-4.93,1.63-7.64,1.7C8.94,32.71,8.77,32.61,8.69,32.43"
			/>
		<path class="st2" d="M33.71,43.18c-2.58,1.23-5.47,1.92-8.52,1.92c-0.5,0-0.99-0.02-1.48-0.06c-0.1-0.01-0.19-0.06-0.25-0.14
			c-0.06-0.09-0.08-0.18-0.05-0.28c1.31-4.98,5.84-8.65,11.23-8.65c2.27,0,3.41,1.08,3.41,2.48C38.04,40.3,36.62,41.79,33.71,43.18"
			/>
		<path class="st2" d="M16.64,43.18c1.53,0.73,3.17,1.27,4.9,1.59c0.21,0.04,0.41-0.09,0.46-0.3c0.4-1.62,1.1-3.12,2.04-4.44
			c0.13-0.19,0.11-0.43-0.05-0.6c-2.11-2.14-5.04-3.47-8.28-3.47c-2.27,0-3.41,1.08-3.41,2.48C12.31,40.3,13.73,41.79,16.64,43.18"
			/>
		<path class="st2" d="M11.8,18.82c0.04-0.07,0.05-0.15,0.03-0.23c-0.03-0.1-0.11-0.16-0.55-0.39l-0.51-0.28l-0.21-0.69
			c-0.11-0.38-0.19-0.69-0.17-0.69c0.03,0,1.32,0.3,1.35,0.31c0.01,0,0.13,0.2,0.28,0.43c0.32,0.51,0.38,0.59,0.48,0.61
			c0.21,0.04,0.42-0.16,0.36-0.35c-0.02-0.05-0.13-0.26-0.26-0.46c-0.13-0.21-0.23-0.38-0.22-0.38c0-0.01,0.15-0.1,0.34-0.21
			c0.18-0.11,0.37-0.23,0.42-0.27c0.2-0.15,0.11-0.49-0.14-0.51c-0.11-0.01-0.18,0.02-0.61,0.28l-0.49,0.3l-0.7-0.17l-0.7-0.17
			l0.33-0.36c0.18-0.2,0.41-0.43,0.5-0.53l0.16-0.17l0.54-0.01c0.3-0.01,0.57-0.02,0.61-0.03c0.11-0.03,0.2-0.22,0.17-0.35
			c-0.05-0.19-0.18-0.24-0.66-0.22c-0.24,0.01-0.45,0.01-0.47,0c-0.02-0.01-0.04-0.19-0.05-0.43c-0.01-0.23-0.02-0.47-0.04-0.52
			c-0.06-0.2-0.38-0.27-0.5-0.1c-0.07,0.09-0.08,0.19-0.06,0.71c0.01,0.27,0.01,0.51,0.01,0.53c-0.01,0.04-0.92,1.03-0.96,1.04
			c-0.01,0-0.11-0.3-0.23-0.68l-0.21-0.69l0.28-0.52c0.24-0.44,0.27-0.53,0.24-0.63c-0.04-0.14-0.23-0.25-0.36-0.21
			c-0.07,0.02-0.16,0.14-0.35,0.48l-0.25,0.45l-0.46-0.24c-0.35-0.18-0.48-0.23-0.55-0.21c-0.13,0.04-0.23,0.23-0.19,0.37
			c0.03,0.1,0.11,0.16,0.55,0.39l0.51,0.28L9.26,15c0.18,0.59,0.2,0.69,0.15,0.69c-0.11-0.01-1.31-0.31-1.34-0.33
			c-0.02-0.02-0.15-0.22-0.29-0.45c-0.27-0.45-0.33-0.52-0.44-0.56c-0.19-0.07-0.43,0.16-0.37,0.36c0.02,0.05,0.13,0.26,0.25,0.46
			c0.12,0.2,0.22,0.37,0.21,0.38c-0.01,0.01-0.18,0.12-0.38,0.25c-0.43,0.27-0.51,0.37-0.45,0.56c0.03,0.1,0.07,0.14,0.16,0.18
			c0.14,0.06,0.15,0.05,0.74-0.31l0.42-0.26l0.65,0.15c0.36,0.09,0.67,0.16,0.7,0.17c0.04,0.01-0.12,0.2-0.44,0.54l-0.5,0.53
			l-0.51,0.01c-0.53,0.01-0.67,0.04-0.76,0.13c-0.09,0.08-0.08,0.26,0.01,0.37c0.09,0.11,0.16,0.12,0.7,0.1
			c0.21-0.01,0.39-0.01,0.4-0.01c0.01,0,0.02,0.2,0.02,0.44c0.01,0.24,0.02,0.48,0.04,0.53c0.06,0.21,0.39,0.25,0.52,0.06
			c0.04-0.06,0.05-0.25,0.04-0.63c-0.01-0.3-0.01-0.56,0-0.59c0.02-0.04,0.85-0.96,0.94-1.03c0.01-0.01,0.12,0.29,0.23,0.67
			l0.21,0.69l-0.28,0.52c-0.25,0.46-0.27,0.53-0.24,0.65c0.05,0.15,0.21,0.24,0.38,0.19c0.09-0.03,0.15-0.11,0.35-0.46l0.24-0.43
			l0.43,0.23C11.56,19.03,11.68,19.04,11.8,18.82z"/>
		<path class="st2" d="M18.44,12.5c0.04-0.07,0.05-0.15,0.03-0.23c-0.03-0.1-0.11-0.16-0.55-0.39l-0.51-0.28l-0.21-0.69
			c-0.11-0.38-0.19-0.69-0.17-0.69c0.03,0,1.32,0.3,1.35,0.31c0.01,0,0.13,0.2,0.28,0.43c0.32,0.51,0.38,0.59,0.48,0.61
			c0.21,0.04,0.42-0.16,0.36-0.35c-0.02-0.05-0.13-0.26-0.26-0.46C19.1,10.55,19,10.38,19,10.37c0-0.01,0.15-0.1,0.34-0.21
			c0.18-0.11,0.37-0.23,0.42-0.27c0.2-0.15,0.11-0.49-0.14-0.51c-0.11-0.01-0.18,0.02-0.61,0.28l-0.49,0.3l-0.7-0.17l-0.7-0.17
			l0.33-0.36c0.18-0.2,0.41-0.43,0.5-0.53l0.16-0.17l0.54-0.01c0.3-0.01,0.57-0.02,0.61-0.03c0.11-0.03,0.2-0.22,0.17-0.35
			c-0.05-0.19-0.18-0.24-0.66-0.22c-0.24,0.01-0.45,0.01-0.47,0c-0.02-0.01-0.04-0.19-0.05-0.43C18.25,7.29,18.23,7.05,18.22,7
			c-0.06-0.2-0.38-0.27-0.5-0.1c-0.07,0.09-0.08,0.19-0.06,0.71c0.01,0.27,0.01,0.51,0.01,0.53c-0.01,0.04-0.92,1.03-0.96,1.04
			c-0.01,0-0.11-0.3-0.23-0.68l-0.21-0.69l0.28-0.52c0.24-0.44,0.27-0.53,0.24-0.63c-0.04-0.14-0.23-0.25-0.36-0.21
			c-0.07,0.02-0.16,0.14-0.35,0.48l-0.25,0.45l-0.46-0.24c-0.35-0.18-0.48-0.23-0.55-0.21c-0.13,0.04-0.23,0.23-0.19,0.37
			c0.03,0.1,0.11,0.16,0.55,0.39l0.51,0.28l0.21,0.69c0.18,0.59,0.2,0.69,0.15,0.69c-0.11-0.01-1.31-0.31-1.34-0.33
			c-0.02-0.02-0.15-0.22-0.29-0.45c-0.27-0.45-0.33-0.52-0.44-0.56c-0.19-0.07-0.43,0.16-0.37,0.36c0.02,0.05,0.13,0.26,0.25,0.46
			c0.12,0.2,0.22,0.37,0.21,0.38c-0.01,0.01-0.18,0.12-0.38,0.25c-0.43,0.27-0.51,0.37-0.45,0.56c0.03,0.1,0.07,0.14,0.16,0.18
			c0.14,0.06,0.15,0.05,0.74-0.31l0.42-0.26l0.65,0.15c0.36,0.09,0.67,0.16,0.7,0.17c0.04,0.01-0.12,0.2-0.44,0.54l-0.5,0.53
			l-0.51,0.01c-0.53,0.01-0.67,0.04-0.76,0.13c-0.09,0.08-0.08,0.26,0.01,0.37c0.09,0.11,0.16,0.12,0.7,0.1
			c0.21-0.01,0.39-0.01,0.4-0.01c0.01,0,0.02,0.2,0.02,0.44c0.01,0.24,0.02,0.48,0.04,0.53c0.06,0.21,0.39,0.25,0.52,0.06
			c0.04-0.06,0.05-0.25,0.04-0.63c-0.01-0.3-0.01-0.56,0-0.59c0.02-0.04,0.85-0.96,0.94-1.03c0.01-0.01,0.12,0.29,0.23,0.67
			l0.21,0.69l-0.28,0.52c-0.25,0.46-0.27,0.53-0.24,0.65c0.05,0.15,0.21,0.24,0.38,0.19c0.09-0.03,0.15-0.11,0.35-0.46l0.24-0.43
			l0.43,0.23C18.2,12.71,18.32,12.71,18.44,12.5z"/>
		<path class="st2" d="M23.41,10.27c0.08,0.01,0.16-0.01,0.22-0.06c0.08-0.06,0.1-0.16,0.15-0.66l0.06-0.58l0.56-0.46
			c0.31-0.25,0.56-0.44,0.57-0.43c0.01,0.03,0.23,1.33,0.23,1.36c0,0.01-0.13,0.2-0.29,0.42c-0.35,0.49-0.4,0.58-0.38,0.68
			c0.04,0.21,0.31,0.33,0.46,0.2c0.04-0.03,0.19-0.22,0.33-0.41c0.14-0.19,0.26-0.35,0.27-0.35c0.01,0,0.15,0.1,0.33,0.23
			c0.17,0.12,0.36,0.25,0.41,0.28c0.22,0.12,0.49-0.09,0.42-0.33c-0.03-0.11-0.09-0.16-0.5-0.45l-0.46-0.34l-0.12-0.71l-0.12-0.71
			l0.46,0.17c0.25,0.09,0.56,0.21,0.68,0.26l0.22,0.09l0.22,0.5c0.12,0.27,0.24,0.52,0.26,0.55c0.07,0.09,0.29,0.1,0.39,0.02
			c0.16-0.12,0.15-0.26-0.05-0.7c-0.1-0.21-0.18-0.41-0.18-0.43c0-0.02,0.16-0.11,0.38-0.21c0.21-0.1,0.42-0.2,0.47-0.24
			c0.16-0.13,0.1-0.45-0.1-0.5c-0.11-0.03-0.2,0-0.68,0.22c-0.24,0.11-0.46,0.21-0.49,0.21c-0.04,0.01-1.3-0.46-1.33-0.49
			c-0.01-0.01,0.23-0.22,0.54-0.47l0.55-0.45l0.58,0.05c0.5,0.05,0.6,0.04,0.68-0.02c0.12-0.09,0.14-0.3,0.05-0.41
			c-0.05-0.06-0.19-0.09-0.58-0.13l-0.51-0.06l0.04-0.52c0.03-0.39,0.03-0.53-0.02-0.59c-0.09-0.11-0.3-0.12-0.41-0.03
			c-0.08,0.06-0.1,0.16-0.15,0.66L26.51,6l-0.56,0.46c-0.48,0.39-0.56,0.45-0.58,0.4c-0.04-0.11-0.22-1.32-0.21-1.36
			c0.01-0.02,0.14-0.22,0.3-0.44c0.31-0.42,0.36-0.51,0.35-0.62c-0.01-0.21-0.31-0.33-0.47-0.2c-0.04,0.04-0.19,0.22-0.33,0.41
			c-0.13,0.19-0.25,0.34-0.26,0.34c-0.01,0-0.18-0.12-0.38-0.26c-0.41-0.3-0.53-0.33-0.69-0.2c-0.08,0.07-0.11,0.12-0.11,0.22
			c0,0.15,0.01,0.16,0.58,0.56l0.4,0.28l0.11,0.66c0.06,0.36,0.11,0.68,0.12,0.71c0.01,0.04-0.23-0.03-0.67-0.2l-0.68-0.25
			l-0.21-0.46c-0.22-0.49-0.29-0.61-0.41-0.65c-0.11-0.05-0.27,0.03-0.34,0.16c-0.07,0.12-0.05,0.19,0.18,0.68
			c0.09,0.19,0.16,0.36,0.16,0.37c0,0.01-0.18,0.09-0.39,0.19c-0.22,0.1-0.43,0.21-0.47,0.24c-0.17,0.14-0.08,0.46,0.15,0.5
			c0.07,0.01,0.25-0.05,0.59-0.21C22.96,7.2,23.2,7.1,23.23,7.1c0.05,0,1.21,0.42,1.31,0.47c0.02,0.01-0.22,0.22-0.53,0.47
			L23.46,8.5l-0.58-0.05c-0.52-0.05-0.59-0.05-0.69,0.03c-0.12,0.1-0.14,0.29-0.03,0.42c0.06,0.07,0.16,0.1,0.56,0.14l0.49,0.05
			l-0.04,0.49C23.12,10.13,23.16,10.24,23.41,10.27z"/>
		<path class="st2" d="M36.72,8.02c-0.07-0.04-0.15-0.06-0.23-0.04c-0.1,0.03-0.16,0.1-0.42,0.53l-0.3,0.5l-0.7,0.18
			c-0.38,0.1-0.7,0.16-0.69,0.14c0-0.03,0.36-1.3,0.37-1.33c0-0.01,0.2-0.12,0.44-0.26c0.53-0.3,0.61-0.35,0.63-0.45
			c0.05-0.21-0.14-0.43-0.33-0.38c-0.05,0.01-0.26,0.12-0.47,0.24c-0.21,0.12-0.39,0.21-0.39,0.21c-0.01,0-0.09-0.16-0.2-0.35
			c-0.1-0.19-0.22-0.38-0.25-0.43c-0.14-0.2-0.48-0.13-0.52,0.12c-0.02,0.11,0.01,0.18,0.26,0.62l0.28,0.5l-0.2,0.69l-0.2,0.69
			l-0.34-0.35c-0.19-0.19-0.42-0.43-0.51-0.52l-0.16-0.17l0.01-0.54c0.01-0.3,0-0.57,0-0.61c-0.02-0.11-0.21-0.21-0.34-0.18
			c-0.2,0.04-0.24,0.17-0.25,0.65c0,0.24-0.01,0.45-0.02,0.47c-0.01,0.02-0.19,0.04-0.44,0.03c-0.23,0-0.47,0-0.52,0.02
			c-0.21,0.05-0.28,0.37-0.12,0.5c0.09,0.07,0.19,0.08,0.71,0.09c0.27,0,0.51,0.01,0.53,0.02c0.04,0.01,0.99,0.97,1,1.01
			c0,0.01-0.31,0.1-0.69,0.2l-0.69,0.18l-0.5-0.3c-0.43-0.25-0.52-0.29-0.62-0.27c-0.14,0.04-0.26,0.21-0.22,0.35
			c0.02,0.07,0.13,0.16,0.47,0.37l0.44,0.27l-0.26,0.45c-0.2,0.34-0.25,0.47-0.23,0.54c0.03,0.14,0.22,0.24,0.36,0.2
			c0.1-0.03,0.16-0.1,0.42-0.53l0.3-0.5l0.7-0.18c0.6-0.15,0.7-0.17,0.69-0.12c-0.01,0.11-0.36,1.29-0.39,1.32
			c-0.02,0.02-0.22,0.14-0.46,0.27c-0.46,0.25-0.54,0.31-0.58,0.41c-0.08,0.19,0.14,0.43,0.34,0.38c0.06-0.01,0.27-0.12,0.47-0.23
			c0.2-0.11,0.38-0.2,0.39-0.2c0.01,0.01,0.11,0.18,0.23,0.39c0.25,0.44,0.34,0.53,0.54,0.48c0.11-0.03,0.15-0.06,0.19-0.15
			c0.06-0.14,0.06-0.15-0.28-0.76l-0.24-0.43l0.18-0.64c0.1-0.35,0.19-0.67,0.2-0.7c0.01-0.04,0.19,0.13,0.52,0.47l0.51,0.52
			l-0.01,0.51c-0.01,0.53,0.01,0.67,0.1,0.77c0.08,0.09,0.26,0.09,0.37,0c0.11-0.08,0.12-0.15,0.13-0.69c0-0.21,0.01-0.39,0.01-0.4
			c0-0.01,0.2-0.01,0.44,0c0.24,0,0.48,0,0.53-0.02c0.21-0.05,0.26-0.38,0.08-0.52c-0.06-0.04-0.25-0.06-0.62-0.06
			c-0.3,0-0.56-0.02-0.59-0.03c-0.04-0.02-0.92-0.89-0.99-0.99c-0.01-0.01,0.29-0.11,0.68-0.2l0.7-0.18l0.5,0.3
			c0.45,0.27,0.52,0.29,0.63,0.26c0.16-0.04,0.25-0.2,0.2-0.37c-0.02-0.09-0.11-0.16-0.45-0.37L36.4,9.17l0.25-0.42
			C36.92,8.27,36.94,8.15,36.72,8.02z"/>
		<path class="st2" d="M41.08,19.35c0.07-0.05,0.11-0.12,0.12-0.2c0.01-0.1-0.04-0.19-0.35-0.58l-0.36-0.46l0.09-0.71
			c0.05-0.39,0.1-0.71,0.11-0.7c0.03,0.02,1.09,0.8,1.11,0.83c0.01,0.01,0.04,0.23,0.08,0.5c0.09,0.6,0.11,0.7,0.19,0.75
			c0.18,0.12,0.45,0.02,0.47-0.18c0.01-0.05-0.02-0.29-0.05-0.53c-0.03-0.24-0.06-0.44-0.05-0.44c0.01,0,0.18-0.03,0.39-0.06
			c0.21-0.03,0.43-0.07,0.5-0.08c0.24-0.06,0.29-0.4,0.08-0.53c-0.1-0.05-0.17-0.05-0.67,0.02l-0.57,0.08l-0.58-0.43l-0.58-0.43
			l0.45-0.2c0.25-0.11,0.55-0.24,0.67-0.29l0.22-0.09l0.5,0.21c0.28,0.11,0.53,0.21,0.57,0.21c0.11,0.02,0.28-0.12,0.3-0.25
			c0.03-0.2-0.07-0.29-0.52-0.47c-0.22-0.09-0.41-0.17-0.43-0.18c-0.02-0.01,0.03-0.19,0.13-0.42c0.09-0.22,0.17-0.44,0.17-0.5
			c0.03-0.21-0.24-0.4-0.42-0.29c-0.1,0.06-0.14,0.14-0.34,0.63c-0.1,0.25-0.19,0.47-0.21,0.49c-0.03,0.03-1.26,0.57-1.3,0.57
			c-0.01,0,0.02-0.32,0.06-0.71l0.09-0.71l0.46-0.36c0.39-0.31,0.46-0.38,0.47-0.48c0.02-0.15-0.11-0.32-0.25-0.33
			c-0.08-0.01-0.2,0.06-0.51,0.3l-0.41,0.31l-0.32-0.4c-0.25-0.31-0.35-0.41-0.42-0.42c-0.14-0.02-0.3,0.12-0.32,0.27
			c-0.01,0.1,0.04,0.19,0.35,0.58l0.36,0.46l-0.09,0.72c-0.07,0.61-0.09,0.71-0.14,0.69c-0.1-0.05-1.08-0.8-1.09-0.84
			c-0.01-0.02-0.05-0.26-0.08-0.52c-0.07-0.52-0.09-0.61-0.18-0.69c-0.15-0.14-0.45-0.03-0.48,0.18c-0.01,0.06,0.02,0.29,0.05,0.52
			c0.03,0.23,0.05,0.42,0.05,0.43c-0.01,0.01-0.21,0.04-0.45,0.08c-0.5,0.07-0.61,0.13-0.64,0.33c-0.01,0.11,0,0.16,0.08,0.23
			c0.11,0.11,0.12,0.11,0.81,0.01l0.49-0.07l0.53,0.4c0.29,0.22,0.55,0.42,0.58,0.43c0.03,0.02-0.19,0.13-0.62,0.32l-0.67,0.29
			l-0.47-0.19c-0.49-0.2-0.63-0.23-0.75-0.19c-0.11,0.04-0.18,0.21-0.14,0.35c0.04,0.13,0.1,0.17,0.6,0.37
			c0.2,0.08,0.36,0.15,0.37,0.15c0.01,0.01-0.06,0.19-0.15,0.41c-0.09,0.22-0.17,0.45-0.18,0.5c-0.03,0.22,0.26,0.38,0.45,0.26
			c0.06-0.04,0.15-0.21,0.28-0.56c0.11-0.28,0.22-0.52,0.24-0.54c0.03-0.03,1.16-0.53,1.28-0.57c0.02,0-0.01,0.31-0.05,0.71
			l-0.09,0.71l-0.46,0.36c-0.41,0.33-0.46,0.38-0.48,0.5c-0.02,0.16,0.1,0.3,0.27,0.32c0.09,0.01,0.18-0.04,0.5-0.29l0.39-0.3
			l0.31,0.38C40.78,19.45,40.89,19.5,41.08,19.35z"/>
	</g>
	<path class="st2" d="M34.68,16.34c-0.74,0-1.34,0.6-1.34,1.34c0,0.05,0.01,0.1,0.02,0.15c-0.76,0.18-1.47,0.07-2.11-0.43
		c-0.46-0.36-0.69-0.89-0.96-1.39c-0.57-1.09-1.13-2.19-2-3.09c-0.75-0.78-1.64-1.29-2.76-1.3c-1.3-0.02-2.33,0.58-3.19,1.49
		c-0.94,0.99-1.57,2.15-1.92,3.48c-0.03,0.11-0.13,0.25-0.22,0.28c-0.34,0.1-0.44,0.19-0.44,0.55c-0.01,0.86,0.13,1.69,0.48,2.48
		c0.17,0.39,0.43,0.73,0.86,0.82c0.36,0.07,0.51,0.27,0.64,0.58c0.45,1.04,1,2.01,1.83,2.8c0.53,0.5,1.13,0.83,1.9,0.73
		c0.7-0.09,1.21-0.52,1.66-1.01c0.75-0.81,1.24-1.79,1.68-2.8c0.04-0.09,0.1-0.22,0.18-0.24c0.41-0.12,0.7-0.37,0.87-0.77
		c0.18,0.06,0.33,0.12,0.49,0.17c1.49,0.48,3,0.15,3.93-1.24c0.12,0.04,0.25,0.06,0.39,0.06c0.74,0,1.34-0.6,1.34-1.34
		C36.02,16.94,35.42,16.34,34.68,16.34z"/>
</g>
</svg>
